# Blender v3.0.1 OBJ File: 'ball.blend'
# www.blender.org
mtllib ball.mtl
o Sphere
v 0.000000 -0.809017 -0.587785
v 0.181636 0.951057 -0.250000
v 0.345492 0.809017 -0.475528
v 0.475528 0.587785 -0.654509
v 0.559017 0.309017 -0.769421
v 0.587785 -0.000000 -0.809017
v 0.559017 -0.309017 -0.769421
v 0.475528 -0.587785 -0.654509
v 0.345492 -0.809017 -0.475528
v 0.181636 -0.951056 -0.250000
v 0.293893 0.951057 -0.095491
v 0.559017 0.809017 -0.181636
v 0.769421 0.587785 -0.250000
v 0.904509 0.309017 -0.293893
v 0.951057 -0.000000 -0.309017
v 0.904509 -0.309017 -0.293893
v 0.769421 -0.587785 -0.250000
v 0.559017 -0.809017 -0.181636
v 0.293893 -0.951056 -0.095491
v 0.293893 0.951057 0.095492
v 0.559017 0.809017 0.181636
v 0.769421 0.587785 0.250000
v 0.904509 0.309017 0.293893
v 0.951057 -0.000000 0.309017
v 0.904509 -0.309017 0.293893
v 0.769421 -0.587785 0.250000
v 0.559017 -0.809017 0.181636
v 0.293893 -0.951056 0.095492
v 0.181636 0.951057 0.250000
v 0.345492 0.809017 0.475528
v 0.475528 0.587785 0.654509
v 0.559017 0.309017 0.769421
v 0.587785 -0.000000 0.809017
v 0.559017 -0.309017 0.769421
v 0.475528 -0.587785 0.654509
v 0.345492 -0.809017 0.475528
v 0.181636 -0.951056 0.250000
v 0.000000 0.951057 0.309017
v -0.000000 0.809017 0.587785
v 0.000000 0.587785 0.809017
v 0.000000 0.309017 0.951057
v 0.000000 -0.000000 1.000000
v 0.000000 -0.309017 0.951057
v 0.000000 -0.587785 0.809017
v 0.000000 -0.809017 0.587785
v -0.000000 -0.951056 0.309017
v -0.000000 1.000000 0.000000
v -0.181636 0.951057 0.250000
v -0.345492 0.809017 0.475528
v -0.475528 0.587785 0.654509
v -0.559017 0.309017 0.769421
v -0.587785 -0.000000 0.809017
v -0.559017 -0.309017 0.769421
v -0.475528 -0.587785 0.654509
v -0.345491 -0.809017 0.475528
v -0.181636 -0.951056 0.250000
v -0.293893 0.951057 0.095492
v -0.559017 0.809017 0.181636
v -0.769421 0.587785 0.250000
v -0.904509 0.309017 0.293893
v -0.951057 -0.000000 0.309017
v -0.904508 -0.309017 0.293893
v -0.769421 -0.587785 0.250000
v -0.559017 -0.809017 0.181636
v -0.293893 -0.951056 0.095492
v -0.293893 0.951057 -0.095491
v -0.559017 0.809017 -0.181636
v -0.769421 0.587785 -0.250000
v -0.904509 0.309017 -0.293892
v -0.951057 -0.000000 -0.309017
v -0.904509 -0.309017 -0.293892
v -0.769421 -0.587785 -0.250000
v -0.559017 -0.809017 -0.181636
v -0.293893 -0.951056 -0.095491
v 0.000000 -1.000000 0.000000
v -0.181636 0.951057 -0.250000
v -0.345492 0.809017 -0.475528
v -0.475528 0.587785 -0.654508
v -0.559017 0.309017 -0.769421
v -0.587785 -0.000000 -0.809017
v -0.559017 -0.309017 -0.769421
v -0.475528 -0.587785 -0.654508
v -0.345492 -0.809017 -0.475528
v -0.181636 -0.951056 -0.250000
v -0.000000 0.951057 -0.309017
v -0.000000 0.809017 -0.587785
v -0.000000 0.587785 -0.809017
v -0.000000 0.309017 -0.951056
v -0.000000 -0.000000 -1.000000
v -0.000000 -0.309017 -0.951056
v -0.000000 -0.587785 -0.809017
v -0.000000 -0.951056 -0.309017
vt 0.700000 0.100000
vt 0.700000 0.200000
vt 0.600000 0.200000
vt 0.600000 0.100000
vt 0.700000 0.400000
vt 0.700000 0.500000
vt 0.600000 0.500000
vt 0.600000 0.400000
vt 0.700000 0.700000
vt 0.700000 0.800000
vt 0.600000 0.800000
vt 0.600000 0.700000
vt 0.650000 0.000000
vt 0.700000 0.300000
vt 0.600000 0.300000
vt 0.700000 0.600000
vt 0.600000 0.600000
vt 0.700000 0.900000
vt 0.650000 1.000000
vt 0.600000 0.900000
vt 0.500000 0.500000
vt 0.500000 0.400000
vt 0.500000 0.800000
vt 0.500000 0.700000
vt 0.550000 0.000000
vt 0.500000 0.100000
vt 0.500000 0.300000
vt 0.500000 0.600000
vt 0.550000 1.000000
vt 0.500000 0.900000
vt 0.500000 0.200000
vt 0.400000 0.900000
vt 0.400000 0.800000
vt 0.400000 0.200000
vt 0.400000 0.100000
vt 0.400000 0.500000
vt 0.400000 0.400000
vt 0.400000 0.700000
vt 0.450000 0.000000
vt 0.400000 0.300000
vt 0.400000 0.600000
vt 0.450000 1.000000
vt 0.300000 0.300000
vt 0.300000 0.200000
vt 0.300000 0.600000
vt 0.300000 0.500000
vt 0.300000 0.900000
vt 0.300000 0.800000
vt 0.300000 0.100000
vt 0.300000 0.400000
vt 0.300000 0.700000
vt 0.350000 0.000000
vt 0.350000 1.000000
vt 0.200000 0.700000
vt 0.200000 0.600000
vt 0.250000 1.000000
vt 0.200000 0.900000
vt 0.200000 0.300000
vt 0.200000 0.200000
vt 0.200000 0.500000
vt 0.200000 0.800000
vt 0.200000 0.100000
vt 0.200000 0.400000
vt 0.250000 0.000000
vt 0.100000 0.400000
vt 0.100000 0.300000
vt 0.100000 0.700000
vt 0.100000 0.600000
vt 0.150000 1.000000
vt 0.100000 0.900000
vt 0.100000 0.200000
vt 0.100000 0.500000
vt 0.100000 0.800000
vt 0.100000 0.100000
vt 0.150000 0.000000
vt 0.000000 0.800000
vt 0.000000 0.700000
vt 0.050000 0.000000
vt 0.000000 0.100000
vt 0.000000 0.400000
vt 0.000000 0.300000
vt 0.000000 0.600000
vt 0.050000 1.000000
vt 0.000000 0.900000
vt 0.000000 0.200000
vt 0.000000 0.500000
vt 1.000000 0.100000
vt 1.000000 0.200000
vt 0.900000 0.200000
vt 0.900000 0.100000
vt 1.000000 0.400000
vt 1.000000 0.500000
vt 0.900000 0.500000
vt 0.900000 0.400000
vt 1.000000 0.700000
vt 1.000000 0.800000
vt 0.900000 0.800000
vt 0.900000 0.700000
vt 0.950000 0.000000
vt 1.000000 0.300000
vt 0.900000 0.300000
vt 1.000000 0.600000
vt 0.900000 0.600000
vt 1.000000 0.900000
vt 0.950000 1.000000
vt 0.900000 0.900000
vt 0.800000 0.600000
vt 0.800000 0.500000
vt 0.800000 0.900000
vt 0.800000 0.800000
vt 0.800000 0.200000
vt 0.800000 0.100000
vt 0.800000 0.400000
vt 0.800000 0.700000
vt 0.850000 0.000000
vt 0.800000 0.300000
vt 0.850000 1.000000
vt 0.750000 1.000000
vt 0.750000 0.000000
vn 0.1459 -0.8815 -0.4491
vn 0.3056 -0.1490 -0.9404
vn 0.2239 0.6892 -0.6892
vn 0.0508 -0.9864 -0.1562
vn 0.2781 -0.4361 -0.8559
vn 0.2781 0.4361 -0.8559
vn 0.0508 0.9864 -0.1562
vn 0.2239 -0.6892 -0.6892
vn 0.3056 0.1490 -0.9404
vn 0.1459 0.8815 -0.4491
vn 0.8000 -0.1490 -0.5812
vn 0.5862 0.6892 -0.4259
vn 0.1329 -0.9864 -0.0966
vn 0.7280 -0.4361 -0.5290
vn 0.7280 0.4361 -0.5290
vn 0.1329 0.9864 -0.0966
vn 0.5862 -0.6892 -0.4259
vn 0.8000 0.1490 -0.5812
vn 0.3821 0.8815 -0.2776
vn 0.3821 -0.8815 -0.2776
vn 0.4722 0.8815 0.0000
vn 0.4722 -0.8815 0.0000
vn 0.9888 -0.1490 0.0000
vn 0.7246 0.6892 -0.0000
vn 0.1643 -0.9864 0.0000
vn 0.8999 -0.4361 -0.0000
vn 0.8999 0.4361 -0.0000
vn 0.1643 0.9864 0.0000
vn 0.7246 -0.6892 0.0000
vn 0.9888 0.1490 0.0000
vn 0.5862 -0.6892 0.4259
vn 0.8000 0.1490 0.5812
vn 0.3821 0.8815 0.2776
vn 0.3821 -0.8815 0.2776
vn 0.8000 -0.1490 0.5812
vn 0.5862 0.6892 0.4259
vn 0.1329 -0.9864 0.0966
vn 0.7280 -0.4361 0.5290
vn 0.7280 0.4361 0.5290
vn 0.1329 0.9864 0.0966
vn 0.2781 0.4361 0.8559
vn 0.0508 0.9864 0.1562
vn 0.2239 -0.6892 0.6892
vn 0.3056 0.1490 0.9404
vn 0.1459 0.8815 0.4491
vn 0.1459 -0.8815 0.4491
vn 0.3056 -0.1490 0.9404
vn 0.2239 0.6892 0.6892
vn 0.0508 -0.9864 0.1562
vn 0.2781 -0.4361 0.8559
vn -0.2781 -0.4361 0.8559
vn -0.2781 0.4361 0.8559
vn -0.0508 0.9864 0.1562
vn -0.2239 -0.6892 0.6892
vn -0.3056 0.1490 0.9404
vn -0.1459 0.8815 0.4491
vn -0.1459 -0.8815 0.4491
vn -0.3056 -0.1490 0.9404
vn -0.2239 0.6892 0.6892
vn -0.0508 -0.9864 0.1562
vn -0.5862 0.6892 0.4259
vn -0.1329 -0.9864 0.0966
vn -0.7280 -0.4361 0.5290
vn -0.7280 0.4361 0.5290
vn -0.1329 0.9864 0.0966
vn -0.5862 -0.6892 0.4259
vn -0.8000 0.1490 0.5812
vn -0.3821 0.8815 0.2776
vn -0.3821 -0.8815 0.2776
vn -0.8000 -0.1490 0.5812
vn -0.4722 -0.8815 0.0000
vn -0.9888 -0.1490 0.0000
vn -0.7246 0.6892 0.0000
vn -0.1643 -0.9864 0.0000
vn -0.8999 -0.4361 0.0000
vn -0.8999 0.4361 0.0000
vn -0.1643 0.9864 0.0000
vn -0.7246 -0.6892 0.0000
vn -0.9888 0.1490 0.0000
vn -0.4722 0.8815 0.0000
vn -0.8000 0.1490 -0.5812
vn -0.3821 0.8815 -0.2776
vn -0.3821 -0.8815 -0.2776
vn -0.8000 -0.1490 -0.5812
vn -0.5862 0.6892 -0.4259
vn -0.1329 -0.9864 -0.0966
vn -0.7280 -0.4361 -0.5290
vn -0.7280 0.4361 -0.5290
vn -0.1329 0.9864 -0.0966
vn -0.5862 -0.6892 -0.4259
vn -0.0508 0.9864 -0.1562
vn -0.2239 -0.6892 -0.6892
vn -0.3056 0.1490 -0.9404
vn -0.1459 0.8815 -0.4491
vn -0.1459 -0.8815 -0.4491
vn -0.3056 -0.1490 -0.9404
vn -0.2239 0.6892 -0.6892
vn -0.0508 -0.9864 -0.1562
vn -0.2781 -0.4361 -0.8559
vn -0.2781 0.4361 -0.8559
usemtl None
s off
f 92/1/1 1/2/1 9/3/1 10/4/1
f 90/5/2 89/6/2 6/7/2 7/8/2
f 87/9/3 86/10/3 3/11/3 4/12/3
f 75/13/4 92/1/4 10/4/4
f 91/14/5 90/5/5 7/8/5 8/15/5
f 88/16/6 87/9/6 4/12/6 5/17/6
f 85/18/7 47/19/7 2/20/7
f 1/2/8 91/14/8 8/15/8 9/3/8
f 89/6/9 88/16/9 5/17/9 6/7/9
f 86/10/10 85/18/10 2/20/10 3/11/10
f 7/8/11 6/7/11 15/21/11 16/22/11
f 4/12/12 3/11/12 12/23/12 13/24/12
f 75/25/13 10/4/13 19/26/13
f 8/15/14 7/8/14 16/22/14 17/27/14
f 5/17/15 4/12/15 13/24/15 14/28/15
f 2/20/16 47/29/16 11/30/16
f 9/3/17 8/15/17 17/27/17 18/31/17
f 6/7/18 5/17/18 14/28/18 15/21/18
f 3/11/19 2/20/19 11/30/19 12/23/19
f 10/4/20 9/3/20 18/31/20 19/26/20
f 12/23/21 11/30/21 20/32/21 21/33/21
f 19/26/22 18/31/22 27/34/22 28/35/22
f 16/22/23 15/21/23 24/36/23 25/37/23
f 13/24/24 12/23/24 21/33/24 22/38/24
f 75/39/25 19/26/25 28/35/25
f 17/27/26 16/22/26 25/37/26 26/40/26
f 14/28/27 13/24/27 22/38/27 23/41/27
f 11/30/28 47/42/28 20/32/28
f 18/31/29 17/27/29 26/40/29 27/34/29
f 15/21/30 14/28/30 23/41/30 24/36/30
f 27/34/31 26/40/31 35/43/31 36/44/31
f 24/36/32 23/41/32 32/45/32 33/46/32
f 21/33/33 20/32/33 29/47/33 30/48/33
f 28/35/34 27/34/34 36/44/34 37/49/34
f 25/37/35 24/36/35 33/46/35 34/50/35
f 22/38/36 21/33/36 30/48/36 31/51/36
f 75/52/37 28/35/37 37/49/37
f 26/40/38 25/37/38 34/50/38 35/43/38
f 23/41/39 22/38/39 31/51/39 32/45/39
f 20/32/40 47/53/40 29/47/40
f 32/45/41 31/51/41 40/54/41 41/55/41
f 29/47/42 47/56/42 38/57/42
f 36/44/43 35/43/43 44/58/43 45/59/43
f 33/46/44 32/45/44 41/55/44 42/60/44
f 30/48/45 29/47/45 38/57/45 39/61/45
f 37/49/46 36/44/46 45/59/46 46/62/46
f 34/50/47 33/46/47 42/60/47 43/63/47
f 31/51/48 30/48/48 39/61/48 40/54/48
f 75/64/49 37/49/49 46/62/49
f 35/43/50 34/50/50 43/63/50 44/58/50
f 44/58/51 43/63/51 53/65/51 54/66/51
f 41/55/52 40/54/52 50/67/52 51/68/52
f 38/57/53 47/69/53 48/70/53
f 45/59/54 44/58/54 54/66/54 55/71/54
f 42/60/55 41/55/55 51/68/55 52/72/55
f 39/61/56 38/57/56 48/70/56 49/73/56
f 46/62/57 45/59/57 55/71/57 56/74/57
f 43/63/58 42/60/58 52/72/58 53/65/58
f 40/54/59 39/61/59 49/73/59 50/67/59
f 75/75/60 46/62/60 56/74/60
f 50/67/61 49/73/61 58/76/61 59/77/61
f 75/78/62 56/74/62 65/79/62
f 54/66/63 53/65/63 62/80/63 63/81/63
f 51/68/64 50/67/64 59/77/64 60/82/64
f 48/70/65 47/83/65 57/84/65
f 55/71/66 54/66/66 63/81/66 64/85/66
f 52/72/67 51/68/67 60/82/67 61/86/67
f 49/73/68 48/70/68 57/84/68 58/76/68
f 56/74/69 55/71/69 64/85/69 65/79/69
f 53/65/70 52/72/70 61/86/70 62/80/70
f 65/87/71 64/88/71 73/89/71 74/90/71
f 62/91/72 61/92/72 70/93/72 71/94/72
f 59/95/73 58/96/73 67/97/73 68/98/73
f 75/99/74 65/87/74 74/90/74
f 63/100/75 62/91/75 71/94/75 72/101/75
f 60/102/76 59/95/76 68/98/76 69/103/76
f 57/104/77 47/105/77 66/106/77
f 64/88/78 63/100/78 72/101/78 73/89/78
f 61/92/79 60/102/79 69/103/79 70/93/79
f 58/96/80 57/104/80 66/106/80 67/97/80
f 70/93/81 69/103/81 79/107/81 80/108/81
f 67/97/82 66/106/82 76/109/82 77/110/82
f 74/90/83 73/89/83 83/111/83 84/112/83
f 71/94/84 70/93/84 80/108/84 81/113/84
f 68/98/85 67/97/85 77/110/85 78/114/85
f 75/115/86 74/90/86 84/112/86
f 72/101/87 71/94/87 81/113/87 82/116/87
f 69/103/88 68/98/88 78/114/88 79/107/88
f 66/106/89 47/117/89 76/109/89
f 73/89/90 72/101/90 82/116/90 83/111/90
f 76/109/91 47/118/91 85/18/91
f 83/111/92 82/116/92 91/14/92 1/2/92
f 80/108/93 79/107/93 88/16/93 89/6/93
f 77/110/94 76/109/94 85/18/94 86/10/94
f 84/112/95 83/111/95 1/2/95 92/1/95
f 81/113/96 80/108/96 89/6/96 90/5/96
f 78/114/97 77/110/97 86/10/97 87/9/97
f 75/119/98 84/112/98 92/1/98
f 82/116/99 81/113/99 90/5/99 91/14/99
f 79/107/100 78/114/100 87/9/100 88/16/100
