# Blender 4.0.1
# www.blender.org
mtllib bars.mtl
o Cube
v -1.000000 -0.100151 0.259797
v -1.000000 0.100151 0.259797
v -1.000000 -0.100151 -0.259797
v -1.000000 0.100151 -0.259797
v 1.000000 -0.100151 0.259797
v 1.000000 0.100151 0.259797
v 1.000000 -0.100151 -0.259797
v 1.000000 0.100151 -0.259797
v -0.603442 1.615764 -0.210219
v -0.603442 0.021957 -0.210219
v 0.000000 0.021957 -0.210219
v 0.000000 1.615764 -0.210219
v 0.123563 0.021957 -0.170071
v 0.123563 1.615764 -0.170071
v 0.199930 0.021957 -0.064961
v 0.199930 1.615764 -0.064961
v 0.199930 0.021957 0.064961
v 0.199930 1.615764 0.064961
v 0.123563 0.021957 0.170071
v 0.123563 1.615764 0.170071
v 0.000000 0.021957 0.210219
v 0.000000 1.615764 0.210219
v -0.123563 0.021957 0.170071
v -0.123563 1.615764 0.170071
v -0.199930 0.021957 0.064961
v -0.199930 1.615764 0.064961
v -0.199930 0.021957 -0.064961
v -0.199930 1.615764 -0.064961
v -0.123563 0.021957 -0.170071
v -0.123563 1.615764 -0.170071
v -0.479879 0.021957 -0.170071
v -0.479879 1.615764 -0.170071
v -0.403512 0.021957 -0.064961
v -0.403512 1.615764 -0.064961
v -0.403512 0.021957 0.064961
v -0.403512 1.615764 0.064961
v -0.479879 0.021957 0.170071
v -0.479879 1.615764 0.170071
v -0.603442 0.021957 0.210219
v -0.603442 1.615764 0.210219
v -0.727005 0.021957 0.170071
v -0.727005 1.615764 0.170071
v -0.803372 0.021957 0.064961
v -0.803372 1.615764 0.064961
v -0.803372 0.021957 -0.064961
v -0.803372 1.615764 -0.064961
v -0.727005 0.021957 -0.170071
v -0.727005 1.615764 -0.170071
v 0.605842 1.615764 -0.210219
v 0.605842 0.021957 -0.210219
v 0.729405 0.021957 -0.170071
v 0.729405 1.615764 -0.170071
v 0.805772 0.021957 -0.064961
v 0.805772 1.615764 -0.064961
v 0.805772 0.021957 0.064961
v 0.805772 1.615764 0.064961
v 0.729405 0.021957 0.170071
v 0.729405 1.615764 0.170071
v 0.605842 0.021957 0.210219
v 0.605842 1.615764 0.210219
v 0.482278 0.021957 0.170071
v 0.482278 1.615764 0.170071
v 0.405912 0.021957 0.064961
v 0.405912 1.615764 0.064961
v 0.405912 0.021957 -0.064961
v 0.405912 1.615764 -0.064961
v 0.482278 0.021957 -0.170071
v 0.482278 1.615764 -0.170071
v -1.000000 1.540595 0.259797
v -1.000000 1.740896 0.259797
v -1.000000 1.540595 -0.259797
v -1.000000 1.740896 -0.259797
v 1.000000 1.540595 0.259797
v 1.000000 1.740896 0.259797
v 1.000000 1.540595 -0.259797
v 1.000000 1.740896 -0.259797
v 0.851894 1.704206 0.192257
v 0.952227 1.704206 0.192257
v 0.851894 1.704206 -0.192257
v 0.952227 1.704206 -0.192257
v 0.851894 -0.076587 0.192257
v 0.952227 -0.076587 0.192257
v 0.851894 -0.076587 -0.192257
v 0.952227 -0.076587 -0.192257
v -0.944570 1.704206 0.192257
v -0.844237 1.704206 0.192257
v -0.944570 1.704206 -0.192257
v -0.844237 1.704206 -0.192257
v -0.944570 -0.076587 0.192257
v -0.844237 -0.076587 0.192257
v -0.944570 -0.076587 -0.192257
v -0.844237 -0.076587 -0.192257
vn -1.0000 -0.0000 -0.0000
vn -0.0000 -0.0000 -1.0000
vn 1.0000 -0.0000 -0.0000
vn -0.0000 -0.0000 1.0000
vn -0.0000 -1.0000 -0.0000
vn -0.0000 1.0000 -0.0000
vn 0.3090 -0.0000 -0.9511
vn 0.8090 -0.0000 -0.5878
vn -0.8090 -0.0000 0.5878
vn -0.3090 -0.0000 0.9511
vn 0.8090 -0.0000 0.5878
vn 0.3090 -0.0000 0.9511
vn -0.3090 -0.0000 -0.9511
vn -0.8090 -0.0000 -0.5878
vt 0.375000 0.000000
vt 0.625000 0.000000
vt 0.625000 0.250000
vt 0.375000 0.250000
vt 0.625000 0.500000
vt 0.375000 0.500000
vt 0.625000 0.750000
vt 0.375000 0.750000
vt 0.625000 1.000000
vt 0.375000 1.000000
vt 0.125000 0.500000
vt 0.125000 0.750000
vt 0.875000 0.500000
vt 0.875000 0.750000
vt 0.391068 0.444164
vt 0.250000 0.490000
vt 0.108932 0.444164
vt 0.021746 0.324164
vt 0.021746 0.175836
vt 0.108932 0.055836
vt 0.250000 0.010000
vt 0.391068 0.055836
vt 0.478254 0.175836
vt 0.478254 0.324164
vt 1.000000 0.500000
vt 1.000000 1.000000
vt 0.900000 1.000000
vt 0.900000 0.500000
vt 0.300000 0.500000
vt 0.300000 1.000000
vt 0.200000 1.000000
vt 0.200000 0.500000
vt 0.800000 1.000000
vt 0.800000 0.500000
vt 0.400000 0.500000
vt 0.400000 1.000000
vt 0.700000 1.000000
vt 0.700000 0.500000
vt 0.500000 0.500000
vt 0.500000 1.000000
vt 0.600000 1.000000
vt 0.600000 0.500000
vt 0.750000 0.490000
vt 0.891068 0.444164
vt 0.978254 0.324164
vt 0.978254 0.175836
vt 0.891068 0.055836
vt 0.750000 0.010000
vt 0.608932 0.055836
vt 0.521746 0.175836
vt 0.521746 0.324164
vt 0.608932 0.444164
vt 0.100000 0.500000
vt 0.100000 1.000000
vt -0.000000 1.000000
vt -0.000000 0.500000
s 0
f 1/1/1 2/2/1 4/3/1 3/4/1
f 3/4/2 4/3/2 8/5/2 7/6/2
f 7/6/3 8/5/3 6/7/3 5/8/3
f 5/8/4 6/7/4 2/9/4 1/10/4
f 3/11/5 7/6/5 5/8/5 1/12/5
f 8/5/6 4/13/6 2/14/6 6/7/6
f 32/15/6 9/16/6 48/17/6 46/18/6 44/19/6 42/20/6 40/21/6 38/22/6 36/23/6 34/24/6
f 11/25/7 12/26/7 14/27/7 13/28/7
f 43/29/1 44/30/1 46/31/1 45/32/1
f 13/28/8 14/27/8 16/33/8 15/34/8
f 41/35/9 42/36/9 44/30/9 43/29/9
f 15/34/3 16/33/3 18/37/3 17/38/3
f 39/39/10 40/40/10 42/36/10 41/35/10
f 17/38/11 18/37/11 20/41/11 19/42/11
f 37/42/12 38/41/12 40/40/12 39/39/12
f 19/42/12 20/41/12 22/40/12 21/39/12
f 35/38/11 36/37/11 38/41/11 37/42/11
f 21/39/10 22/40/10 24/36/10 23/35/10
f 10/43/5 31/44/5 33/45/5 35/46/5 37/47/5 39/48/5 41/49/5 43/50/5 45/51/5 47/52/5
f 33/34/3 34/33/3 36/37/3 35/38/3
f 23/35/9 24/36/9 26/30/9 25/29/9
f 47/53/13 48/54/13 9/55/13 10/56/13
f 31/28/8 32/27/8 34/33/8 33/34/8
f 25/29/1 26/30/1 28/31/1 27/32/1
f 14/15/6 12/16/6 30/17/6 28/18/6 26/19/6 24/20/6 22/21/6 20/22/6 18/23/6 16/24/6
f 10/25/7 9/26/7 32/27/7 31/28/7
f 27/32/14 28/31/14 30/54/14 29/53/14
f 45/32/14 46/31/14 48/54/14 47/53/14
f 29/53/13 30/54/13 12/55/13 11/56/13
f 11/43/5 13/44/5 15/45/5 17/46/5 19/47/5 21/48/5 23/49/5 25/50/5 27/51/5 29/52/5
f 52/15/6 49/16/6 68/17/6 66/18/6 64/19/6 62/20/6 60/21/6 58/22/6 56/23/6 54/24/6
f 63/29/1 64/30/1 66/31/1 65/32/1
f 61/35/9 62/36/9 64/30/9 63/29/9
f 59/39/10 60/40/10 62/36/10 61/35/10
f 57/42/12 58/41/12 60/40/12 59/39/12
f 55/38/11 56/37/11 58/41/11 57/42/11
f 50/43/5 51/44/5 53/45/5 55/46/5 57/47/5 59/48/5 61/49/5 63/50/5 65/51/5 67/52/5
f 53/34/3 54/33/3 56/37/3 55/38/3
f 67/53/13 68/54/13 49/55/13 50/56/13
f 51/28/8 52/27/8 54/33/8 53/34/8
f 50/25/7 49/26/7 52/27/7 51/28/7
f 65/32/14 66/31/14 68/54/14 67/53/14
f 69/1/1 70/2/1 72/3/1 71/4/1
f 71/4/2 72/3/2 76/5/2 75/6/2
f 75/6/3 76/5/3 74/7/3 73/8/3
f 73/8/4 74/7/4 70/9/4 69/10/4
f 71/11/5 75/6/5 73/8/5 69/12/5
f 76/5/6 72/13/6 70/14/6 74/7/6
f 77/1/6 78/2/6 80/3/6 79/4/6
f 79/4/2 80/3/2 84/5/2 83/6/2
f 83/6/5 84/5/5 82/7/5 81/8/5
f 81/8/4 82/7/4 78/9/4 77/10/4
f 79/11/1 83/6/1 81/8/1 77/12/1
f 84/5/3 80/13/3 78/14/3 82/7/3
f 85/1/6 86/2/6 88/3/6 87/4/6
f 87/4/2 88/3/2 92/5/2 91/6/2
f 91/6/5 92/5/5 90/7/5 89/8/5
f 89/8/4 90/7/4 86/9/4 85/10/4
f 87/11/1 91/6/1 89/8/1 85/12/1
f 92/5/3 88/13/3 86/14/3 90/7/3
