# Blender v3.0.1 OBJ File: 'baton.blend'
# www.blender.org
mtllib baton.mtl
o Cylinder
v 0.000000 0.038492 -0.038492
v 0.022625 0.038492 -0.031141
v 0.036608 0.038492 -0.011895
v 0.036608 0.038492 0.011894
v 0.022625 0.038492 0.031141
v -0.000000 0.038492 0.038492
v -0.022625 0.038492 0.031141
v -0.036608 0.038492 0.011894
v -0.036608 0.038492 -0.011895
v -0.022625 0.038492 -0.031141
v 0.000000 0.319990 -0.029628
v 0.017415 0.319990 -0.023969
v 0.028177 0.319990 -0.009156
v 0.028177 0.319990 0.009155
v 0.017415 0.319990 0.023969
v 0.000000 0.319990 0.029627
v -0.017415 0.319990 0.023969
v -0.028177 0.319990 0.009155
v -0.028177 0.319990 -0.009156
v -0.017415 0.319990 -0.023969
v 0.000000 0.340946 -0.040563
v 0.023842 0.340946 -0.032816
v 0.038577 0.340946 -0.012535
v 0.038577 0.340946 0.012534
v 0.023842 0.340946 0.032816
v 0.000000 0.340946 0.040562
v -0.023842 0.340946 0.032816
v -0.038577 0.340946 0.012534
v -0.038577 0.340946 -0.012535
v -0.023842 0.340946 -0.032816
v -0.000000 0.448516 -0.040563
v 0.023842 0.448516 -0.032816
v 0.038577 0.448516 -0.012535
v 0.038577 0.448516 0.012534
v 0.023842 0.448516 0.032816
v -0.000000 0.448516 0.040562
v -0.023842 0.448516 0.032816
v -0.038577 0.448516 0.012534
v -0.038577 0.448516 -0.012535
v -0.023842 0.448516 -0.032816
v -0.000000 0.513477 -0.028324
v 0.016649 0.513477 -0.022915
v 0.026938 0.513477 -0.008753
v 0.026938 0.513477 0.008752
v 0.016649 0.513477 0.022915
v -0.000000 0.513477 0.028324
v -0.016649 0.513477 0.022915
v -0.026938 0.513477 0.008752
v -0.026938 0.513477 -0.008753
v -0.016649 0.513477 -0.022915
v -0.023842 0.407592 0.032816
v -0.038577 0.407592 0.012534
v 0.038577 0.407592 0.012534
v 0.023842 0.407592 0.032816
v 0.000000 0.407592 -0.040563
v 0.023842 0.407592 -0.032816
v -0.038577 0.407592 -0.012535
v -0.000000 0.407592 0.040562
v 0.038577 0.407592 -0.012535
v -0.023842 0.407592 -0.032816
v 0.151794 0.340946 -0.012535
v 0.151794 0.340946 0.012534
v 0.151794 0.407592 0.012534
v 0.151794 0.407592 -0.012535
v 0.191376 0.349473 -0.009327
v 0.191376 0.349473 0.009327
v 0.191376 0.399065 0.009327
v 0.191376 0.399065 -0.009327
v 0.237943 0.349473 -0.009327
v 0.237943 0.349473 0.009327
v 0.237943 0.399065 0.009327
v 0.237943 0.399065 -0.009327
v 0.259480 0.334321 -0.015027
v 0.259480 0.334321 0.015026
v 0.259480 0.414217 0.015026
v 0.259480 0.414217 -0.015027
v -0.000000 -0.038492 -0.018062
v 0.000000 -0.019061 -0.038492
v 0.010616 -0.038492 -0.014612
v 0.022625 -0.019061 -0.031141
v 0.017177 -0.038492 -0.005582
v 0.036608 -0.019061 -0.011895
v 0.017177 -0.038492 0.005581
v 0.036608 -0.019061 0.011894
v 0.010616 -0.038492 0.014612
v 0.022625 -0.019061 0.031141
v -0.000000 -0.038492 0.018061
v -0.000000 -0.019061 0.038492
v -0.010616 -0.038492 0.014612
v -0.022625 -0.019061 0.031141
v -0.017177 -0.038492 0.005581
v -0.036608 -0.019061 0.011894
v -0.017177 -0.038492 -0.005582
v -0.036608 -0.019061 -0.011895
v -0.010616 -0.038492 -0.014612
v -0.022625 -0.019061 -0.031141
v 0.000000 1.242682 -0.028324
v 0.000000 1.253380 -0.017075
v 0.010037 1.253380 -0.013814
v 0.016649 1.242682 -0.022915
v 0.016239 1.253380 -0.005277
v 0.026938 1.242682 -0.008753
v 0.016239 1.253380 0.005276
v 0.026938 1.242682 0.008752
v 0.010037 1.253380 0.013814
v 0.016649 1.242682 0.022915
v 0.000000 1.253380 0.017075
v 0.000000 1.242682 0.028324
v -0.010036 1.253380 0.013814
v -0.016648 1.242682 0.022915
v -0.016239 1.253380 0.005276
v -0.026938 1.242682 0.008752
v -0.016239 1.253380 -0.005277
v -0.026938 1.242682 -0.008753
v -0.010036 1.253380 -0.013814
v -0.016648 1.242682 -0.022915
v 0.266179 0.334321 -0.015027
v 0.273450 0.341592 -0.007755
v 0.273450 0.341592 0.007755
v 0.266179 0.334321 0.015026
v 0.273450 0.406946 0.007755
v 0.266179 0.414217 0.015026
v 0.266179 0.414217 -0.015027
v 0.273450 0.406946 -0.007755
vt 0.100000 0.626200
vt 0.100000 1.000000
vt -0.000000 1.000000
vt -0.000000 0.626200
vt 0.800000 0.626200
vt 0.800000 1.000000
vt 0.700000 1.000000
vt 0.700000 0.626200
vt 0.600000 1.000000
vt 0.600000 0.626200
vt 0.500000 1.000000
vt 0.500000 0.626200
vt 0.400000 1.000000
vt 0.400000 0.626200
vt 0.300000 1.000000
vt 0.300000 0.626200
vt 0.200000 1.000000
vt 0.200000 0.626200
vt 0.900000 1.000000
vt 0.900000 1.000000
vt 0.800000 1.000000
vt 0.900000 0.626200
vt 1.000000 0.626200
vt 1.000000 1.000000
vt 0.700000 1.000000
vt 0.800000 1.000000
vt 0.700000 1.000000
vt 0.100000 1.000000
vt -0.000000 1.000000
vt 0.200000 1.000000
vt 0.300000 1.000000
vt 0.400000 1.000000
vt 0.500000 1.000000
vt 0.600000 1.000000
vt 1.000000 1.000000
vt 0.300000 1.000000
vt 0.400000 1.000000
vt 0.400000 1.000000
vt 0.300000 1.000000
vt 0.100000 1.000000
vt -0.000000 1.000000
vt 0.400000 1.000000
vt 0.300000 1.000000
vt 0.600000 1.000000
vt 1.000000 1.000000
vt 0.900000 1.000000
vt 0.200000 1.000000
vt 0.500000 1.000000
vt 0.600000 1.000000
vt 0.700000 1.000000
vt 0.700000 1.000000
vt 0.600000 1.000000
vt 0.600000 1.000000
vt 0.700000 1.000000
vt 0.900000 1.000000
vt 1.000000 1.000000
vt 1.000000 1.000000
vt 0.900000 1.000000
vt 0.200000 1.000000
vt 0.200000 1.000000
vt 0.500000 1.000000
vt 0.500000 1.000000
vt 0.800000 1.000000
vt 0.800000 1.000000
vt 0.100000 1.000000
vt 0.100000 1.000000
vt -0.000000 1.000000
vt -0.000000 1.000000
vt 0.800000 1.000000
vt 0.900000 1.000000
vt 0.900000 1.000000
vt 0.800000 1.000000
vt 1.000000 1.000000
vt 0.300000 1.000000
vt 0.200000 1.000000
vt 0.500000 1.000000
vt 0.100000 1.000000
vt 0.400000 1.000000
vt -0.000000 1.000000
vt 0.100000 1.000000
vt -0.000000 1.000000
vt 0.200000 1.000000
vt 0.500000 1.000000
vt 0.400000 1.000000
vt 0.700000 1.000000
vt 0.300000 1.000000
vt 0.600000 1.000000
vt 1.000000 1.000000
vt 0.800000 1.000000
vt 0.800000 1.000000
vt 0.700000 1.000000
vt 0.700000 1.000000
vt 0.700000 1.000000
vt 0.700000 1.000000
vt 0.800000 1.000000
vt 0.700000 1.000000
vt 0.800000 1.000000
vt 0.800000 1.000000
vt 0.800000 1.000000
vt 0.800000 1.000000
vt 0.800000 1.000000
vt 0.700000 1.000000
vt 0.700000 1.000000
vt 0.700000 1.000000
vt 0.800000 1.000000
vt 0.700000 1.000000
vt 0.800000 1.000000
vt 0.724196 1.000000
vt 0.775804 1.000000
vt 0.775804 1.000000
vt 0.724196 1.000000
vt 0.700000 1.000000
vt 0.926539 0.500000
vt 0.973461 0.500000
vt 0.826539 0.500000
vt 0.873461 0.500000
vt 0.726539 0.500000
vt 0.773461 0.500000
vt 0.626539 0.500000
vt 0.673461 0.500000
vt 0.526539 0.500000
vt 0.573461 0.500000
vt 0.426539 0.500000
vt 0.473461 0.500000
vt 0.326539 0.500000
vt 0.373461 0.500000
vt 0.226539 0.500000
vt 0.273461 0.500000
vt 0.126539 0.500000
vt 0.173461 0.500000
vt 0.026539 0.500000
vt 0.073461 0.500000
vt 0.750000 0.362613
vt 0.816193 0.341106
vt 0.857102 0.284799
vt 0.857102 0.215201
vt 0.816193 0.158894
vt 0.750000 0.137387
vt 0.683807 0.158894
vt 0.642898 0.215200
vt 0.642898 0.284800
vt 0.683807 0.341106
vt 0.980142 1.000000
vt 0.919858 1.000000
vt 0.880142 1.000000
vt 0.819858 1.000000
vt 0.780142 1.000000
vt 0.719858 1.000000
vt 0.680142 1.000000
vt 0.619858 1.000000
vt 0.580142 1.000000
vt 0.519858 1.000000
vt 0.480142 1.000000
vt 0.419858 1.000000
vt 0.380142 1.000000
vt 0.319858 1.000000
vt 0.280142 1.000000
vt 0.219858 1.000000
vt 0.180142 1.000000
vt 0.119858 1.000000
vt 0.080142 1.000000
vt 0.019858 1.000000
vt 0.335042 0.367050
vt 0.250000 0.394682
vt 0.164958 0.367050
vt 0.112399 0.294709
vt 0.112399 0.205291
vt 0.164958 0.132950
vt 0.250000 0.105318
vt 0.335042 0.132950
vt 0.387601 0.205291
vt 0.387601 0.294709
vn -0.3090 0.0000 -0.9511
vn 1.0000 0.0000 0.0000
vn 0.8090 0.0000 0.5878
vn 0.3090 0.0000 0.9511
vn -0.3090 0.0000 0.9511
vn -0.8090 0.0000 0.5878
vn -1.0000 0.0000 0.0000
vn -0.8090 0.0000 -0.5878
vn 0.8087 0.0299 -0.5875
vn 0.8090 0.0000 -0.5878
vn 0.3090 0.0000 -0.9511
vn 0.8957 -0.4446 0.0000
vn -0.3089 0.0299 -0.9506
vn -0.8087 0.0299 -0.5875
vn -0.9996 0.0299 0.0000
vn -0.8087 0.0299 0.5875
vn -0.3089 0.0299 0.9506
vn 0.3089 0.0299 0.9506
vn 0.8087 0.0299 0.5875
vn 0.3089 0.0299 -0.9506
vn 0.9996 0.0299 0.0000
vn -0.2768 -0.4446 -0.8519
vn -0.7247 -0.4446 0.5265
vn 0.7247 -0.4446 0.5265
vn 0.2768 -0.4446 -0.8519
vn -0.8958 -0.4446 0.0000
vn 0.2768 -0.4446 0.8519
vn 0.7247 -0.4446 -0.5265
vn -0.7247 -0.4446 -0.5265
vn -0.2768 -0.4446 0.8519
vn 0.7963 0.1764 0.5786
vn 0.3042 0.1764 -0.9361
vn -0.9843 0.1764 0.0000
vn 0.3042 0.1764 0.9361
vn 0.7963 0.1764 -0.5786
vn -0.7963 0.1764 -0.5786
vn -0.3042 0.1764 0.9361
vn 0.9843 0.1764 0.0000
vn -0.3042 0.1764 -0.9361
vn -0.7963 0.1764 0.5786
vn 0.0000 0.0000 -1.0000
vn 0.0808 0.0000 0.9967
vn 0.0000 0.0000 1.0000
vn -0.0000 1.0000 0.0000
vn 0.0000 -1.0000 0.0000
vn 0.2106 -0.9776 0.0000
vn 0.2106 0.9776 0.0000
vn 0.0808 0.0000 -0.9967
vn -0.2558 0.0000 -0.9667
vn -0.2558 0.0000 0.9667
vn -0.5754 -0.8179 0.0000
vn -0.5754 0.8179 0.0000
vn 0.2185 -0.7071 -0.6725
vn 0.5721 -0.7071 -0.4156
vn 0.7071 -0.7071 0.0000
vn 0.5721 -0.7071 0.4156
vn 0.2185 -0.7071 0.6725
vn -0.2185 -0.7071 0.6725
vn -0.5721 -0.7071 0.4156
vn -0.7071 -0.7071 0.0000
vn -0.5721 -0.7071 -0.4156
vn -0.2185 -0.7071 -0.6725
vn 0.2185 0.7071 -0.6725
vn 0.5721 0.7071 -0.4156
vn 0.7071 0.7071 0.0000
vn 0.5721 0.7071 0.4156
vn 0.2185 0.7071 0.6725
vn -0.2185 0.7071 0.6725
vn -0.5721 0.7071 0.4156
vn -0.7071 0.7071 0.0000
vn -0.5721 0.7071 -0.4156
vn -0.2185 0.7071 -0.6725
vn 0.7071 0.0000 -0.7071
vn 0.7071 0.0000 0.7071
usemtl None
s off
f 96/1/1 10/2/1 1/3/1 78/4/1
f 82/5/2 3/6/2 4/7/2 84/8/2
f 84/8/3 4/7/3 5/9/3 86/10/3
f 86/10/4 5/9/4 6/11/4 88/12/4
f 88/12/5 6/11/5 7/13/5 90/14/5
f 90/14/6 7/13/6 8/15/6 92/16/6
f 92/16/7 8/15/7 9/17/7 94/18/7
f 94/18/8 9/17/8 10/2/8 96/1/8
f 3/6/9 2/19/9 12/20/9 13/21/9
f 80/22/10 2/19/10 3/6/10 82/5/10
f 78/23/11 1/24/11 2/19/11 80/22/11
f 14/25/12 13/21/12 23/26/12 24/27/12
f 1/3/13 10/2/13 20/28/13 11/29/13
f 10/2/14 9/17/14 19/30/14 20/28/14
f 9/17/15 8/15/15 18/31/15 19/30/15
f 8/15/16 7/13/16 17/32/16 18/31/16
f 7/13/17 6/11/17 16/33/17 17/32/17
f 6/11/18 5/9/18 15/34/18 16/33/18
f 5/9/19 4/7/19 14/25/19 15/34/19
f 2/19/20 1/24/20 11/35/20 12/20/20
f 4/7/21 3/6/21 13/21/21 14/25/21
f 52/36/6 51/37/6 37/38/6 38/39/6
f 11/29/22 20/28/22 30/40/22 21/41/22
f 18/31/23 17/32/23 27/42/23 28/43/23
f 15/34/24 14/25/24 24/27/24 25/44/24
f 12/20/25 11/35/25 21/45/25 22/46/25
f 19/30/26 18/31/26 28/43/26 29/47/26
f 16/33/27 15/34/27 25/44/27 26/48/27
f 13/21/28 12/20/28 22/46/28 23/26/28
f 20/28/29 19/30/29 29/47/29 30/40/29
f 17/32/30 16/33/30 26/48/30 27/42/30
f 35/49/31 34/50/31 44/51/31 45/52/31
f 54/53/3 53/54/3 34/50/3 35/49/3
f 56/55/11 55/56/11 31/57/11 32/58/11
f 57/59/7 52/36/7 38/39/7 39/60/7
f 58/61/4 54/53/4 35/49/4 36/62/4
f 59/63/10 56/55/10 32/58/10 33/64/10
f 60/65/8 57/59/8 39/60/8 40/66/8
f 51/37/5 58/61/5 36/62/5 37/38/5
f 53/54/2 59/63/2 33/64/2 34/50/2
f 55/67/1 60/65/1 40/66/1 31/68/1
f 43/69/10 42/70/10 100/71/10 102/72/10
f 32/58/32 31/57/32 41/73/32 42/70/32
f 39/60/33 38/39/33 48/74/33 49/75/33
f 36/62/34 35/49/34 45/52/34 46/76/34
f 33/64/35 32/58/35 42/70/35 43/69/35
f 40/66/36 39/60/36 49/75/36 50/77/36
f 37/38/37 36/62/37 46/76/37 47/78/37
f 34/50/38 33/64/38 43/69/38 44/51/38
f 31/68/39 40/66/39 50/77/39 41/79/39
f 38/39/40 37/38/40 47/78/40 48/74/40
f 41/79/1 50/77/1 116/80/1 97/81/1
f 50/77/8 49/75/8 114/82/8 116/80/8
f 47/78/5 46/76/5 108/83/5 110/84/5
f 44/51/2 43/69/2 102/72/2 104/85/2
f 48/74/6 47/78/6 110/84/6 112/86/6
f 45/52/3 44/51/3 104/85/3 106/87/3
f 42/70/11 41/73/11 97/88/11 100/71/11
f 49/75/7 48/74/7 112/86/7 114/82/7
f 46/76/4 45/52/4 106/87/4 108/83/4
f 21/41/1 30/40/1 60/65/1 55/67/1
f 23/26/41 59/63/41 64/89/41 61/90/41
f 27/42/5 26/48/5 58/61/5 51/37/5
f 30/40/8 29/47/8 57/59/8 60/65/8
f 23/26/10 22/46/10 56/55/10 59/63/10
f 26/48/4 25/44/4 54/53/4 58/61/4
f 29/47/7 28/43/7 52/36/7 57/59/7
f 22/46/11 21/45/11 55/56/11 56/55/11
f 25/44/3 24/27/3 53/54/3 54/53/3
f 28/43/6 27/42/6 51/37/6 52/36/6
f 63/91/42 62/92/42 66/93/42 67/94/42
f 53/54/43 24/27/43 62/92/43 63/91/43
f 59/63/44 53/54/44 63/91/44 64/89/44
f 24/27/45 23/26/45 61/90/45 62/92/45
f 68/95/44 67/94/44 71/96/44 72/97/44
f 62/92/46 61/90/46 65/98/46 66/93/46
f 64/89/47 63/91/47 67/94/47 68/95/47
f 61/90/48 64/89/48 68/95/48 65/98/48
f 69/99/49 72/97/49 76/100/49 73/101/49
f 65/98/41 68/95/41 72/97/41 69/99/41
f 67/94/43 66/93/43 70/102/43 71/96/43
f 66/93/45 65/98/45 69/99/45 70/102/45
f 76/100/44 75/103/44 122/104/44 123/105/44
f 71/96/50 70/102/50 74/106/50 75/103/50
f 70/102/51 69/99/51 73/101/51 74/106/51
f 72/97/52 71/96/52 75/103/52 76/100/52
f 73/101/41 76/100/41 123/105/41 117/107/41
f 119/108/2 118/109/2 124/110/2 121/111/2
f 75/103/43 74/106/43 120/112/43 122/104/43
f 78/23/53 80/22/53 79/113/53 77/114/53
f 80/22/54 82/5/54 81/115/54 79/116/54
f 82/5/55 84/8/55 83/117/55 81/118/55
f 84/8/56 86/10/56 85/119/56 83/120/56
f 86/10/57 88/12/57 87/121/57 85/122/57
f 88/12/58 90/14/58 89/123/58 87/124/58
f 90/14/59 92/16/59 91/125/59 89/126/59
f 92/16/60 94/18/60 93/127/60 91/128/60
f 94/18/61 96/1/61 95/129/61 93/130/61
f 96/1/62 78/4/62 77/131/62 95/132/62
f 77/133/45 79/134/45 81/135/45 83/136/45 85/137/45 87/138/45 89/139/45 91/140/45 93/141/45 95/142/45
f 100/71/63 97/88/63 98/143/63 99/144/63
f 102/72/64 100/71/64 99/145/64 101/146/64
f 104/85/65 102/72/65 101/147/65 103/148/65
f 106/87/66 104/85/66 103/149/66 105/150/66
f 108/83/67 106/87/67 105/151/67 107/152/67
f 110/84/68 108/83/68 107/153/68 109/154/68
f 112/86/69 110/84/69 109/155/69 111/156/69
f 114/82/70 112/86/70 111/157/70 113/158/70
f 116/80/71 114/82/71 113/159/71 115/160/71
f 97/81/72 116/80/72 115/161/72 98/162/72
f 99/163/44 98/164/44 115/165/44 113/166/44 111/167/44 109/168/44 107/169/44 105/170/44 103/171/44 101/172/44
f 120/112/55 117/107/55 118/109/55 119/108/55
f 124/110/73 118/109/73 117/107/73 123/105/73
f 119/108/74 121/111/74 122/104/74 120/112/74
f 123/105/65 122/104/65 121/111/65 124/110/65
f 74/106/45 73/101/45 117/107/45 120/112/45
