# Blender 4.0.1
# www.blender.org
mtllib book.mtl
o Cube
v -1.877535 -2.458410 0.532344
v -1.877535 2.416483 0.532344
v -1.877535 -2.458410 -0.532344
v -1.877535 2.416483 -0.532344
v 1.693122 -2.458410 0.532344
v 1.693122 2.416483 0.532344
v 1.693122 -2.458410 -0.532344
v 1.693122 2.416483 -0.532344
vn -1.0000 -0.0000 -0.0000
vn -0.0000 -0.0000 -1.0000
vn 1.0000 -0.0000 -0.0000
vn -0.0000 -0.0000 1.0000
vn -0.0000 -1.0000 -0.0000
vn -0.0000 1.0000 -0.0000
vt 0.375000 0.000000
vt 0.625000 0.000000
vt 0.625000 0.250000
vt 0.375000 0.250000
vt 0.625000 0.500000
vt 0.375000 0.500000
vt 0.625000 0.750000
vt 0.375000 0.750000
vt 0.625000 1.000000
vt 0.375000 1.000000
vt 0.125000 0.500000
vt 0.125000 0.750000
vt 0.875000 0.500000
vt 0.875000 0.750000
s 0
f 1/1/1 2/2/1 4/3/1 3/4/1
f 3/4/2 4/3/2 8/5/2 7/6/2
f 7/6/3 8/5/3 6/7/3 5/8/3
f 5/8/4 6/7/4 2/9/4 1/10/4
f 3/11/5 7/6/5 5/8/5 1/12/5
f 8/5/6 4/13/6 2/14/6 6/7/6
o Cube.001
v -1.899712 -2.469470 0.730761
v -1.899712 2.469470 0.730761
v -1.899712 -2.469470 -0.730761
v -1.899712 2.469470 -0.730761
v 1.772861 -2.469470 0.730761
v 1.772861 2.469470 0.730761
v 1.772861 -2.469470 -0.730761
v 1.772861 2.469470 -0.730761
v -1.899712 -2.469470 -0.365380
v -1.899712 -2.469470 0.000000
v -1.899712 -2.469470 0.365380
v -1.899712 2.469470 0.365380
v -1.899712 2.469470 0.000000
v -1.899712 2.469470 -0.365380
v 1.715201 -2.469470 0.365380
v 1.715201 -2.469470 0.000000
v 1.715201 -2.469470 -0.365380
v 1.715201 2.469470 -0.365380
v 1.715201 2.469470 0.365380
v -1.186497 1.367573 0.365380
v -1.186497 1.367573 0.000000
v -1.186497 1.367573 -0.365380
v 0.721456 -1.507411 0.365380
v 0.721456 -1.507411 0.000000
v 0.721456 -1.507411 -0.365380
v 0.721456 1.367573 -0.365380
v 0.721456 1.367573 0.000000
v 0.721456 1.367573 0.365380
v -2.045991 -2.598606 0.384487
v -2.045991 -2.598606 0.768975
v -2.045991 2.598606 0.768975
v -2.045991 2.598606 -0.384487
v -2.045991 2.598606 -0.768975
v -2.045991 -2.598606 -0.768975
v -2.045991 -2.598606 -0.384487
v -2.045991 -2.598606 0.000000
v -2.045991 2.598606 0.384487
v -2.045991 2.598606 0.000000
v -2.519194 -2.598606 0.384487
v -2.519194 -2.598606 0.768975
v -2.519194 2.598606 0.768975
v -2.519194 2.598606 -0.384487
v -2.519194 2.598606 -0.768975
v -2.519194 -2.598606 -0.768975
v -2.519194 -2.598606 -0.384487
v -2.519194 -2.598606 0.000000
v -2.519194 2.598606 0.384487
v -2.519194 2.598606 0.000000
v -2.693939 -2.446081 0.361920
v -2.693939 -2.446081 0.723840
v -2.693939 2.446081 0.723840
v -2.693939 2.446081 -0.361920
v -2.693939 2.446081 -0.723840
v -2.693939 -2.446081 -0.723840
v -2.693939 -2.446081 -0.361920
v -2.693939 -2.446081 -0.000000
v -2.693939 2.446081 0.361920
v -2.693939 2.446081 -0.000000
vn 0.2528 -0.0000 -0.9675
vn -0.0000 -0.0000 -1.0000
vn 0.9878 -0.0000 -0.1559
vn -0.0000 -0.0000 1.0000
vn -0.0000 -1.0000 -0.0000
vn -0.0000 1.0000 -0.0000
vn 0.8395 0.5434 -0.0000
vn 0.9878 -0.0000 0.1559
vn 0.6956 0.7185 -0.0000
vn 0.6618 -0.7497 -0.0000
vn 0.6618 0.7497 -0.0000
vn 1.0000 -0.0000 -0.0000
vn 0.2528 -0.0000 0.9675
vn -0.6576 -0.7534 -0.0000
vn -0.6576 0.7534 -0.0000
vn -1.0000 -0.0000 -0.0000
vn -0.2501 -0.0000 -0.9682
vn -0.2501 -0.0000 0.9682
vt 0.625000 0.250000
vt 0.375000 0.250000
vt 0.625000 0.500000
vt 0.375000 0.500000
vt 0.375000 0.687500
vt 0.625000 0.687500
vt 0.625000 0.750000
vt 0.375000 0.750000
vt 0.625000 1.000000
vt 0.375000 1.000000
vt 0.125000 0.687500
vt 0.125000 0.750000
vt 0.875000 0.687500
vt 0.875000 0.750000
vt 0.875000 0.500000
vt 0.875000 0.562500
vt 0.625000 0.562500
vt 0.625000 0.187500
vt 0.625000 0.125000
vt 0.125000 0.500000
vt 0.375000 0.562500
vt 0.125000 0.562500
vt 0.375000 0.625000
vt 0.125000 0.625000
vt 0.625000 0.062500
vt 0.875000 0.625000
vt 0.625000 0.625000
vt 0.375000 0.187500
vt 0.375000 0.000000
vt 0.625000 0.000000
vt 0.375000 0.062500
vt 0.375000 0.125000
s 0
f 12/15/7 11/16/7 42/16/7 41/15/7
f 11/16/8 12/15/8 16/17/8 15/18/8
f 23/19/9 27/20/9 14/21/9 13/22/9
f 13/22/10 14/21/10 10/23/10 9/24/10
f 19/25/11 23/19/11 13/22/11 9/26/11
f 27/20/12 20/27/12 10/28/12 14/21/12
f 16/17/12 12/29/12 22/30/12 26/31/12
f 20/27/8 27/20/8 36/20/8 28/27/8
f 22/32/13 21/33/13 29/33/13 30/32/13
f 11/34/11 15/18/11 25/35/11 17/36/11
f 17/36/11 25/35/11 24/37/11 18/38/11
f 18/38/11 24/37/11 23/19/11 19/25/11
f 15/18/14 16/17/14 26/31/14 25/35/14
f 23/19/15 24/37/15 32/37/15 31/19/15
f 25/35/10 26/31/10 34/31/10 33/35/10
f 17/36/16 18/38/16 44/38/16 43/36/16
f 20/39/17 21/33/17 46/33/17 45/39/17
f 22/30/17 12/29/17 41/29/17 40/30/17
f 34/31/12 30/30/12 29/40/12 35/41/12
f 35/41/12 29/40/12 28/27/12 36/20/12
f 33/35/18 34/31/18 35/41/18 32/37/18
f 32/37/18 35/41/18 36/20/18 31/19/18
f 26/31/10 22/30/10 30/30/10 34/31/10
f 24/37/15 25/35/15 33/35/15 32/37/15
f 21/33/13 20/39/13 28/39/13 29/33/13
f 27/20/8 23/19/8 31/19/8 36/20/8
f 40/30/12 41/29/12 51/29/12 50/30/12
f 43/36/11 44/38/11 54/38/11 53/36/11
f 45/39/12 46/33/12 56/33/12 55/39/12
f 38/24/10 39/23/10 49/23/10 48/24/10
f 21/33/17 22/32/17 40/32/17 46/33/17
f 19/25/16 9/26/16 38/26/16 37/25/16
f 18/38/16 19/25/16 37/25/16 44/38/16
f 9/24/19 10/23/19 39/23/19 38/24/19
f 10/28/17 20/27/17 45/27/17 39/28/17
f 11/34/16 17/36/16 43/36/16 42/34/16
f 54/38/20 47/25/20 57/25/20 64/38/20
f 56/33/21 50/32/21 60/32/21 66/33/21
f 50/30/21 51/29/21 61/29/21 60/30/21
f 53/36/20 54/38/20 64/38/20 63/36/20
f 46/33/12 40/32/12 50/32/12 56/33/12
f 44/38/11 37/25/11 47/25/11 54/38/11
f 41/15/8 42/16/8 52/16/8 51/15/8
f 37/25/11 38/26/11 48/26/11 47/25/11
f 39/28/12 45/27/12 55/27/12 49/28/12
f 42/34/11 43/36/11 53/36/11 52/34/11
f 63/42/22 60/32/22 61/15/22 62/16/22
f 58/43/22 59/44/22 65/39/22 57/45/22
f 57/45/22 65/39/22 66/33/22 64/46/22
f 64/46/22 66/33/22 60/32/22 63/42/22
f 51/15/23 52/16/23 62/16/23 61/15/23
f 47/25/20 48/26/20 58/26/20 57/25/20
f 49/28/21 55/27/21 65/27/21 59/28/21
f 52/34/20 53/36/20 63/36/20 62/34/20
f 48/24/24 49/23/24 59/23/24 58/24/24
f 55/39/21 56/33/21 66/33/21 65/39/21
