# Blender 4.0.1
# www.blender.org
mtllib Box w hole.mtl
o Cube
v 1.000000 1.000000 -1.000000
v 1.000000 -1.000000 -1.000000
v 1.000000 1.000000 1.000000
v 1.000000 -1.000000 1.000000
v -1.000000 1.000000 -1.000000
v -1.000000 -1.000000 -1.000000
v -1.000000 1.000000 1.000000
v -1.000000 -1.000000 1.000000
v 0.426337 1.218446 -0.441490
v 0.426337 1.218446 0.425315
v -0.410659 1.218446 -0.441490
v -0.410659 1.218446 0.425315
v 0.424655 -0.387869 -0.385281
v 0.424655 -0.387869 0.481524
v -0.412341 -0.387869 -0.385281
v -0.412341 -0.387869 0.481524
vn 1.0000 -0.0000 -0.0000
vn -0.0000 -1.0000 -0.0000
vn -0.0000 -0.0000 -1.0000
vn -1.0000 -0.0000 -0.0000
vn -0.0000 -0.0000 1.0000
vn -0.3476 0.9377 -0.0000
vn 0.3559 0.9345 -0.0000
vn -0.0000 0.9347 0.3553
vn -0.0000 0.9313 -0.3643
vn -1.0000 0.0010 -0.0000
vn -0.0000 0.0350 0.9994
vn -0.0000 -0.0350 -0.9994
vn 1.0000 -0.0010 -0.0000
vn -0.0000 1.0000 -0.0000
vt 0.375000 0.750000
vt 0.375000 0.500000
vt 0.000000 0.000000
vt 0.125000 0.500000
vt 0.125000 0.750000
s 0
usemtl Material
f 4/1/1 2/2/1 1/3/1 3/3/1
f 6/4/2 2/2/2 4/1/2 8/5/2
f 6/4/3 5/3/3 1/3/3 2/2/3
f 6/4/4 8/5/4 7/3/4 5/3/4
f 7/3/5 8/5/5 4/1/5 3/3/5
f 5/3/6 7/3/6 12/3/6 11/3/6
f 3/3/7 1/3/7 9/3/7 10/3/7
f 7/3/8 3/3/8 10/3/8 12/3/8
f 1/3/9 5/3/9 11/3/9 9/3/9
f 10/3/10 9/3/10 13/3/10 14/3/10
f 9/3/11 11/3/11 15/3/11 13/3/11
f 12/3/12 10/3/12 14/3/12 16/3/12
f 11/3/13 12/3/13 16/3/13 15/3/13
f 16/3/14 14/3/14 13/3/14 15/3/14
