# Blender 4.0.1
# www.blender.org
mtllib ducknest.mtl
o Cylinder
v -0.000000 0.176549 -1.675682
v 0.837841 0.176549 -1.451183
v 1.451183 0.176549 -0.837841
v 1.675682 0.176549 -0.000000
v 1.451183 0.176549 0.837841
v 0.837841 0.176549 1.451183
v -0.000000 0.176549 1.675682
v -0.837841 0.176549 1.451183
v -1.451183 0.176549 0.837841
v -1.675682 0.176549 -0.000000
v -1.451183 0.176549 -0.837841
v -0.837841 0.176549 -1.451183
v -0.000000 -0.522308 -1.935592
v 0.000000 -0.025066 -2.450375
v 0.967796 -0.522308 -1.676272
v 1.225187 -0.025066 -2.122087
v 1.676272 -0.522308 -0.967796
v 2.122087 -0.025066 -1.225187
v 1.935592 -0.522308 0.000000
v 2.450375 -0.025066 -0.000000
v 1.676272 -0.522308 0.967796
v 2.122087 -0.025066 1.225187
v 0.967796 -0.522308 1.676272
v 1.225187 -0.025066 2.122087
v -0.000000 -0.522308 1.935592
v 0.000000 -0.025066 2.450375
v -0.967796 -0.522308 1.676272
v -1.225188 -0.025066 2.122087
v -1.676272 -0.522308 0.967796
v -2.122087 -0.025066 1.225187
v -1.935592 -0.522308 0.000000
v -2.450375 -0.025066 -0.000000
v -1.676272 -0.522308 -0.967796
v -2.122087 -0.025066 -1.225187
v -0.967796 -0.522308 -1.676272
v -1.225188 -0.025066 -2.122087
v 1.225187 0.522308 -2.122087
v 0.000000 0.522308 -2.450375
v 2.122087 0.522308 -1.225187
v 2.450375 0.522308 -0.000000
v 2.122087 0.522308 1.225187
v 1.225187 0.522308 2.122087
v 0.000000 0.522308 2.450375
v -1.225188 0.522308 2.122087
v -2.122087 0.522308 1.225187
v -2.450375 0.522308 -0.000000
v -2.122087 0.522308 -1.225187
v -1.225188 0.522308 -2.122087
v 1.172233 0.522308 -2.030366
v -0.000000 0.522308 -2.344465
v 2.030366 0.522308 -1.172233
v 2.344465 0.522308 -0.000000
v 2.030366 0.522308 1.172233
v 1.172233 0.522308 2.030366
v -0.000000 0.522308 2.344465
v -1.172233 0.522308 2.030366
v -2.030366 0.522308 1.172233
v -2.344465 0.522308 -0.000000
v -2.030366 0.522308 -1.172233
v -1.172233 0.522308 -2.030366
v 1.009385 0.362848 -1.748305
v -0.000000 0.362848 -2.018769
v 1.748306 0.362848 -1.009385
v 2.018769 0.362848 -0.000000
v 1.748305 0.362848 1.009385
v 1.009385 0.362848 1.748305
v -0.000000 0.362848 2.018769
v -1.009385 0.362848 1.748305
v -1.748305 0.362848 1.009385
v -2.018769 0.362848 -0.000000
v -1.748305 0.362848 -1.009385
v -1.009385 0.362848 -1.748305
vn -0.2588 -0.0000 -0.9659
vn 0.9659 -0.0000 -0.2588
vn 0.9659 -0.0000 0.2588
vn 0.7071 -0.0000 0.7071
vn 0.2588 -0.0000 0.9659
vn -0.2588 -0.0000 0.9659
vn -0.7071 -0.0000 0.7071
vn -0.9659 -0.0000 0.2588
vn -0.9659 -0.0000 -0.2588
vn -0.7071 -0.0000 -0.7071
vn -0.0000 1.0000 -0.0000
vn 0.7071 -0.0000 -0.7071
vn 0.2588 -0.0000 -0.9659
vn 0.1830 -0.7071 -0.6830
vn 0.5000 -0.7071 -0.5000
vn 0.6830 -0.7071 -0.1830
vn 0.6830 -0.7071 0.1830
vn 0.5000 -0.7071 0.5000
vn 0.1830 -0.7071 0.6830
vn -0.1830 -0.7071 0.6830
vn -0.5000 -0.7071 0.5000
vn -0.6830 -0.7071 0.1830
vn -0.6830 -0.7071 -0.1830
vn -0.5000 -0.7071 -0.5000
vn -0.1830 -0.7071 -0.6830
vn -0.0000 -1.0000 -0.0000
vn -0.1170 0.8920 0.4367
vn -0.3197 0.8920 0.3197
vn -0.4367 0.8920 0.1170
vn -0.4367 0.8920 -0.1170
vn -0.3197 0.8920 -0.3197
vn -0.1170 0.8920 -0.4367
vn 0.1170 0.8920 -0.4367
vn 0.3197 0.8920 -0.3197
vn 0.4367 0.8920 -0.1170
vn 0.4367 0.8920 0.1170
vn 0.3197 0.8920 0.3197
vn 0.1170 0.8920 0.4367
vn -0.1268 0.8717 0.4733
vn -0.3465 0.8717 0.3465
vn -0.4733 0.8717 0.1268
vn -0.4733 0.8717 -0.1268
vn -0.3465 0.8717 -0.3465
vn -0.1268 0.8717 -0.4733
vn 0.1268 0.8717 -0.4733
vn 0.3465 0.8717 -0.3465
vn 0.4733 0.8717 -0.1268
vn 0.4733 0.8717 0.1268
vn 0.3465 0.8717 0.3465
vn 0.1268 0.8717 0.4733
vt 0.287175 0.601740
vt 0.288765 0.601740
vt 0.288765 0.602245
vt 0.287175 0.602245
vt 0.287175 0.597189
vt 0.288765 0.597189
vt 0.288765 0.597694
vt 0.287175 0.597694
vt 0.288765 0.598200
vt 0.287175 0.598200
vt 0.288765 0.598706
vt 0.287175 0.598706
vt 0.288765 0.599211
vt 0.287175 0.599211
vt 0.288765 0.599717
vt 0.287175 0.599717
vt 0.288765 0.600223
vt 0.287175 0.600223
vt 0.288765 0.600728
vt 0.287175 0.600728
vt 0.288765 0.601234
vt 0.287175 0.601234
vt 0.290877 0.601103
vt 0.290431 0.601361
vt 0.289915 0.601361
vt 0.289469 0.601103
vt 0.289211 0.600657
vt 0.289211 0.600141
vt 0.289469 0.599695
vt 0.289915 0.599437
vt 0.290431 0.599437
vt 0.290877 0.599695
vt 0.291135 0.600141
vt 0.291135 0.600657
vt 0.287175 0.596683
vt 0.288765 0.596683
vt 0.287175 0.596177
vt 0.288765 0.596177
vt 0.289143 0.598614
vt 0.289796 0.598991
vt 0.289875 0.598695
vt 0.289360 0.598397
vt 0.290550 0.598991
vt 0.290471 0.598695
vt 0.291203 0.598614
vt 0.290986 0.598398
vt 0.291580 0.597961
vt 0.291284 0.597882
vt 0.291580 0.597207
vt 0.291284 0.597286
vt 0.291203 0.596554
vt 0.290986 0.596771
vt 0.290550 0.596177
vt 0.290471 0.596473
vt 0.289796 0.596177
vt 0.289875 0.596473
vt 0.289143 0.596554
vt 0.289360 0.596771
vt 0.288766 0.597207
vt 0.289062 0.597286
vt 0.288766 0.597961
vt 0.289062 0.597882
vt 0.290534 0.601745
vt 0.291158 0.601385
vt 0.291203 0.601429
vt 0.290550 0.601806
vt 0.291519 0.600760
vt 0.291580 0.600776
vt 0.291519 0.600039
vt 0.291580 0.600022
vt 0.291158 0.599414
vt 0.291203 0.599369
vt 0.290534 0.599053
vt 0.290550 0.598993
vt 0.289812 0.599053
vt 0.289796 0.598992
vt 0.289188 0.599414
vt 0.289143 0.599369
vt 0.288827 0.600039
vt 0.288766 0.600022
vt 0.288827 0.600760
vt 0.288766 0.600776
vt 0.289188 0.601385
vt 0.289143 0.601429
vt 0.289812 0.601745
vt 0.289796 0.601806
vt 0.290484 0.601558
vt 0.291021 0.601248
vt 0.291332 0.600710
vt 0.291332 0.600089
vt 0.291021 0.599551
vt 0.290484 0.599240
vt 0.289862 0.599240
vt 0.289325 0.599551
vt 0.289014 0.600089
vt 0.289014 0.600710
vt 0.289325 0.601248
vt 0.289862 0.601558
s 0
usemtl Material.001
f 36/1/1 48/2/1 38/3/1 14/4/1
f 18/5/2 39/6/2 40/7/2 20/8/2
f 20/8/3 40/7/3 41/9/3 22/10/3
f 22/10/4 41/9/4 42/11/4 24/12/4
f 24/12/5 42/11/5 43/13/5 26/14/5
f 26/14/6 43/13/6 44/15/6 28/16/6
f 28/16/7 44/15/7 45/17/7 30/18/7
f 30/18/8 45/17/8 46/19/8 32/20/8
f 32/20/9 46/19/9 47/21/9 34/22/9
f 34/22/10 47/21/10 48/2/10 36/1/10
f 2/23/11 1/24/11 12/25/11 11/26/11 10/27/11 9/28/11 8/29/11 7/30/11 6/31/11 5/32/11 4/33/11 3/34/11
f 16/35/12 37/36/12 39/6/12 18/5/12
f 14/37/13 38/38/13 37/36/13 16/35/13
f 14/39/14 16/40/14 15/41/14 13/42/14
f 16/40/15 18/43/15 17/44/15 15/41/15
f 18/43/16 20/45/16 19/46/16 17/44/16
f 20/45/17 22/47/17 21/48/17 19/46/17
f 22/47/18 24/49/18 23/50/18 21/48/18
f 24/49/19 26/51/19 25/52/19 23/50/19
f 26/51/20 28/53/20 27/54/20 25/52/20
f 28/53/21 30/55/21 29/56/21 27/54/21
f 30/55/22 32/57/22 31/58/22 29/56/22
f 32/57/23 34/59/23 33/60/23 31/58/23
f 34/59/24 36/61/24 35/62/24 33/60/24
f 36/61/25 14/39/25 13/42/25 35/62/25
f 13/42/26 15/41/26 17/44/26 19/46/26 21/48/26 23/50/26 25/52/26 27/54/26 29/56/26 31/58/26 33/60/26 35/62/26
f 50/63/11 49/64/11 37/65/11 38/66/11
f 49/64/11 51/67/11 39/68/11 37/65/11
f 51/67/11 52/69/11 40/70/11 39/68/11
f 52/69/11 53/71/11 41/72/11 40/70/11
f 53/71/11 54/73/11 42/74/11 41/72/11
f 54/73/11 55/75/11 43/76/11 42/74/11
f 55/75/11 56/77/11 44/78/11 43/76/11
f 56/77/11 57/79/11 45/80/11 44/78/11
f 57/79/11 58/81/11 46/82/11 45/80/11
f 58/81/11 59/83/11 47/84/11 46/82/11
f 59/83/11 60/85/11 48/86/11 47/84/11
f 60/85/11 50/63/11 38/66/11 48/86/11
f 62/87/27 61/88/27 49/64/27 50/63/27
f 61/88/28 63/89/28 51/67/28 49/64/28
f 63/89/29 64/90/29 52/69/29 51/67/29
f 64/90/30 65/91/30 53/71/30 52/69/30
f 65/91/31 66/92/31 54/73/31 53/71/31
f 66/92/32 67/93/32 55/75/32 54/73/32
f 67/93/33 68/94/33 56/77/33 55/75/33
f 68/94/34 69/95/34 57/79/34 56/77/34
f 69/95/35 70/96/35 58/81/35 57/79/35
f 70/96/36 71/97/36 59/83/36 58/81/36
f 71/97/37 72/98/37 60/85/37 59/83/37
f 72/98/38 62/87/38 50/63/38 60/85/38
f 1/24/39 2/23/39 61/88/39 62/87/39
f 2/23/40 3/34/40 63/89/40 61/88/40
f 3/34/41 4/33/41 64/90/41 63/89/41
f 4/33/42 5/32/42 65/91/42 64/90/42
f 5/32/43 6/31/43 66/92/43 65/91/43
f 6/31/44 7/30/44 67/93/44 66/92/44
f 7/30/45 8/29/45 68/94/45 67/93/45
f 8/29/46 9/28/46 69/95/46 68/94/46
f 9/28/47 10/27/47 70/96/47 69/95/47
f 10/27/48 11/26/48 71/97/48 70/96/48
f 11/26/49 12/25/49 72/98/49 71/97/49
f 12/25/50 1/24/50 62/87/50 72/98/50
