# Blender 3.4.0
# www.blender.org
mtllib duck.mtl
o Cube
v -1.502149 -0.936138 0.237228
v -1.455201 -0.070339 0.237228
v 1.562284 -0.915038 0.178883
v 1.551734 -0.103044 0.178883
v -0.906955 0.312588 0.370299
v 0.241339 0.344381 0.370299
v 1.382406 0.502530 0.471784
v 0.846219 0.207832 0.619023
v 1.262135 0.606976 0.589786
v 1.114454 0.539983 0.589786
v -0.936751 -1.521462 0.294923
v 1.082342 -1.499307 0.552058
v -1.359723 -1.322593 0.430321
v -1.145115 -1.458162 0.430321
v -1.607650 -0.659199 0.521768
v -1.576527 -0.289252 0.521768
v 1.609760 -0.759424 0.614287
v 1.628222 -0.387896 0.614287
v 1.485796 -1.020538 0.614287
v 1.317081 -1.181427 0.614287
v -0.343309 -1.568938 0.482733
v 0.488900 -1.562608 0.482733
v -0.808683 1.536898 0.177351
v 0.122835 1.577363 0.177351
v 0.479956 0.616471 0.324102
v 0.394500 1.385571 0.324101
v 0.549586 0.876002 0.387876
v 0.524266 1.141864 0.387876
v -0.676187 1.645102 0.324102
v -0.137223 1.695743 0.324102
v -0.540091 1.695743 0.387876
v -0.333455 1.711568 0.387876
v -1.502149 -0.936138 1.304271
v -1.455201 -0.070339 1.304271
v 1.562284 -0.915038 1.362615
v 1.551734 -0.103044 1.362615
v -0.906955 0.312588 1.135884
v 0.241339 0.344381 1.135884
v 1.382406 0.502530 1.069714
v 0.846219 0.207832 0.922475
v 1.262135 0.606976 0.951712
v 1.114454 0.539983 0.951712
v -0.936751 -1.521462 1.246575
v 1.082342 -1.499307 0.989441
v -1.359723 -1.322593 1.111177
v -1.145115 -1.458162 1.111177
v -1.607650 -0.659199 1.019731
v -1.576527 -0.289252 1.019731
v 1.609760 -0.759424 0.927211
v 1.628222 -0.387896 0.927211
v 1.485796 -1.020538 0.927211
v 1.317081 -1.181427 0.927211
v -0.343309 -1.568938 1.058766
v 0.488900 -1.562608 1.058766
v -0.808683 1.536898 1.346106
v 0.122835 1.577363 1.346106
v 0.479956 0.616471 1.213621
v 0.394500 1.385571 1.213621
v 0.549586 0.876002 1.152401
v 0.524266 1.141864 1.152401
v -0.676187 1.645102 1.213621
v -0.137223 1.695743 1.213621
v -0.540091 1.695743 1.152401
v -0.333455 1.711568 1.152401
v 0.030068 -0.925588 0.068555
v 0.048266 -0.086691 0.068555
v -0.332808 0.328485 0.286178
v 0.072796 -1.510385 0.423491
v 0.072796 -1.565772 0.482733
v -0.342924 1.494733 0.093230
v -0.406705 1.670423 0.324102
v -0.436773 1.703655 0.387876
v 0.030068 -0.925588 1.472943
v 0.048266 -0.086691 1.472943
v -0.332808 0.328485 1.225940
v 0.072796 -1.510385 1.118008
v 0.072796 -1.565772 1.058766
v -0.342924 1.494733 1.436162
v -0.406705 1.670423 1.213621
v -0.436773 1.703655 1.152401
v -1.063215 0.501661 0.528454
v -1.030812 0.439014 0.465042
v -1.137370 1.120577 0.528454
v -1.119392 1.179624 0.466239
v -1.063215 0.501661 1.009268
v -1.030483 0.438678 1.066986
v -1.137370 1.120577 1.009268
v -1.119747 1.179215 1.070224
vn -0.1104 0.0042 -0.9939
vn -0.1096 0.4190 -0.9013
vn -0.0514 0.7750 -0.6298
vn -0.3493 0.2989 -0.8880
vn 0.0828 -0.5490 -0.8317
vn -0.4819 -0.5744 -0.6618
vn -0.9253 0.0585 -0.3748
vn 0.9899 -0.0066 -0.1419
vn 0.7621 -0.6466 0.0336
vn 0.0874 -0.3581 -0.9296
vn -0.1616 -0.1515 -0.9752
vn 0.2039 -0.0733 -0.9762
vn 0.5347 0.0572 -0.8431
vn -0.0496 0.8026 -0.5944
vn -0.0768 0.8612 -0.5025
vn -0.7143 -0.6998 -0.0000
vn -0.1104 0.0042 0.9939
vn -0.1085 0.4767 0.8723
vn -0.0679 0.7604 0.6459
vn -0.3493 0.2989 0.8880
vn 0.0828 -0.5490 0.8317
vn -0.4819 -0.5744 0.6617
vn -0.9253 0.0585 0.3748
vn 0.9899 -0.0066 0.1419
vn 0.7621 -0.6466 -0.0336
vn 0.0874 -0.3581 0.9296
vn -0.1724 -0.1645 0.9712
vn 0.1205 -0.0915 0.9885
vn 0.5193 0.0556 0.8528
vn -0.0575 0.7851 0.6167
vn -0.0760 0.8521 0.5179
vn 0.9565 -0.2918 -0.0000
vn -0.4131 0.9107 -0.0000
vn 0.9955 0.0948 -0.0000
vn 0.9658 0.2593 -0.0000
vn -0.7780 0.6283 -0.0000
vn 0.8827 0.4700 -0.0000
vn 0.6901 -0.7237 -0.0000
vn 0.6557 0.7550 -0.0000
vn 0.9658 -0.2591 -0.0000
vn 0.8096 -0.5870 -0.0000
vn 0.8044 -0.5940 -0.0000
vn -0.6325 0.7745 -0.0000
vn 0.0076 -1.0000 -0.0000
vn 0.4143 0.9101 -0.0000
vn 0.1061 -0.9944 -0.0000
vn -0.5341 -0.8454 -0.0000
vn -0.0764 0.9971 -0.0000
vn -0.0797 -0.9968 -0.0000
vn -0.2907 -0.9568 -0.0000
vn -0.3487 0.9372 -0.0000
vn -0.9383 -0.3458 -0.0000
vn 0.0804 0.9968 -0.0000
vn -0.5726 0.8198 -0.0000
vn -0.9965 0.0838 -0.0000
vn -0.6384 -0.0716 -0.7663
vn -0.8747 0.4848 -0.0000
vn -0.7546 0.6562 -0.0000
vn -0.9345 -0.3560 -0.0000
vn -0.5913 -0.0844 0.8020
vn 0.2202 0.9755 -0.0000
vn 0.5767 0.8169 -0.0000
vn 0.9988 -0.0496 -0.0000
vn 0.9631 0.2693 -0.0000
vn 0.7518 -0.6593 -0.0000
vn -0.0774 0.8679 0.4907
vn -0.0308 0.7558 0.6541
vn 0.1832 -0.1602 0.9699
vn 0.0528 -0.8705 0.4893
vn -0.0120 -0.3381 0.9410
vn 0.0775 0.5923 0.8019
vn 0.0725 -0.0003 0.9974
vn -0.0781 0.8762 -0.4756
vn -0.0405 0.7712 -0.6353
vn 0.1716 -0.1475 -0.9741
vn 0.0528 -0.8705 -0.4893
vn -0.0120 -0.3381 -0.9410
vn 0.0781 0.5480 -0.8328
vn 0.0725 -0.0003 -0.9974
vn -0.9236 -0.1102 -0.3672
vn -0.9163 -0.1111 0.3847
vn -0.9572 0.2895 -0.0002
vn -0.8878 -0.4603 0.0001
vn -0.9929 -0.1190 -0.0000
vt 0.375000 1.000000
vt 0.625000 1.000000
vt 0.375000 0.750000
vt 0.625000 0.750000
vt 0.625000 1.000000
vt 0.625000 0.750000
vt 0.625000 0.750000
vt 0.625000 0.750000
vt 0.625000 0.750000
vt 0.625000 0.750000
vt 0.375000 1.000000
vt 0.375000 0.750000
vt 0.375000 1.000000
vt 0.375000 1.000000
vt 0.375000 1.000000
vt 0.625000 1.000000
vt 0.375000 0.750000
vt 0.625000 0.750000
vt 0.375000 0.750000
vt 0.375000 0.750000
vt 0.375000 1.000000
vt 0.375000 0.750000
vt 0.625000 1.000000
vt 0.625000 0.750000
vt 0.625000 0.750000
vt 0.625000 0.750000
vt 0.625000 0.750000
vt 0.625000 0.750000
vt 0.625000 1.000000
vt 0.625000 0.750000
vt 0.625000 1.000000
vt 0.625000 0.750000
vt 0.375000 1.000000
vt 0.625000 1.000000
vt 0.375000 0.750000
vt 0.625000 0.750000
vt 0.625000 1.000000
vt 0.625000 0.750000
vt 0.625000 0.750000
vt 0.625000 0.750000
vt 0.625000 0.750000
vt 0.625000 0.750000
vt 0.375000 1.000000
vt 0.375000 0.750000
vt 0.375000 1.000000
vt 0.375000 1.000000
vt 0.375000 1.000000
vt 0.625000 1.000000
vt 0.375000 0.750000
vt 0.625000 0.750000
vt 0.375000 0.750000
vt 0.375000 0.750000
vt 0.375000 1.000000
vt 0.375000 0.750000
vt 0.625000 1.000000
vt 0.625000 0.750000
vt 0.625000 0.750000
vt 0.625000 0.750000
vt 0.625000 0.750000
vt 0.625000 0.750000
vt 0.625000 1.000000
vt 0.625000 0.750000
vt 0.625000 1.000000
vt 0.625000 0.750000
vt 0.375000 0.875000
vt 0.625000 0.875000
vt 0.625000 0.875000
vt 0.375000 0.875000
vt 0.375000 0.875000
vt 0.625000 0.875000
vt 0.625000 0.875000
vt 0.625000 0.875000
vt 0.375000 0.875000
vt 0.625000 0.875000
vt 0.625000 0.875000
vt 0.375000 0.875000
vt 0.375000 0.875000
vt 0.625000 0.875000
vt 0.625000 0.875000
vt 0.625000 0.875000
vt 0.625000 1.000000
vt 0.625000 1.000000
vt 0.625000 1.000000
vt 0.625000 1.000000
vt 0.625000 1.000000
vt 0.625000 1.000000
vt 0.625000 1.000000
vt 0.625000 1.000000
s 0
f 65/65/1 1/1/1 2/2/1 66/66/1
f 66/66/2 2/2/2 5/5/2 67/67/2
f 4/4/3 6/6/3 8/8/3 7/7/3
f 7/7/4 8/8/4 10/10/4 9/9/4
f 65/65/5 3/3/5 12/12/5 68/68/5
f 1/1/6 11/11/6 14/14/6 13/13/6
f 1/1/7 15/15/7 16/16/7 2/2/7
f 4/4/8 18/18/8 17/17/8 3/3/8
f 12/12/9 3/3/9 19/19/9 20/20/9
f 68/68/10 12/12/10 22/22/10 69/69/10
f 67/67/11 5/5/11 23/23/11 70/70/11
f 6/6/12 24/24/12 26/26/12 25/25/12
f 25/25/13 26/26/13 28/28/13 27/27/13
f 70/70/14 23/23/14 29/29/14 71/71/14
f 71/71/15 29/29/15 31/31/15 72/72/15
f 5/5/16 37/37/16 86/86/16 82/82/16
f 73/73/17 74/74/17 34/34/17 33/33/17
f 74/74/18 75/75/18 37/37/18 34/34/18
f 36/36/19 39/39/19 40/40/19 38/38/19
f 39/39/20 41/41/20 42/42/20 40/40/20
f 73/73/21 76/76/21 44/44/21 35/35/21
f 33/33/22 45/45/22 46/46/22 43/43/22
f 33/33/23 34/34/23 48/48/23 47/47/23
f 36/36/24 35/35/24 49/49/24 50/50/24
f 44/44/25 52/52/25 51/51/25 35/35/25
f 76/76/26 77/77/26 54/54/26 44/44/26
f 75/75/27 78/78/27 55/55/27 37/37/27
f 38/38/28 57/57/28 58/58/28 56/56/28
f 57/57/29 59/59/29 60/60/29 58/58/29
f 78/78/30 79/79/30 61/61/30 55/55/30
f 79/79/31 80/80/31 63/63/31 61/61/31
f 3/3/32 17/17/32 49/49/32 35/35/32
f 10/10/33 42/42/33 41/41/33 9/9/33
f 28/28/34 60/60/34 59/59/34 27/27/34
f 18/18/35 4/4/35 36/36/35 50/50/35
f 8/8/36 40/40/36 42/42/36 10/10/36
f 26/26/37 58/58/37 60/60/37 28/28/37
f 19/19/38 51/51/38 52/52/38 20/20/38
f 9/9/39 41/41/39 39/39/39 7/7/39
f 27/27/40 59/59/40 57/57/40 25/25/40
f 3/3/41 35/35/41 51/51/41 19/19/41
f 20/20/42 52/52/42 44/44/42 12/12/42
f 23/23/43 55/55/43 61/61/43 29/29/43
f 69/69/44 77/77/44 53/53/44 21/21/44
f 30/30/45 62/62/45 56/56/45 24/24/45
f 12/12/46 44/44/46 54/54/46 22/22/46
f 14/14/47 46/46/47 45/45/47 13/13/47
f 72/72/48 80/80/48 64/64/48 32/32/48
f 21/21/49 53/53/49 43/43/49 11/11/49
f 11/11/50 43/43/50 46/46/50 14/14/50
f 29/29/51 61/61/51 63/63/51 31/31/51
f 13/13/52 45/45/52 33/33/52 1/1/52
f 32/32/53 64/64/53 62/62/53 30/30/53
f 2/2/54 34/34/54 37/37/54 5/5/54
f 16/16/55 15/15/55 47/47/55 48/48/55
f 23/23/56 5/5/56 82/82/56 84/84/56
f 2/2/57 16/16/57 48/48/57 34/34/57
f 84/84/58 88/88/58 55/55/58 23/23/58
f 15/15/59 1/1/59 33/33/59 47/47/59
f 55/55/60 88/88/60 86/86/60 37/37/60
f 6/6/61 38/38/61 40/40/61 8/8/61
f 24/24/62 56/56/62 58/58/62 26/26/62
f 17/17/63 18/18/63 50/50/63 49/49/63
f 7/7/64 39/39/64 36/36/64 4/4/64
f 25/25/65 57/57/65 38/38/65 6/6/65
f 31/31/48 63/63/48 80/80/48 72/72/48
f 22/22/44 54/54/44 77/77/44 69/69/44
f 62/62/66 64/64/66 80/80/66 79/79/66
f 56/56/67 62/62/67 79/79/67 78/78/67
f 38/38/68 56/56/68 78/78/68 75/75/68
f 43/43/69 53/53/69 77/77/69 76/76/69
f 33/33/70 43/43/70 76/76/70 73/73/70
f 36/36/71 38/38/71 75/75/71 74/74/71
f 35/35/72 36/36/72 74/74/72 73/73/72
f 30/30/73 71/71/73 72/72/73 32/32/73
f 24/24/74 70/70/74 71/71/74 30/30/74
f 6/6/75 67/67/75 70/70/75 24/24/75
f 11/11/76 68/68/76 69/69/76 21/21/76
f 1/1/77 65/65/77 68/68/77 11/11/77
f 4/4/78 66/66/78 67/67/78 6/6/78
f 3/3/79 65/65/79 66/66/79 4/4/79
f 82/82/80 81/81/80 83/83/80 84/84/80
f 85/85/81 86/86/81 88/88/81 87/87/81
f 84/84/82 83/83/82 87/87/82 88/88/82
f 86/86/83 85/85/83 81/81/83 82/82/83
f 81/81/84 85/85/84 87/87/84 83/83/84
o Cube.001
v -1.540785 0.981341 0.855213
v -1.516974 1.178126 0.894632
v -1.540785 0.981341 0.669817
v -1.516974 1.178126 0.630398
v -1.397117 0.834812 0.855213
v -1.248756 1.119514 0.987821
v -1.397117 0.834812 0.669817
v -1.248756 1.119514 0.537209
v -1.578817 1.075901 0.894632
v -1.569659 1.168284 0.894632
v -1.578817 1.075901 0.630398
v -1.569659 1.168284 0.630398
v -1.239977 0.737009 0.855213
v -1.126418 1.142597 0.987821
v -1.239977 0.737009 0.669817
v -1.126418 1.142597 0.537209
v -1.361315 0.640943 0.855213
v -1.042615 0.467743 0.987821
v -1.361315 0.640943 0.669817
v -1.042615 0.467743 0.537209
v -1.365968 0.572597 0.878113
v -1.171844 0.518451 0.895088
v -1.365968 0.572597 0.646918
v -1.184210 0.518451 0.628558
v -1.318066 0.535809 0.890307
v -1.264949 0.520127 0.894632
v -1.318066 0.535809 0.634723
v -1.264949 0.520127 0.630398
v -1.381325 0.620988 0.854058
v -1.381325 0.620988 0.670972
v -1.382314 0.602095 0.854058
v -1.382314 0.602095 0.670972
vn 0.2641 -0.1598 -0.9512
vn -0.3168 -0.2166 -0.9234
vn -0.0877 -0.3281 0.9406
vn -0.3168 -0.2166 0.9234
vn -0.7140 -0.7001 -0.0000
vn 0.2135 0.9769 -0.0000
vn -0.9951 0.0986 -0.0000
vn 0.2641 -0.1598 0.9512
vn -0.1836 0.9830 -0.0000
vn -0.9278 -0.3731 -0.0000
vn -0.5329 0.0259 -0.8458
vn -0.5284 -0.8490 -0.0000
vn -0.1854 0.9827 -0.0000
vn -0.0877 -0.3281 -0.9406
vn -0.3992 -0.3404 0.8513
vn -0.5329 0.0259 0.8458
vn -0.6207 0.7840 -0.0000
vn 0.9924 0.1232 -0.0000
vn -0.6091 -0.7931 -0.0000
vn -0.8747 -0.4847 -0.0000
vn -0.3507 -0.9365 0.0060
vn -0.3841 -0.2567 -0.8869
vn -0.2832 -0.9591 -0.0000
vn -0.0193 -0.9998 0.0004
vn -0.0067 0.2886 -0.9574
vn 0.0058 0.3104 0.9506
vn -0.9986 0.0523 -0.0000
vn -0.5067 0.2494 -0.8252
vn -0.7061 0.7081 -0.0000
vn -0.5068 0.2494 0.8252
vt 0.375000 1.000000
vt 0.125000 0.750000
vt 0.625000 1.000000
vt 0.875000 0.750000
vt 0.375000 0.250000
vt 0.125000 0.500000
vt 0.625000 0.250000
vt 0.875000 0.500000
vt 0.375000 0.750000
vt 0.625000 0.750000
vt 0.375000 0.500000
vt 0.625000 0.500000
vt 0.375000 0.000000
vt 0.375000 1.000000
vt 0.125000 0.750000
vt 0.625000 0.000000
vt 0.625000 1.000000
vt 0.875000 0.750000
vt 0.375000 0.250000
vt 0.125000 0.500000
vt 0.625000 0.250000
vt 0.875000 0.500000
vt 0.375000 0.750000
vt 0.625000 0.750000
vt 0.375000 0.500000
vt 0.625000 0.500000
vt 0.375000 0.750000
vt 0.625000 0.750000
vt 0.375000 0.500000
vt 0.625000 0.500000
vt 0.375000 0.750000
vt 0.625000 0.750000
vt 0.375000 0.500000
vt 0.625000 0.500000
vt 0.375000 0.750000
vt 0.625000 0.750000
vt 0.375000 0.500000
vt 0.625000 0.500000
vt 0.375000 0.750000
vt 0.375000 0.500000
vt 0.375000 0.750000
vt 0.375000 0.500000
s 0
f 92/95/85 91/93/85 99/107/85 100/109/85
f 91/93/86 92/95/86 96/100/86 95/99/86
f 94/98/87 93/97/87 101/111/87 102/112/87
f 93/97/88 94/98/88 90/91/88 89/89/88
f 91/94/89 95/99/89 93/97/89 89/90/89
f 96/100/90 92/96/90 90/92/90 94/98/90
f 97/101/91 98/104/91 100/109/91 99/107/91
f 89/89/92 90/91/92 98/105/92 97/102/92
f 90/92/93 92/96/93 100/110/93 98/106/93
f 91/94/94 89/90/94 97/103/94 99/108/94
f 103/113/95 104/114/95 108/118/95 107/117/95
f 93/97/96 95/99/96 103/113/96 101/111/96
f 96/100/97 94/98/97 102/112/97 104/114/97
f 95/99/98 96/100/98 104/114/98 103/113/98
f 106/116/99 105/115/99 109/119/99 110/120/99
f 102/112/100 101/111/100 105/115/100 106/116/100
f 101/111/101 103/113/101 107/117/101 105/115/101
f 104/114/102 102/112/102 106/116/102 108/118/102
f 109/119/103 111/121/103 115/125/103 113/123/103
f 111/121/104 109/119/104 119/129/104 120/130/104
f 108/118/105 106/116/105 110/120/105 112/122/105
f 107/117/106 108/118/106 112/122/106 111/121/106
f 115/125/107 116/126/107 114/124/107 113/123/107
f 112/122/108 110/120/108 114/124/108 116/126/108
f 111/121/109 112/122/109 116/126/109 115/125/109
f 110/120/110 109/119/110 113/123/110 114/124/110
f 117/127/111 118/128/111 120/130/111 119/129/111
f 107/117/112 111/121/112 120/130/112 118/128/112
f 105/115/113 107/117/113 118/128/113 117/127/113
f 109/119/114 105/115/114 117/127/114 119/129/114
o Cylinder
v -0.571531 1.362465 1.276207
v -0.589246 1.346564 1.364477
v -0.523800 1.353171 1.284112
v -0.541514 1.337270 1.372382
v -0.482689 1.326704 1.287594
v -0.500404 1.310803 1.375864
v -0.454457 1.287093 1.286125
v -0.472172 1.271192 1.374394
v -0.443404 1.240369 1.279926
v -0.461118 1.224468 1.368196
v -0.451210 1.193645 1.269943
v -0.468925 1.177744 1.358212
v -0.476688 1.154034 1.257694
v -0.494403 1.138133 1.345964
v -0.515959 1.127567 1.245045
v -0.533674 1.111666 1.333315
v -0.563045 1.118273 1.233921
v -0.580760 1.102372 1.322191
v -0.610776 1.127567 1.226016
v -0.628491 1.111666 1.314286
v -0.651887 1.154034 1.222533
v -0.669602 1.138133 1.310803
v -0.680118 1.193645 1.224003
v -0.697833 1.177744 1.312273
v -0.691172 1.240369 1.230202
v -0.708887 1.224468 1.318472
v -0.683366 1.287093 1.240185
v -0.701081 1.271192 1.328455
v -0.657888 1.326704 1.252434
v -0.675602 1.310803 1.340704
v -0.618617 1.353171 1.265083
v -0.636331 1.337270 1.353353
v -0.580760 1.102389 0.199318
v -0.563045 1.118226 0.287600
v -0.628491 1.111678 0.207230
v -0.610776 1.127514 0.295511
v -0.669602 1.138142 0.210732
v -0.651887 1.153978 0.299013
v -0.697833 1.177754 0.209291
v -0.680118 1.193590 0.297573
v -0.708887 1.224483 0.203127
v -0.691172 1.240319 0.291408
v -0.701081 1.271214 0.193177
v -0.683366 1.287050 0.281459
v -0.675603 1.310834 0.180958
v -0.657888 1.326670 0.269239
v -0.636331 1.337310 0.168328
v -0.618617 1.353147 0.256610
v -0.589246 1.346613 0.157211
v -0.571531 1.362449 0.245493
v -0.541515 1.337324 0.149300
v -0.523800 1.353161 0.237581
v -0.500404 1.310860 0.145797
v -0.482689 1.326696 0.234079
v -0.472172 1.271248 0.147238
v -0.454458 1.287084 0.235520
v -0.461119 1.224519 0.153402
v -0.443404 1.240355 0.241684
v -0.468925 1.177788 0.163352
v -0.451210 1.193624 0.251633
v -0.494403 1.138168 0.175572
v -0.476688 1.154004 0.263853
v -0.533674 1.111691 0.188201
v -0.515959 1.127528 0.276483
vn 0.1542 0.9665 0.2051
vn 0.5090 0.8235 0.2505
vn 0.7911 0.5543 0.2586
vn 0.9541 0.1956 0.2267
vn 0.9677 -0.1956 0.1590
vn 0.8297 -0.5543 0.0667
vn 0.5662 -0.8235 -0.0347
vn 0.2214 -0.9665 -0.1297
vn -0.1542 -0.9665 -0.2051
vn -0.5090 -0.8235 -0.2505
vn -0.7911 -0.5543 -0.2586
vn -0.9541 -0.1956 -0.2267
vn -0.9677 0.1956 -0.1590
vn -0.8297 0.5543 -0.0667
vn -0.1938 -0.1739 0.9655
vn -0.5662 0.8235 0.0347
vn -0.2214 0.9665 0.1297
vn 0.1938 0.1739 -0.9655
vn -0.1542 -0.9667 0.2044
vn -0.5090 -0.8237 0.2499
vn -0.7911 -0.5544 0.2582
vn -0.9541 -0.1958 0.2266
vn -0.9677 0.1955 0.1591
vn -0.8297 0.5542 0.0671
vn -0.5662 0.8236 -0.0341
vn -0.2214 0.9666 -0.1290
vn 0.1542 0.9667 -0.2044
vn 0.5090 0.8237 -0.2499
vn 0.7911 0.5545 -0.2582
vn 0.9541 0.1958 -0.2266
vn 0.9677 -0.1955 -0.1591
vn 0.8297 -0.5542 -0.0671
vn 0.1938 0.1732 0.9656
vn 0.5662 -0.8236 0.0341
vn 0.2214 -0.9666 0.1290
vn -0.1938 -0.1732 -0.9656
vt 1.000000 0.500000
vt 0.000000 0.500000
vt 0.750000 0.490000
vt 1.000000 1.000000
vt 0.250000 0.490000
vt 0.000000 1.000000
vt 0.937500 0.500000
vt 0.841844 0.471731
vt 0.937500 1.000000
vt 0.341844 0.471731
vt 0.875000 0.500000
vt 0.919706 0.419706
vt 0.875000 1.000000
vt 0.419706 0.419706
vt 0.812500 0.500000
vt 0.971731 0.341844
vt 0.812500 1.000000
vt 0.471731 0.341844
vt 0.750000 0.500000
vt 0.990000 0.250000
vt 0.750000 1.000000
vt 0.490000 0.250000
vt 0.687500 0.500000
vt 0.971731 0.158156
vt 0.687500 1.000000
vt 0.471731 0.158156
vt 0.625000 0.500000
vt 0.919706 0.080294
vt 0.625000 1.000000
vt 0.419706 0.080294
vt 0.562500 0.500000
vt 0.841844 0.028269
vt 0.562500 1.000000
vt 0.341844 0.028269
vt 0.500000 0.500000
vt 0.750000 0.010000
vt 0.500000 1.000000
vt 0.250000 0.010000
vt 0.437500 0.500000
vt 0.658156 0.028269
vt 0.437500 1.000000
vt 0.158156 0.028269
vt 0.375000 0.500000
vt 0.580294 0.080294
vt 0.375000 1.000000
vt 0.080294 0.080294
vt 0.312500 0.500000
vt 0.528269 0.158156
vt 0.312500 1.000000
vt 0.028269 0.158156
vt 0.250000 0.500000
vt 0.510000 0.250000
vt 0.250000 1.000000
vt 0.010000 0.250000
vt 0.187500 0.500000
vt 0.528269 0.341844
vt 0.187500 1.000000
vt 0.028269 0.341844
vt 0.125000 0.500000
vt 0.580294 0.419706
vt 0.080294 0.419706
vt 0.125000 1.000000
vt 0.062500 0.500000
vt 0.658156 0.471731
vt 0.158156 0.471731
vt 0.062500 1.000000
vt 1.000000 0.500000
vt 0.000000 0.500000
vt 0.750000 0.490000
vt 1.000000 1.000000
vt 0.250000 0.490000
vt 0.000000 1.000000
vt 0.937500 0.500000
vt 0.841844 0.471731
vt 0.937500 1.000000
vt 0.341844 0.471731
vt 0.875000 0.500000
vt 0.919706 0.419706
vt 0.875000 1.000000
vt 0.419706 0.419706
vt 0.812500 0.500000
vt 0.971731 0.341844
vt 0.812500 1.000000
vt 0.471731 0.341844
vt 0.750000 0.500000
vt 0.990000 0.250000
vt 0.750000 1.000000
vt 0.490000 0.250000
vt 0.687500 0.500000
vt 0.971731 0.158156
vt 0.687500 1.000000
vt 0.471731 0.158156
vt 0.625000 0.500000
vt 0.919706 0.080294
vt 0.625000 1.000000
vt 0.419706 0.080294
vt 0.562500 0.500000
vt 0.841844 0.028269
vt 0.562500 1.000000
vt 0.341844 0.028269
vt 0.500000 0.500000
vt 0.750000 0.010000
vt 0.500000 1.000000
vt 0.250000 0.010000
vt 0.437500 0.500000
vt 0.658156 0.028269
vt 0.437500 1.000000
vt 0.158156 0.028269
vt 0.375000 0.500000
vt 0.580294 0.080294
vt 0.375000 1.000000
vt 0.080294 0.080294
vt 0.312500 0.500000
vt 0.528269 0.158156
vt 0.312500 1.000000
vt 0.028269 0.158156
vt 0.250000 0.500000
vt 0.510000 0.250000
vt 0.250000 1.000000
vt 0.010000 0.250000
vt 0.187500 0.500000
vt 0.528269 0.341844
vt 0.187500 1.000000
vt 0.028269 0.341844
vt 0.125000 0.500000
vt 0.580294 0.419706
vt 0.080294 0.419706
vt 0.125000 1.000000
vt 0.062500 0.500000
vt 0.658156 0.471731
vt 0.158156 0.471731
vt 0.062500 1.000000
s 0
f 121/131/115 122/134/115 124/139/115 123/137/115
f 123/137/116 124/139/116 126/143/116 125/141/116
f 125/141/117 126/143/117 128/147/117 127/145/117
f 127/145/118 128/147/118 130/151/118 129/149/118
f 129/149/119 130/151/119 132/155/119 131/153/119
f 131/153/120 132/155/120 134/159/120 133/157/120
f 133/157/121 134/159/121 136/163/121 135/161/121
f 135/161/122 136/163/122 138/167/122 137/165/122
f 137/165/123 138/167/123 140/171/123 139/169/123
f 139/169/124 140/171/124 142/175/124 141/173/124
f 141/173/125 142/175/125 144/179/125 143/177/125
f 143/177/126 144/179/126 146/183/126 145/181/126
f 145/181/127 146/183/127 148/187/127 147/185/127
f 147/185/128 148/187/128 150/192/128 149/189/128
f 124/140/129 122/135/129 152/195/129 150/191/129 148/188/129 146/184/129 144/180/129 142/176/129 140/172/129 138/168/129 136/164/129 134/160/129 132/156/129 130/152/129 128/148/129 126/144/129
f 149/189/130 150/192/130 152/196/130 151/193/130
f 151/193/131 152/196/131 122/136/131 121/132/131
f 121/133/132 123/138/132 125/142/132 127/146/132 129/150/132 131/154/132 133/158/132 135/162/132 137/166/132 139/170/132 141/174/132 143/178/132 145/182/132 147/186/132 149/190/132 151/194/132
f 153/197/133 154/200/133 156/205/133 155/203/133
f 155/203/134 156/205/134 158/209/134 157/207/134
f 157/207/135 158/209/135 160/213/135 159/211/135
f 159/211/136 160/213/136 162/217/136 161/215/136
f 161/215/137 162/217/137 164/221/137 163/219/137
f 163/219/138 164/221/138 166/225/138 165/223/138
f 165/223/139 166/225/139 168/229/139 167/227/139
f 167/227/140 168/229/140 170/233/140 169/231/140
f 169/231/141 170/233/141 172/237/141 171/235/141
f 171/235/142 172/237/142 174/241/142 173/239/142
f 173/239/143 174/241/143 176/245/143 175/243/143
f 175/243/144 176/245/144 178/249/144 177/247/144
f 177/247/145 178/249/145 180/253/145 179/251/145
f 179/251/146 180/253/146 182/258/146 181/255/146
f 156/206/147 154/201/147 184/261/147 182/257/147 180/254/147 178/250/147 176/246/147 174/242/147 172/238/147 170/234/147 168/230/147 166/226/147 164/222/147 162/218/147 160/214/147 158/210/147
f 181/255/148 182/258/148 184/262/148 183/259/148
f 183/259/149 184/262/149 154/202/149 153/198/149
f 153/199/150 155/204/150 157/208/150 159/212/150 161/216/150 163/220/150 165/224/150 167/228/150 169/232/150 171/236/150 173/240/150 175/244/150 177/248/150 179/252/150 181/256/150 183/260/150
