# Blender v3.0.1 OBJ File: 'locker.blend'
# www.blender.org
mtllib locker.mtl
o Cube_Cube.001
v -0.212360 0.516789 0.164752
v -0.212360 0.516789 -0.164752
v 0.212360 0.516789 0.164752
v 0.212360 0.516789 -0.164752
v -0.208452 -0.516789 0.171279
v -0.220773 -0.516789 0.161720
v -0.220773 -0.516789 -0.161720
v -0.208452 -0.516789 -0.171279
v 0.220773 -0.516789 0.161720
v 0.208452 -0.516789 0.171279
v 0.208452 -0.516789 -0.171279
v 0.220773 -0.516789 -0.161720
v -0.220773 0.497095 0.161720
v -0.208452 0.497095 0.171279
v -0.213659 0.513747 0.165760
v -0.208452 0.497095 -0.171279
v -0.220773 0.497095 -0.161720
v -0.213659 0.513747 -0.165760
v 0.208452 0.497095 0.171279
v 0.220773 0.497095 0.161720
v 0.213659 0.513747 0.165760
v 0.220773 0.497095 -0.161720
v 0.208452 0.497095 -0.171279
v 0.213659 0.513747 -0.165760
v -0.116200 0.362504 0.180438
v -0.116200 0.384991 0.171071
v -0.116200 0.353837 0.159633
v -0.116200 0.376325 0.150265
v 0.116200 0.362504 0.180438
v 0.116200 0.384991 0.171071
v 0.116200 0.353837 0.159633
v 0.116200 0.376325 0.150265
v -0.116200 0.326465 0.180438
v -0.116200 0.348953 0.171071
v -0.116200 0.317798 0.159633
v -0.116200 0.340286 0.150265
v 0.116200 0.326465 0.180438
v 0.116200 0.348953 0.171071
v 0.116200 0.317798 0.159633
v 0.116200 0.340286 0.150265
v -0.116200 0.289366 0.180438
v -0.116200 0.311854 0.171071
v -0.116200 0.280700 0.159633
v -0.116200 0.303188 0.150265
v 0.116200 0.289366 0.180438
v 0.116200 0.311854 0.171071
v 0.116200 0.280700 0.159633
v 0.116200 0.303188 0.150265
vt 0.629763 0.504763
vt 0.870236 0.504764
vt 0.870236 0.745236
vt 0.629763 0.745236
vt 0.870972 0.745972
vt 0.868024 0.750000
vt 0.631976 0.750000
vt 0.629028 0.745972
vt 0.375000 0.256976
vt 0.620236 0.256976
vt 0.620236 0.493024
vt 0.375000 0.493024
vt 0.375000 0.756976
vt 0.620236 0.756976
vt 0.620236 0.993024
vt 0.375000 0.993024
vt 0.375000 0.506976
vt 0.620236 0.506976
vt 0.620236 0.743024
vt 0.375000 0.743024
vt 0.629028 0.504028
vt 0.631976 0.500000
vt 0.868024 0.500000
vt 0.870972 0.504028
vt 0.628292 0.745972
vt 0.628292 0.504028
vt 0.875000 0.506976
vt 0.875000 0.743024
vt 0.375000 0.006976
vt 0.620236 0.006976
vt 0.620236 0.243024
vt 0.375000 0.243024
vt 0.872674 0.747674
vt 0.871512 0.500000
vt 0.627325 0.747674
vt 0.625000 0.503488
vt 0.375000 0.000000
vt 0.620236 0.000000
vt 0.125000 0.506976
vt 0.131976 0.500000
vt 0.368024 0.500000
vt 0.368024 0.750000
vt 0.131976 0.750000
vt 0.125000 0.743024
vt 0.375000 0.000000
vt 0.625000 0.000000
vt 0.625000 0.250000
vt 0.375000 0.250000
vt 0.625000 0.500000
vt 0.375000 0.500000
vt 0.625000 0.750000
vt 0.375000 0.750000
vt 0.625000 1.000000
vt 0.375000 1.000000
vt 0.125000 0.500000
vt 0.125000 0.750000
vt 0.875000 0.500000
vt 0.875000 0.750000
vt 0.375000 0.000000
vt 0.625000 0.000000
vt 0.625000 0.250000
vt 0.375000 0.250000
vt 0.625000 0.500000
vt 0.375000 0.500000
vt 0.625000 0.750000
vt 0.375000 0.750000
vt 0.625000 1.000000
vt 0.375000 1.000000
vt 0.125000 0.500000
vt 0.125000 0.750000
vt 0.875000 0.500000
vt 0.875000 0.750000
vt 0.375000 0.000000
vt 0.625000 0.000000
vt 0.625000 0.250000
vt 0.375000 0.250000
vt 0.625000 0.500000
vt 0.375000 0.500000
vt 0.625000 0.750000
vt 0.375000 0.750000
vt 0.625000 1.000000
vt 0.375000 1.000000
vt 0.125000 0.500000
vt 0.125000 0.750000
vt 0.875000 0.500000
vt 0.875000 0.750000
vn 0.0000 1.0000 0.0000
vn 0.0000 0.3146 0.9492
vn 0.0000 0.0000 -1.0000
vn 0.0000 0.0000 1.0000
vn 1.0000 0.0000 0.0000
vn 0.0000 0.3146 -0.9492
vn 0.9196 0.3929 0.0000
vn -0.9196 0.3929 0.0000
vn -1.0000 0.0000 0.0000
vn -0.6115 0.0700 0.7882
vn -0.6115 0.0700 -0.7882
vn 0.6115 0.0700 0.7882
vn 0.6115 0.0700 -0.7882
vn 0.6130 0.0000 0.7901
vn -0.6130 0.0000 0.7901
vn -0.6130 0.0000 -0.7901
vn 0.6130 0.0000 -0.7901
vn 0.0000 -1.0000 0.0000
vn 0.0000 -0.3845 -0.9231
vn 0.0000 0.3845 0.9231
vn 0.0000 -0.9231 0.3845
vn 0.0000 0.9231 -0.3845
usemtl None
s off
f 4/1/1 2/2/1 1/3/1 3/4/1
f 3/4/2 1/3/2 15/5/2 14/6/2 19/7/2 21/8/2
f 8/9/3 16/10/3 23/11/3 11/12/3
f 10/13/4 19/14/4 14/15/4 5/16/4
f 12/17/5 22/18/5 20/19/5 9/20/5
f 2/2/6 4/1/6 24/21/6 23/22/6 16/23/6 18/24/6
f 4/1/7 3/4/7 21/25/7 20/19/7 22/18/7 24/26/7
f 1/3/8 2/2/8 18/24/8 17/27/8 13/28/8 15/5/8
f 6/29/9 13/30/9 17/31/9 7/32/9
f 13/28/10 14/33/10 15/5/10
f 16/34/11 17/27/11 18/24/11
f 19/7/12 20/35/12 21/8/12
f 22/36/13 23/22/13 24/21/13
f 9/20/14 20/19/14 19/14/14 10/13/14
f 13/30/15 6/29/15 5/37/15 14/38/15
f 16/10/16 8/9/16 7/32/16 17/31/16
f 22/18/17 12/17/17 11/12/17 23/11/17
f 7/39/18 8/40/18 11/41/18 12/17/18 9/20/18 10/42/18 5/43/18 6/44/18
f 25/45/9 26/46/9 28/47/9 27/48/9
f 27/48/19 28/47/19 32/49/19 31/50/19
f 31/50/5 32/49/5 30/51/5 29/52/5
f 29/52/20 30/51/20 26/53/20 25/54/20
f 27/55/21 31/50/21 29/52/21 25/56/21
f 32/49/22 28/57/22 26/58/22 30/51/22
f 33/59/9 34/60/9 36/61/9 35/62/9
f 35/62/19 36/61/19 40/63/19 39/64/19
f 39/64/5 40/63/5 38/65/5 37/66/5
f 37/66/20 38/65/20 34/67/20 33/68/20
f 35/69/21 39/64/21 37/66/21 33/70/21
f 40/63/22 36/71/22 34/72/22 38/65/22
f 41/73/9 42/74/9 44/75/9 43/76/9
f 43/76/19 44/75/19 48/77/19 47/78/19
f 47/78/5 48/77/5 46/79/5 45/80/5
f 45/80/20 46/79/20 42/81/20 41/82/20
f 43/83/21 47/78/21 45/80/21 41/84/21
f 48/77/22 44/85/22 42/86/22 46/79/22
