# Blender 4.0.1
# www.blender.org
mtllib mirror.mtl
o Cube
v -1.000000 -1.674435 0.017229
v -0.956698 -1.750224 0.017229
v -0.956698 1.750224 0.017229
v -1.000000 1.674435 0.017229
v -0.956698 -1.750224 -0.017229
v -1.000000 -1.674435 -0.017229
v -1.000000 1.674435 -0.017229
v -0.956698 1.750224 -0.017229
v 0.956698 -1.750224 0.017229
v 1.000000 -1.674435 0.017229
v 1.000000 1.674435 0.017229
v 0.956698 1.750224 0.017229
v 1.000000 -1.674435 -0.017229
v 0.956698 -1.750224 -0.017229
v 0.956698 1.750224 -0.017229
v 1.000000 1.674435 -0.017229
vn -0.0000 -0.0000 1.0000
vn 1.0000 -0.0000 -0.0000
vn -0.0000 1.0000 -0.0000
vn -1.0000 -0.0000 -0.0000
vn -0.0000 -0.0000 -1.0000
vn -0.8683 -0.4961 -0.0000
vn -0.8683 0.4961 -0.0000
vn 0.8683 -0.4961 -0.0000
vn 0.8683 0.4961 -0.0000
vn -0.0000 -1.0000 -0.0000
vt 0.965098 0.591479
vt 0.965128 0.591510
vt 0.965128 0.592874
vt 0.965098 0.592905
vt 0.963733 0.592905
vt 0.963702 0.592874
vt 0.963702 0.591510
vt 0.963733 0.591479
vt 0.960845 0.591412
vt 0.960845 0.590047
vt 0.962271 0.590047
vt 0.962271 0.591412
vt 0.960845 0.589986
vt 0.960845 0.588621
vt 0.962271 0.588621
vt 0.962271 0.589986
vt 0.962274 0.592862
vt 0.963638 0.592862
vt 0.963638 0.594288
vt 0.962274 0.594288
vt 0.965098 0.588621
vt 0.965128 0.588652
vt 0.965128 0.590016
vt 0.965098 0.590047
vt 0.963733 0.590047
vt 0.963702 0.590016
vt 0.963702 0.588652
vt 0.963733 0.588621
vt 0.960845 0.592838
vt 0.962271 0.592838
vt 0.962271 0.592868
vt 0.960845 0.592868
vt 0.963669 0.592862
vt 0.963669 0.594288
vt 0.962271 0.591473
vt 0.960845 0.591473
s 0
usemtl Material.002
f 9/1/1 10/2/1 11/3/1 12/4/1 3/5/1 4/6/1 1/7/1 2/8/1
f 13/9/2 16/10/2 11/11/2 10/12/2
f 15/13/3 8/14/3 3/15/3 12/16/3
f 1/17/4 4/18/4 7/19/4 6/20/4
f 5/21/5 6/22/5 7/23/5 8/24/5 15/25/5 16/26/5 13/27/5 14/28/5
f 5/29/6 2/30/6 1/31/6 6/32/6
f 3/33/7 8/34/7 7/19/7 4/18/7
f 9/35/8 14/36/8 13/9/8 10/12/8
f 15/13/9 12/16/9 11/11/9 16/10/9
f 5/29/10 14/36/10 9/35/10 2/30/10
o Cube.001
v -0.936540 -1.587613 0.035978
v -0.884609 -1.680815 0.035978
v -0.884609 1.680815 0.035978
v -0.936540 1.587613 0.035978
v -0.884609 -1.680815 0.004602
v -0.936540 -1.587613 0.003707
v -0.936540 1.587613 0.003707
v -0.884609 1.680815 0.003707
v 0.884609 -1.680815 0.035978
v 0.936540 -1.587613 0.035978
v 0.936540 1.587613 0.035978
v 0.884609 1.680815 0.035978
v 0.884609 -1.680815 0.004602
v 0.936540 -1.587613 0.003707
v 0.884609 1.680815 0.003707
v 0.936540 1.587613 0.003707
v 0.936540 0.959170 0.035978
v 0.936540 0.974182 0.035978
v -0.936540 -0.133236 0.035978
v -0.936540 -0.116169 0.035978
v -0.435070 0.542467 0.035978
v -0.431607 0.529949 0.035978
v -0.132457 0.504408 0.035978
v -0.129912 0.495213 0.035978
v 0.222915 0.828693 0.035978
v 0.226847 0.814482 0.035978
v 0.936540 0.959170 0.003707
v 0.936540 0.974182 0.003707
v -0.936540 -0.133236 0.003707
v -0.936540 -0.116169 0.003707
v -0.431607 0.529949 0.003707
v -0.435070 0.542467 0.003707
v -0.132457 0.504408 0.003707
v -0.129912 0.495213 0.003707
v 0.226847 0.814482 0.003707
v 0.222915 0.828693 0.003707
v -0.715482 0.157104 0.035978
v -0.707754 0.167255 0.035978
v 0.613403 -0.438429 0.035978
v 0.613403 -0.425698 0.035978
v 0.936540 -0.529089 0.035978
v 0.936540 -0.513403 0.035978
v -0.392923 0.004573 0.035978
v -0.392923 0.017304 0.035978
v 0.279784 0.017304 0.035978
v 0.279784 0.004573 0.035978
v 0.936540 -0.529089 0.003707
v 0.936540 -0.513403 0.003707
v 0.279784 0.004573 0.003707
v 0.279784 0.017304 0.003707
v 0.613403 -0.438429 0.003707
v 0.613403 -0.425698 0.003707
v -0.715482 0.157104 0.003707
v -0.707754 0.167255 0.003707
v -0.392923 0.017304 0.003707
v -0.392923 0.004573 0.003707
vn -0.0000 -0.0000 1.0000
vn 1.0000 -0.0000 -0.0000
vn -0.0000 1.0000 -0.0000
vn -1.0000 -0.0000 -0.0000
vn -0.0000 -0.0000 -1.0000
vn -0.8735 -0.4867 -0.0000
vn -0.8735 0.4867 -0.0000
vn -0.0000 -0.0096 -1.0000
vn 0.8735 -0.4867 -0.0000
vn 0.8735 0.4867 -0.0000
vn -0.0000 -1.0000 -0.0000
vn -0.6669 0.7452 -0.0000
vn 0.1998 -0.9798 -0.0000
vn -0.1998 0.9798 -0.0000
vn 0.6741 -0.7387 -0.0000
vn -0.7956 0.6058 -0.0000
vn 0.1144 0.9934 -0.0000
vn -0.1248 -0.9922 -0.0000
vn 0.7956 -0.6058 -0.0000
vn 0.7988 0.6016 -0.0000
vn -0.2619 -0.9651 -0.0000
vn 0.2701 0.9628 -0.0000
vn -0.7988 -0.6016 -0.0000
vn 0.4275 0.9040 -0.0000
vn -0.4300 -0.9028 -0.0000
vt 0.773270 0.541479
vt 0.773332 0.540936
vt 0.773592 0.540936
vt 0.773632 0.540975
vt 0.773632 0.542322
vt 0.773592 0.542362
vt 0.772869 0.542362
vt 0.773149 0.541980
vt 0.773133 0.541750
vt 0.772985 0.542194
vt 0.772862 0.542362
vt 0.772245 0.542362
vt 0.772206 0.542322
vt 0.772206 0.540975
vt 0.772245 0.540936
vt 0.772694 0.540936
vt 0.772733 0.541182
vt 0.772921 0.541436
vt 0.772920 0.541948
vt 0.772701 0.540936
vt 0.773326 0.540936
vt 0.773264 0.541476
vt 0.773129 0.541748
vt 0.773143 0.541977
vt 0.772990 0.542188
vt 0.772926 0.541948
vt 0.772926 0.541436
vt 0.772738 0.541182
vt 0.770777 0.541193
vt 0.770777 0.540933
vt 0.772203 0.540933
vt 0.772203 0.541193
vt 0.772203 0.541831
vt 0.772203 0.542280
vt 0.770777 0.542280
vt 0.770777 0.541831
vt 0.770777 0.541824
vt 0.770777 0.541200
vt 0.772203 0.541200
vt 0.772203 0.541824
vt 0.770777 0.540854
vt 0.770777 0.539507
vt 0.772203 0.539507
vt 0.772203 0.540854
vt 0.774258 0.539507
vt 0.774981 0.539507
vt 0.774981 0.540933
vt 0.774258 0.540933
vt 0.773634 0.540933
vt 0.773634 0.539507
vt 0.774251 0.539507
vt 0.774251 0.540933
vt 0.774122 0.542116
vt 0.774083 0.542362
vt 0.773634 0.542362
vt 0.773634 0.540936
vt 0.774251 0.540936
vt 0.774374 0.541104
vt 0.774310 0.541350
vt 0.774310 0.541862
vt 0.774379 0.541110
vt 0.774533 0.541320
vt 0.774518 0.541550
vt 0.774653 0.541822
vt 0.774715 0.542362
vt 0.774090 0.542362
vt 0.774127 0.542116
vt 0.774315 0.541862
vt 0.774315 0.541350
vt 0.774659 0.541819
vt 0.774522 0.541548
vt 0.774538 0.541318
vt 0.774258 0.540936
vt 0.774981 0.540936
vt 0.775021 0.540975
vt 0.775021 0.542322
vt 0.774981 0.542362
vt 0.774721 0.542362
vt 0.770817 0.543706
vt 0.772203 0.543706
vt 0.772203 0.543746
vt 0.770777 0.543746
vt 0.775021 0.539507
vt 0.775021 0.540933
vt 0.770817 0.542359
vt 0.770777 0.542320
vt 0.772203 0.542359
vt 0.875000 0.625716
vt 0.875000 0.631950
vt 0.875000 0.629497
vt 0.875000 0.625463
vt 0.355781 0.629497
vt 0.125000 0.629497
vt 0.125000 0.625463
vt 0.355781 0.625463
vt 0.875000 0.629497
vt 0.645491 0.629497
vt 0.645491 0.625463
vt 0.125000 0.629497
vt 0.125000 0.631950
vt 0.125000 0.625716
vt 0.875000 0.630105
vt 0.875000 0.630105
vt 0.875000 0.625526
vt 0.875000 0.631950
vt 0.125000 0.630105
vt 0.125000 0.625526
vt 0.125000 0.630105
vt 0.125000 0.625526
vt 0.875000 0.625714
vt 0.875000 0.631930
vt 0.232279 0.630886
vt 0.125000 0.631930
vt 0.125000 0.625714
vt 0.232279 0.625606
vt 0.875000 0.631930
vt 0.767721 0.630886
vt 0.767721 0.625606
vt 0.125000 0.631930
vt 0.125000 0.625714
vt 0.875000 0.631930
vt 0.875000 0.625714
vt 0.125000 0.631930
vt 0.125000 0.625714
s 0
usemtl Material.001
f 41/37/11 34/38/11 27/39/11 28/40/11 19/41/11 20/42/11 36/43/11 37/44/11 39/45/11
f 53/46/11 35/47/11 17/48/11 18/49/11 25/50/11 26/51/11 57/52/11 55/53/11 62/54/11 59/55/11
f 58/56/11 33/57/11 42/58/11 40/59/11 38/60/11 54/61/11 60/62/11 61/63/11 56/64/11
f 44/65/12 32/66/12 27/67/12 34/68/12
f 57/69/12 26/70/12 30/71/12 63/72/12
f 64/73/12 43/74/12 33/75/12 58/76/12
f 31/77/13 24/78/13 19/79/13 28/80/13
f 36/81/14 20/82/14 23/83/14 46/84/14
f 22/85/14 17/86/14 35/87/14 45/88/14
f 67/89/15 63/90/15 30/91/15 22/92/15 45/93/15 69/94/15 72/95/15 65/96/15
f 70/97/15 47/98/15 50/99/15 51/100/15 43/101/15 64/102/15 68/103/15 66/104/15 71/105/15
f 52/106/15 49/107/15 48/108/15 46/109/15 23/110/15 24/111/15 31/112/15 32/113/15 44/114/15
f 21/115/16 18/116/16 17/117/16 22/118/16
f 19/119/17 24/120/17 23/83/17 20/82/17
f 29/121/18 21/115/18 22/118/18 30/122/18
f 25/123/19 29/121/19 30/71/19 26/70/19
f 31/77/20 28/80/20 27/67/20 32/66/20
f 21/115/21 29/121/21 25/123/21 18/116/21
f 50/124/22 40/125/22 42/126/22 51/127/22
f 34/128/23 41/129/23 52/130/23 44/131/23
f 51/127/24 42/132/24 33/133/24 43/134/24
f 41/135/25 39/136/25 49/137/25 52/130/25
f 54/138/26 38/139/26 47/140/26 70/140/26
f 45/140/26 35/138/26 53/139/26 69/140/26
f 47/140/27 38/139/27 40/141/27 50/124/27
f 39/136/28 37/142/28 48/143/28 49/137/28
f 37/142/29 36/144/29 46/145/29 48/143/29
f 65/146/30 62/147/30 55/147/30 67/146/30
f 58/148/31 56/149/31 68/150/31 64/151/31
f 67/146/32 55/152/32 57/153/32 63/154/32
f 56/155/33 61/149/33 66/156/33 68/150/33
f 53/157/34 59/147/34 72/158/34 69/146/34
f 72/146/13 59/147/13 62/147/13 65/158/13
f 61/149/21 60/149/21 71/156/21 66/150/21
f 71/150/35 60/149/35 54/159/35 70/160/35
