# Blender 4.0.1
# www.blender.org
mtllib mirror.mtl
o Cube
v -1.000000 -1.674435 0.017229
v -0.956698 -1.750224 0.017229
v -0.956698 1.750224 0.017229
v -1.000000 1.674435 0.017229
v -0.956698 -1.750224 -0.017229
v -1.000000 -1.674435 -0.017229
v -1.000000 1.674435 -0.017229
v -0.956698 1.750224 -0.017229
v 0.956698 -1.750224 0.017229
v 1.000000 -1.674435 0.017229
v 1.000000 1.674435 0.017229
v 0.956698 1.750224 0.017229
v 1.000000 -1.674435 -0.017229
v 0.956698 -1.750224 -0.017229
v 0.956698 1.750224 -0.017229
v 1.000000 1.674435 -0.017229
vn -0.0000 -0.0000 1.0000
vn 1.0000 -0.0000 -0.0000
vn -0.0000 1.0000 -0.0000
vn -1.0000 -0.0000 -0.0000
vn -0.0000 -0.0000 -1.0000
vn -0.8683 -0.4961 -0.0000
vn -0.8683 0.4961 -0.0000
vn 0.8683 -0.4961 -0.0000
vn 0.8683 0.4961 -0.0000
vn -0.0000 -1.0000 -0.0000
vt 0.965098 0.591479
vt 0.965128 0.591510
vt 0.965128 0.592874
vt 0.965098 0.592905
vt 0.963733 0.592905
vt 0.963702 0.592874
vt 0.963702 0.591510
vt 0.963733 0.591479
vt 0.960845 0.591412
vt 0.960845 0.590047
vt 0.962271 0.590047
vt 0.962271 0.591412
vt 0.960845 0.589986
vt 0.960845 0.588621
vt 0.962271 0.588621
vt 0.962271 0.589986
vt 0.962274 0.592862
vt 0.963638 0.592862
vt 0.963638 0.594288
vt 0.962274 0.594288
vt 0.965098 0.588621
vt 0.965128 0.588652
vt 0.965128 0.590016
vt 0.965098 0.590047
vt 0.963733 0.590047
vt 0.963702 0.590016
vt 0.963702 0.588652
vt 0.963733 0.588621
vt 0.960845 0.592838
vt 0.962271 0.592838
vt 0.962271 0.592868
vt 0.960845 0.592868
vt 0.963669 0.592862
vt 0.963669 0.594288
vt 0.962271 0.591473
vt 0.960845 0.591473
s 0
usemtl Material.002
f 9/1/1 10/2/1 11/3/1 12/4/1 3/5/1 4/6/1 1/7/1 2/8/1
f 13/9/2 16/10/2 11/11/2 10/12/2
f 15/13/3 8/14/3 3/15/3 12/16/3
f 1/17/4 4/18/4 7/19/4 6/20/4
f 5/21/5 6/22/5 7/23/5 8/24/5 15/25/5 16/26/5 13/27/5 14/28/5
f 5/29/6 2/30/6 1/31/6 6/32/6
f 3/33/7 8/34/7 7/19/7 4/18/7
f 9/35/8 14/36/8 13/9/8 10/12/8
f 15/13/9 12/16/9 11/11/9 16/10/9
f 5/29/10 14/36/10 9/35/10 2/30/10
o Cube.001
v -0.936540 -1.587613 0.035978
v -0.884609 -1.680815 0.035978
v -0.884609 1.680815 0.035978
v -0.936540 1.587613 0.035978
v -0.884609 -1.680815 0.004602
v -0.936540 -1.587613 0.003707
v -0.936540 1.587613 0.003707
v -0.884609 1.680815 0.003707
v 0.884609 -1.680815 0.035978
v 0.936540 -1.587613 0.035978
v 0.936540 1.587613 0.035978
v 0.884609 1.680815 0.035978
v 0.884609 -1.680815 0.004602
v 0.936540 -1.587613 0.003707
v 0.884609 1.680815 0.003707
v 0.936540 1.587613 0.003707
v 0.936540 0.962758 0.035978
v 0.936540 0.978911 0.035978
v -0.936540 -0.083956 0.035978
v -0.936540 -0.065593 0.035978
v -0.486800 0.525100 0.035978
v -0.483073 0.511632 0.035978
v -0.303041 0.490903 0.035978
v -0.162773 0.489817 0.035978
v -0.293752 0.507045 0.035978
v -0.156900 0.468591 0.035978
v -0.013588 0.595477 0.035978
v -0.003228 0.628309 0.035978
v 0.221153 0.833062 0.035978
v 0.225384 0.817773 0.035978
v 0.936540 0.962758 0.003707
v 0.936540 0.978911 0.003707
v -0.936540 -0.083956 0.003707
v -0.936540 -0.065593 0.003707
v -0.486800 0.525100 0.003707
v -0.483073 0.511632 0.003707
v -0.300085 0.507637 0.003707
v -0.296669 0.490170 0.003707
v -0.162704 0.489568 0.003707
v -0.156969 0.468841 0.003707
v -0.006653 0.601929 0.003707
v -0.010191 0.621956 0.003707
v 0.225384 0.817773 0.003707
v 0.221153 0.833062 0.003707
v -0.740645 0.173334 0.035978
v -0.732649 0.183837 0.035978
v 0.936540 -0.532130 0.035978
v 0.936540 -0.512597 0.035978
v -0.406022 0.028640 0.035978
v -0.406022 0.015690 0.035978
v 0.268834 0.043216 0.035978
v 0.268834 0.026226 0.035978
v 0.627119 -0.450655 0.035978
v 0.627119 -0.431415 0.035978
v 0.936540 -0.532130 0.003707
v 0.936540 -0.512597 0.003707
v 0.268834 0.026226 0.003707
v 0.268834 0.043216 0.003707
v 0.627119 -0.450655 0.003707
v 0.627119 -0.431415 0.003707
v -0.740645 0.173334 0.003707
v -0.732649 0.183837 0.003707
v -0.406022 0.028640 0.003707
v -0.406022 0.015690 0.003707
vn -0.0000 -0.0000 1.0000
vn 1.0000 -0.0000 -0.0000
vn -0.0000 1.0000 -0.0000
vn -1.0000 -0.0000 -0.0000
vn -0.0000 -0.0000 -1.0000
vn -0.8735 -0.4867 -0.0000
vn -0.8735 0.4867 -0.0000
vn -0.0000 -0.0096 -1.0000
vn 0.8735 -0.4867 -0.0000
vn 0.8735 0.4867 -0.0000
vn -0.0000 -1.0000 -0.0000
vn -0.6742 0.7385 0.0027
vn 0.1998 -0.9798 -0.0000
vn -0.1998 0.9798 -0.0000
vn 0.6660 -0.7446 -0.0443
vn -0.7956 0.6058 -0.0000
vn 0.1305 0.9914 0.0032
vn -0.1086 -0.9941 0.0031
vn 0.7956 -0.6058 -0.0000
vn 0.7995 0.6007 -0.0000
vn -0.2538 -0.9673 -0.0000
vn 0.2546 0.9670 -0.0000
vn -0.7981 -0.6025 -0.0000
vn 0.4262 0.9046 -0.0000
vn -0.0156 0.9999 -0.0000
vn 0.0216 -0.9998 -0.0000
vn -0.4292 -0.9032 -0.0000
vt 0.773272 0.541481
vt 0.773334 0.540936
vt 0.773592 0.540936
vt 0.773632 0.540975
vt 0.773632 0.542322
vt 0.773592 0.542362
vt 0.772891 0.542362
vt 0.773141 0.542019
vt 0.773134 0.541873
vt 0.773126 0.541773
vt 0.773185 0.541651
vt 0.772992 0.542213
vt 0.772883 0.542362
vt 0.772245 0.542362
vt 0.772206 0.542322
vt 0.772206 0.540975
vt 0.772245 0.540936
vt 0.772693 0.540936
vt 0.772727 0.541171
vt 0.772930 0.541444
vt 0.772925 0.541958
vt 0.772701 0.540936
vt 0.773327 0.540936
vt 0.773265 0.541477
vt 0.773171 0.541659
vt 0.773117 0.541768
vt 0.773127 0.541880
vt 0.773136 0.542017
vt 0.772997 0.542207
vt 0.772931 0.541958
vt 0.772937 0.541444
vt 0.772736 0.541171
vt 0.770777 0.541191
vt 0.770777 0.540933
vt 0.772203 0.540933
vt 0.772203 0.541191
vt 0.772203 0.541832
vt 0.772203 0.542280
vt 0.770777 0.542280
vt 0.770777 0.541832
vt 0.770777 0.541824
vt 0.770777 0.541198
vt 0.772203 0.541198
vt 0.772203 0.541824
vt 0.770777 0.540854
vt 0.770777 0.539507
vt 0.772203 0.539507
vt 0.772203 0.540854
vt 0.774280 0.539507
vt 0.774981 0.539507
vt 0.774981 0.540933
vt 0.774280 0.540933
vt 0.773634 0.540933
vt 0.773634 0.539507
vt 0.774272 0.539507
vt 0.774272 0.540933
vt 0.773634 0.542362
vt 0.773634 0.540936
vt 0.774272 0.540936
vt 0.774381 0.541085
vt 0.774314 0.541340
vt 0.774319 0.541854
vt 0.774117 0.542126
vt 0.774082 0.542362
vt 0.774386 0.541091
vt 0.774525 0.541281
vt 0.774516 0.541423
vt 0.774507 0.541529
vt 0.774563 0.541644
vt 0.774655 0.541820
vt 0.774716 0.542362
vt 0.774090 0.542362
vt 0.774125 0.542126
vt 0.774326 0.541854
vt 0.774320 0.541340
vt 0.774572 0.541641
vt 0.774515 0.541525
vt 0.774523 0.541420
vt 0.774531 0.541278
vt 0.774280 0.540936
vt 0.774981 0.540936
vt 0.775021 0.540975
vt 0.775021 0.542322
vt 0.774981 0.542362
vt 0.774723 0.542362
vt 0.774661 0.541817
vt 0.770817 0.543706
vt 0.772203 0.543706
vt 0.772203 0.543746
vt 0.770777 0.543746
vt 0.775021 0.539507
vt 0.775021 0.540933
vt 0.770817 0.542359
vt 0.770777 0.542320
vt 0.772203 0.542359
vt 0.875000 0.625577
vt 0.875000 0.625666
vt 0.875000 0.631460
vt 0.875000 0.630633
vt 0.875000 0.629180
vt 0.875000 0.625431
vt 0.340021 0.629180
vt 0.125000 0.629180
vt 0.125000 0.625431
vt 0.340022 0.625431
vt 0.661250 0.629180
vt 0.661250 0.625431
vt 0.125000 0.630540
vt 0.125000 0.631460
vt 0.125000 0.625666
vt 0.875000 0.629745
vt 0.875000 0.625489
vt 0.875000 0.629745
vt 0.875000 0.625572
vt 0.875000 0.630518
vt 0.875000 0.631460
vt 0.125000 0.631460
vt 0.125000 0.630531
vt 0.125000 0.629745
vt 0.125000 0.625489
vt 0.125000 0.625567
vt 0.125000 0.625489
vt 0.875000 0.625535
vt 0.875000 0.630193
vt 0.875000 0.629586
vt 0.875000 0.625472
vt 0.227246 0.629518
vt 0.125000 0.629586
vt 0.125000 0.625472
vt 0.227245 0.625466
vt 0.772755 0.629518
vt 0.772754 0.625466
vt 0.125000 0.630193
vt 0.125000 0.625535
vt 0.875000 0.631813
vt 0.875000 0.631813
vt 0.875000 0.625702
vt 0.875000 0.630193
vt 0.125000 0.630193
vt 0.125000 0.631813
vt 0.125000 0.625702
s 0
usemtl Material.001
f 45/37/11 34/38/11 27/39/11 28/40/11 19/41/11 20/42/11 36/43/11 37/44/11 41/45/11 40/46/11 44/47/11
f 61/48/11 35/49/11 17/50/11 18/51/11 25/52/11 26/53/11 63/54/11 69/55/11 68/56/11 66/57/11
f 64/58/11 33/59/11 46/60/11 43/61/11 42/62/11 39/63/11 38/64/11 62/65/11 65/66/11 67/67/11 70/68/11
f 48/69/12 32/70/12 27/71/12 34/72/12
f 63/73/12 26/74/12 30/75/12 71/76/12
f 72/77/12 47/78/12 33/79/12 64/80/12
f 31/81/13 24/82/13 19/83/13 28/84/13
f 36/85/14 20/86/14 23/87/14 50/88/14
f 22/89/14 17/90/14 35/91/14 49/92/14
f 30/93/15 22/94/15 49/95/15 77/96/15 80/97/15 73/98/15 75/99/15 71/100/15
f 78/101/15 52/102/15 54/103/15 56/104/15 57/105/15 59/106/15 47/107/15 72/108/15 76/109/15 74/110/15 79/111/15
f 58/112/15 55/113/15 53/114/15 51/115/15 50/116/15 23/117/15 24/118/15 31/119/15 32/120/15 48/121/15 60/122/15
f 21/123/16 18/124/16 17/125/16 22/126/16
f 19/127/17 24/128/17 23/87/17 20/86/17
f 29/129/18 21/123/18 22/126/18 30/130/18
f 25/131/19 29/129/19 30/75/19 26/74/19
f 31/81/20 28/84/20 27/71/20 32/70/20
f 21/123/21 29/129/21 25/131/21 18/124/21
f 57/132/22 56/133/22 42/134/22 43/135/22 46/136/22 59/137/22
f 34/138/23 45/139/23 60/140/23 48/141/23
f 59/137/24 46/136/24 33/142/24 47/143/24
f 60/140/25 45/139/25 44/144/25 40/145/25 55/146/25
f 62/147/26 38/147/26 52/148/26 78/148/26
f 49/148/26 35/149/26 61/149/26 77/148/26
f 54/150/27 52/148/27 38/147/27 39/151/27 42/152/27 56/133/27
f 55/146/28 40/153/28 41/154/28 37/155/28 51/156/28 53/157/28
f 37/155/29 36/155/29 50/158/29 51/156/29
f 73/159/30 68/160/30 69/161/30 75/162/30
f 64/163/31 70/164/31 76/165/31 72/166/31
f 75/162/32 69/161/32 63/167/32 71/168/32
f 70/164/33 67/169/33 74/170/33 76/165/33
f 61/171/34 66/172/34 80/173/34 77/173/34
f 80/173/35 66/172/35 68/174/35 73/159/35
f 67/175/36 65/176/36 79/177/36 74/170/36
f 79/177/37 65/176/37 62/176/37 78/177/37
