# Blender 4.0.1
# www.blender.org
mtllib monitor.mtl
o Cube
v -0.092790 -0.006082 0.052951
v 0.092790 -0.006082 0.052951
v -0.092790 0.006082 0.052951
v 0.092790 0.006082 0.052951
v -0.010683 0.013853 0.030481
v -0.019062 0.013853 0.025620
v -0.033996 0.013165 0.032699
v -0.019062 0.013853 0.013223
v -0.010683 0.013853 0.008362
v -0.033229 0.013257 -0.005490
v 0.019062 0.013853 0.025620
v 0.010683 0.013853 0.030481
v 0.033996 0.013165 0.032699
v 0.010683 0.013853 0.008362
v 0.019062 0.013853 0.013223
v 0.033229 0.013257 -0.005490
v -0.013614 0.168867 0.023848
v -0.007630 0.168867 0.027320
v -0.007630 0.168867 0.011523
v -0.013614 0.168867 0.014995
v 0.013614 0.168867 0.014995
v 0.007630 0.168867 0.011523
v 0.007630 0.168867 0.027320
v 0.013614 0.168867 0.023848
v 0.010683 0.092560 0.008362
v 0.019062 0.092560 0.013223
v 0.010683 0.092560 0.030481
v 0.019062 0.092560 0.025620
v -0.010683 0.092560 0.030481
v -0.019062 0.092560 0.025620
v -0.010683 0.092560 0.008362
v -0.019062 0.092560 0.013223
v -0.092790 -0.006082 -0.039668
v -0.069514 -0.006082 -0.052951
v 0.069514 -0.006082 -0.052951
v 0.092790 -0.006082 -0.039668
v -0.069514 0.006082 -0.052951
v -0.092790 0.006082 -0.039668
v -0.078639 0.007197 -0.045578
v 0.092790 0.006082 -0.039668
v 0.069514 0.006082 -0.052951
v 0.078639 0.007197 -0.045578
v 0.009666 0.117995 0.009416
v 0.008648 0.143431 0.010469
v 0.017246 0.117995 0.025029
v 0.015430 0.143431 0.024439
v -0.009666 0.117995 0.029427
v -0.008648 0.143431 0.028374
v -0.017246 0.117995 0.013814
v -0.015430 0.143431 0.014404
v 0.015430 0.143431 0.014404
v 0.017246 0.117995 0.013814
v 0.008648 0.143431 0.028374
v 0.009666 0.117995 0.029427
v -0.015430 0.143431 0.024439
v -0.017246 0.117995 0.025029
v -0.008648 0.143431 0.010469
v -0.009666 0.117995 0.009416
v 0.009666 0.117995 -0.007159
v 0.005938 0.118239 -0.009270
v 0.004940 0.143188 -0.008237
v 0.008648 0.143431 -0.006105
v -0.008648 0.143431 -0.006105
v -0.004940 0.143188 -0.008237
v -0.005938 0.118239 -0.009270
v -0.009666 0.117995 -0.007159
vn -0.0000 -0.0000 -1.0000
vn 1.0000 -0.0000 -0.0000
vn -0.1116 0.9937 -0.0037
vn -0.0000 -0.0000 1.0000
vn -1.0000 -0.0000 -0.0000
vn -0.0000 1.0000 -0.0000
vn -0.0000 0.0414 0.9991
vn 0.9975 0.0712 -0.0000
vn -0.0000 0.0414 -0.9991
vn -0.0000 0.9903 -0.1392
vn -0.0000 0.9444 0.3289
vn 0.1116 0.9937 -0.0037
vn -0.0253 0.9987 0.0436
vn -0.0128 0.9997 -0.0221
vn 0.0253 0.9987 0.0436
vn 0.0128 0.9997 -0.0221
vn 0.5011 0.0558 -0.8636
vn 0.5018 -0.0000 0.8650
vn -0.5011 0.0558 0.8636
vn -0.5018 -0.0000 -0.8650
vn -0.9975 0.0712 -0.0000
vn -0.5011 0.0558 -0.8636
vn -0.5018 -0.0000 0.8650
vn 0.5011 0.0558 0.8636
vn 0.5018 -0.0000 -0.8650
vn -0.2526 0.8603 -0.4427
vn 0.2526 0.8603 -0.4427
vn -0.4956 -0.0000 -0.8685
vn 0.4956 -0.0000 -0.8685
vn -0.0000 -1.0000 -0.0000
vn -0.9992 0.0400 -0.0000
vn 0.4949 0.0557 -0.8672
vn -0.4949 0.0557 -0.8672
vn -0.0000 -0.9934 -0.1146
vn -0.0000 0.9935 -0.1136
vn 0.9992 0.0400 -0.0000
vt 0.375000 0.281357
vt 0.625000 0.281357
vt 0.625000 0.468643
vt 0.375000 0.468643
vt 0.375000 0.531357
vt 0.625000 0.531357
vt 0.625000 0.750000
vt 0.375000 0.750000
vt 0.795796 0.670796
vt 0.788105 0.646356
vt 0.788105 0.603644
vt 0.794763 0.580237
vt 0.862535 0.512465
vt 0.875000 0.531357
vt 0.875000 0.750000
vt 0.625000 1.000000
vt 0.375000 1.000000
vt 0.375000 0.000000
vt 0.625000 0.000000
vt 0.625000 0.218643
vt 0.375000 0.218643
vt 0.711895 0.603644
vt 0.728644 0.586895
vt 0.771356 0.586895
vt 0.771356 0.663105
vt 0.728644 0.663105
vt 0.711895 0.646356
vt 0.711895 0.646356
vt 0.711895 0.603644
vt 0.705237 0.580237
vt 0.637465 0.512465
vt 0.656356 0.500000
vt 0.843644 0.500000
vt 0.704204 0.670796
vt 0.788105 0.663105
vt 0.788105 0.586895
vt 0.711895 0.663105
vt 0.711895 0.586895
vt 0.728644 0.663105
vt 0.788105 0.646356
vt 0.788105 0.646356
vt 0.788105 0.646356
vt 0.788105 0.603644
vt 0.870045 0.504955
vt 0.631920 0.506920
vt 0.125000 0.531357
vt 0.156357 0.500000
vt 0.343643 0.500000
vt 0.125000 0.750000
vt 0.771356 0.586895
vt 0.736872 0.586895
vt 0.763128 0.586895
vt 0.762192 0.586895
vt 0.737808 0.586895
s 0
f 34/1/1 37/2/1 41/3/1 35/4/1
f 36/5/2 40/6/2 4/7/2 2/8/2
f 7/9/3 6/10/3 8/11/3 10/12/3 39/13/3 38/14/3 3/15/3
f 2/8/4 4/7/4 3/16/4 1/17/4
f 1/18/5 3/19/5 38/20/5 33/21/5
f 21/22/6 22/23/6 19/24/6 20/11/6 17/10/6 18/25/6 23/26/6 24/27/6
f 48/25/7 53/26/7 23/26/7 18/25/7
f 46/28/8 51/29/8 21/22/8 24/27/8
f 44/23/9 57/24/9 19/24/9 22/23/9
f 10/12/10 9/24/10 14/23/10 16/30/10 42/31/10 41/32/10 37/33/10 39/13/10
f 13/34/11 12/26/11 5/25/11 7/9/11 3/15/11 4/7/11
f 16/30/12 15/22/12 11/27/12 13/34/12 4/7/12 40/6/12 42/31/12
f 5/25/13 6/35/13 7/9/13
f 8/11/14 9/36/14 10/12/14
f 11/28/15 12/37/15 13/34/15
f 14/23/16 15/38/16 16/30/16
f 44/23/17 22/23/17 21/22/17 51/29/17
f 27/39/18 12/26/18 11/28/18 28/28/18
f 48/25/19 18/25/19 17/40/19 55/41/19
f 31/24/20 9/24/20 8/11/20 32/11/20
f 50/11/21 55/41/21 17/40/21 20/11/21
f 8/11/5 6/10/5 30/42/5 32/11/5
f 58/24/22 31/24/22 32/11/22 49/43/22
f 5/25/23 29/25/23 30/42/23 6/10/23
f 54/26/24 27/39/24 28/28/24 45/28/24
f 14/23/25 25/23/25 26/22/25 15/22/25
f 14/23/1 9/24/1 31/24/1 25/23/1
f 11/28/2 15/22/2 26/22/2 28/28/2
f 5/25/4 12/26/4 27/39/4 29/25/4
f 37/44/26 38/14/26 39/13/26
f 40/45/27 41/32/27 42/31/27
f 37/2/28 34/1/28 33/21/28 38/20/28
f 40/6/29 36/5/29 35/4/29 41/3/29
f 33/46/30 34/47/30 35/48/30 36/5/30 2/8/30 1/49/30
f 23/26/24 53/26/24 46/28/24 24/27/24
f 53/26/24 54/26/24 45/28/24 46/28/24
f 19/24/22 57/24/22 50/11/22 20/11/22
f 57/24/22 58/24/22 49/43/22 50/11/22
f 32/11/21 30/42/21 56/42/21 49/43/21
f 49/43/21 56/42/21 55/41/21 50/11/21
f 29/25/19 47/25/19 56/42/19 30/42/19
f 47/25/19 48/25/19 55/41/19 56/42/19
f 25/23/17 43/23/17 52/29/17 26/22/17
f 43/23/17 44/23/17 51/29/17 52/29/17
f 25/23/9 31/24/9 58/24/9 43/23/9
f 58/24/31 57/24/31 63/24/31 66/50/31
f 28/28/8 26/22/8 52/29/8 45/28/8
f 45/28/8 52/29/8 51/29/8 46/28/8
f 29/25/7 27/39/7 54/26/7 47/25/7
f 47/25/7 54/26/7 53/26/7 48/25/7
f 43/23/30 58/24/30 66/24/30 59/23/30
f 60/51/9 65/52/9 64/53/9 61/54/9
f 57/24/6 44/23/6 62/23/6 63/50/6
f 60/51/32 61/54/32 62/23/32 59/23/32
f 64/53/33 65/52/33 66/50/33 63/24/33
f 65/52/34 60/51/34 59/23/34 66/24/34
f 63/50/35 62/23/35 61/54/35 64/53/35
f 44/23/36 43/23/36 59/23/36 62/23/36
o Cube.001
v -0.092185 0.059330 -0.017323
v -0.092185 0.203145 -0.017323
v 0.092185 0.059330 -0.017323
v 0.092185 0.203145 -0.017323
v -0.092185 0.203145 -0.013122
v -0.092185 0.059330 -0.013122
v 0.092185 0.059330 -0.013122
v 0.092185 0.203145 -0.013122
v -0.099583 0.057099 -0.003219
v -0.095045 0.053559 -0.003219
v -0.095045 0.208916 -0.003219
v -0.099583 0.205376 -0.003219
v 0.095045 0.053559 -0.003219
v 0.099583 0.057099 -0.003219
v 0.099583 0.205376 -0.003219
v 0.095045 0.208916 -0.003219
v -0.099583 0.205376 -0.017323
v -0.095045 0.208916 -0.017323
v -0.096375 0.206413 -0.017323
v -0.095045 0.053559 -0.017323
v -0.099583 0.057099 -0.017323
v -0.096375 0.056062 -0.017323
v 0.099583 0.057099 -0.017323
v 0.095045 0.053559 -0.017323
v 0.096375 0.056062 -0.017323
v 0.095045 0.208916 -0.017323
v 0.099583 0.205376 -0.017323
v 0.096375 0.206413 -0.017323
vn -0.0000 -0.0000 1.0000
vn -0.0000 1.0000 -0.0000
vn -0.0000 -0.0000 -1.0000
vn -1.0000 -0.0000 -0.0000
vn 1.0000 -0.0000 -0.0000
vn -0.0000 -1.0000 -0.0000
vn -0.6150 -0.7885 -0.0000
vn -0.6150 0.7885 -0.0000
vn 0.6150 -0.7885 -0.0000
vn 0.6150 0.7885 -0.0000
vt 0.375000 0.755696
vt 0.380696 0.750000
vt 0.619304 0.750000
vt 0.625000 0.755696
vt 0.625000 0.994304
vt 0.619304 1.000000
vt 0.380696 1.000000
vt 0.375000 0.994304
vt 0.384286 0.490714
vt 0.384286 0.259286
vt 0.615713 0.259286
vt 0.379028 0.254028
vt 0.380696 0.250000
vt 0.619304 0.250000
vt 0.620972 0.254028
vt 0.630696 0.500000
vt 0.869304 0.500000
vt 0.869304 0.750000
vt 0.630696 0.750000
vt 0.380696 0.000000
vt 0.619304 0.000000
vt 0.380696 0.250000
vt 0.380696 0.500000
vt 0.619304 0.500000
vt 0.380696 0.750000
vt 0.615714 0.490714
vt 0.625000 0.255696
vt 0.625000 0.494304
vt 0.620972 0.495972
vt 0.380696 0.500000
vt 0.379028 0.495972
vt 0.375000 0.494304
vt 0.375000 0.255696
vt 0.622152 0.252848
vt 0.377848 0.252848
vt 0.377848 0.497152
vt 0.622152 0.497152
vt 0.130696 0.500000
vt 0.130696 0.750000
vt 0.125000 0.750000
vt 0.125000 0.500000
vt 0.625000 0.000000
vt 0.625000 0.250000
vt 0.369304 0.750000
vt 0.369304 0.500000
s 0
f 79/55/37 80/56/37 81/57/37 82/58/37 77/59/37 78/60/37 75/61/37 76/62/37
f 69/63/38 67/64/38 72/64/38 73/63/38
f 68/65/39 67/64/39 88/66/39 87/67/39 83/68/39 85/69/39
f 92/70/38 84/71/38 77/72/38 82/73/38
f 75/74/40 78/75/40 83/68/40 87/76/40
f 89/77/41 93/78/41 81/57/41 80/79/41
f 70/80/39 68/65/39 85/69/39 84/81/39 92/82/39 94/83/39
f 69/63/39 70/80/39 94/83/39 93/78/39 89/84/39 91/85/39
f 67/64/39 69/63/39 91/85/39 90/86/39 86/87/39 88/66/39
f 72/64/39 71/65/39 74/80/39 73/63/39
f 68/65/42 70/80/42 74/80/42 71/65/42
f 67/64/41 68/65/41 71/65/41 72/64/41
f 70/80/40 69/63/40 73/63/40 74/80/40
f 83/68/39 84/88/39 85/69/39
f 86/87/39 87/89/39 88/66/39
f 89/90/39 90/86/39 91/85/39
f 92/91/39 93/78/39 94/83/39
f 86/92/43 76/93/43 75/94/43 87/95/43
f 77/96/44 84/97/44 83/68/44 78/75/44
f 79/98/45 90/99/45 89/77/45 80/79/45
f 92/70/46 82/73/46 81/57/46 93/78/46
f 86/92/42 90/99/42 79/98/42 76/93/42
o Cube.002
v -0.096710 0.058569 -0.006492
v -0.096710 0.204464 -0.006492
v -0.096710 0.058569 -0.015480
v -0.096710 0.204464 -0.015480
v 0.096587 0.058569 -0.006492
v 0.096587 0.204464 -0.006492
v 0.096587 0.058569 -0.015480
v 0.096587 0.204464 -0.015480
vn -1.0000 -0.0000 -0.0000
vn -0.0000 -0.0000 -1.0000
vn 1.0000 -0.0000 -0.0000
vn -0.0000 -0.0000 1.0000
vn -0.0000 -1.0000 -0.0000
vn -0.0000 1.0000 -0.0000
vt 0.375000 0.000000
vt 0.625000 0.000000
vt 0.625000 0.250000
vt 0.375000 0.250000
vt 0.625000 0.500000
vt 0.375000 0.500000
vt 0.625000 0.750000
vt 0.375000 0.750000
vt 0.625000 1.000000
vt 0.375000 1.000000
vt 0.125000 0.500000
vt 0.125000 0.750000
vt 0.875000 0.500000
vt 0.875000 0.750000
s 0
f 95/100/47 96/101/47 98/102/47 97/103/47
f 97/103/48 98/102/48 102/104/48 101/105/48
f 101/105/49 102/104/49 100/106/49 99/107/49
f 99/107/50 100/106/50 96/108/50 95/109/50
f 97/110/51 101/105/51 99/107/51 95/111/51
f 102/104/52 98/112/52 96/113/52 100/106/52
