# Blender 4.0.1
# www.blender.org
mtllib plate.mtl
o Cylinder
v 0.000000 0.002885 -1.000000
v 0.000000 0.046879 -1.000000
v 0.464723 0.002885 -0.885456
v 0.464723 0.046879 -0.885456
v 0.822984 0.002885 -0.568065
v 0.822984 0.046879 -0.568065
v 0.992709 0.002885 -0.120537
v 0.992709 0.046879 -0.120537
v 0.935016 0.002885 0.354605
v 0.935016 0.046879 0.354605
v 0.663123 0.002885 0.748511
v 0.663123 0.046879 0.748511
v 0.239316 0.002885 0.970942
v 0.239316 0.046879 0.970942
v -0.239316 0.002885 0.970942
v -0.239316 0.046879 0.970942
v -0.663123 0.002885 0.748511
v -0.663123 0.046879 0.748511
v -0.935016 0.002885 0.354605
v -0.935016 0.046879 0.354605
v -0.992709 0.002885 -0.120537
v -0.992709 0.046879 -0.120537
v -0.822984 0.002885 -0.568065
v -0.822984 0.046879 -0.568065
v -0.464723 0.002885 -0.885456
v -0.464723 0.046879 -0.885456
v 0.553488 0.090607 -1.054584
v 0.000000 0.090607 -1.191006
v 0.980179 0.090607 -0.676569
v 1.182323 0.090607 -0.143560
v 1.113610 0.090607 0.422337
v 0.789783 0.090607 0.891481
v 0.285026 0.090607 1.156398
v -0.285026 0.090607 1.156398
v -0.789783 0.090607 0.891481
v -1.113610 0.090607 0.422337
v -1.182323 0.090607 -0.143560
v -0.980179 0.090607 -0.676569
v -0.553488 0.090607 -1.054584
v 0.727521 0.157200 -1.386174
v 0.000000 0.157200 -1.565492
v 1.288375 0.157200 -0.889301
v 1.554078 0.157200 -0.188699
v 1.463760 0.157200 0.555131
v 1.038113 0.157200 1.171788
v 0.374647 0.157200 1.520002
v -0.374647 0.157200 1.520002
v -1.038113 0.157200 1.171788
v -1.463760 0.157200 0.555131
v -1.554078 0.157200 -0.188699
v -1.288375 0.157200 -0.889301
v -0.727520 0.157200 -1.386174
v 0.705357 0.157200 -1.343946
v 0.000000 0.157200 -1.517801
v 1.249126 0.157200 -0.862209
v 1.506735 0.157200 -0.182951
v 1.419169 0.157200 0.538220
v 1.006488 0.157200 1.136091
v 0.363234 0.157200 1.473697
v -0.363234 0.157200 1.473697
v -1.006488 0.157200 1.136091
v -1.419169 0.157200 0.538220
v -1.506735 0.157200 -0.182951
v -1.249126 0.157200 -0.862209
v -0.705357 0.157200 -1.343946
vn 0.2393 -0.0000 -0.9709
vn 0.6631 -0.0000 -0.7485
vn 0.9350 -0.0000 -0.3546
vn 0.9927 -0.0000 0.1205
vn 0.8230 -0.0000 0.5681
vn 0.4647 -0.0000 0.8855
vn -0.0000 -0.0000 1.0000
vn -0.4647 -0.0000 0.8855
vn -0.8230 -0.0000 0.5681
vn -0.9927 -0.0000 0.1205
vn -0.9350 -0.0000 -0.3546
vn 0.1621 -0.9804 0.1119
vn -0.6631 -0.0000 -0.7485
vn -0.2393 -0.0000 -0.9709
vn -0.0000 -1.0000 -0.0000
vn -0.0000 1.0000 -0.0000
vn -0.1956 -0.9804 0.0237
vn 0.1842 -0.9804 -0.0699
vn -0.0915 -0.9804 0.1744
vn 0.0471 -0.9804 -0.1913
vn -0.0471 -0.9804 -0.1913
vn 0.0915 -0.9804 0.1744
vn -0.1842 -0.9804 -0.0699
vn 0.1956 -0.9804 0.0237
vn -0.1621 -0.9804 0.1119
vn 0.1306 -0.9804 -0.1474
vn -0.0000 -0.9804 0.1970
vn -0.1306 -0.9804 -0.1474
vn -0.0492 0.9787 0.1994
vn -0.1362 0.9787 0.1537
vn -0.1921 0.9787 0.0728
vn -0.2039 0.9787 -0.0248
vn -0.1690 0.9787 -0.1167
vn -0.0955 0.9787 -0.1819
vn -0.0000 0.9787 -0.2054
vn 0.0955 0.9787 -0.1819
vn 0.1690 0.9787 -0.1167
vn 0.2039 0.9787 -0.0248
vn 0.1921 0.9787 0.0728
vn 0.1362 0.9787 0.1537
vn 0.0492 0.9787 0.1994
vt 1.000000 0.500000
vt 1.000000 1.000000
vt 0.923077 1.000000
vt 0.923077 0.500000
vt 0.846154 1.000000
vt 0.846154 0.500000
vt 0.769231 1.000000
vt 0.769231 0.500000
vt 0.692308 1.000000
vt 0.692308 0.500000
vt 0.615385 1.000000
vt 0.615385 0.500000
vt 0.538462 1.000000
vt 0.538462 0.500000
vt 0.461538 1.000000
vt 0.461538 0.500000
vt 0.384615 1.000000
vt 0.384615 0.500000
vt 0.307692 1.000000
vt 0.307692 0.500000
vt 0.230769 1.000000
vt 0.230769 0.500000
vt 0.153846 1.000000
vt 0.153846 0.500000
vt 0.076923 1.000000
vt 0.076923 0.500000
vt 0.000000 1.000000
vt 0.000000 0.500000
vt 0.750000 0.490000
vt 0.861534 0.462509
vt 0.947516 0.386336
vt 0.988250 0.278929
vt 0.974404 0.164895
vt 0.909149 0.070357
vt 0.807436 0.016974
vt 0.692564 0.016974
vt 0.590851 0.070357
vt 0.525596 0.164895
vt 0.511750 0.278929
vt 0.552484 0.386336
vt 0.638466 0.462509
vt 0.352798 0.445866
vt 0.250000 0.471203
vt 0.147202 0.445866
vt 0.067953 0.375658
vt 0.030410 0.276663
vt 0.043172 0.171560
vt 0.103315 0.084427
vt 0.197063 0.035225
vt 0.302937 0.035225
vt 0.396685 0.084427
vt 0.456828 0.171560
vt 0.469590 0.276663
vt 0.432047 0.375658
vt 0.250000 0.482689
vt 0.358136 0.456036
vt 0.361534 0.462509
vt 0.250000 0.490000
vt 0.441499 0.382182
vt 0.447516 0.386336
vt 0.480992 0.278048
vt 0.488250 0.278929
vt 0.467568 0.167487
vt 0.474404 0.164895
vt 0.404301 0.075830
vt 0.409149 0.070357
vt 0.305686 0.024073
vt 0.307436 0.016974
vt 0.194314 0.024073
vt 0.192564 0.016974
vt 0.095699 0.075830
vt 0.090851 0.070357
vt 0.032432 0.167487
vt 0.025596 0.164895
vt 0.019008 0.278048
vt 0.011750 0.278929
vt 0.058501 0.382182
vt 0.052484 0.386336
vt 0.141864 0.456036
vt 0.138466 0.462509
s 0
f 1/1/1 2/2/1 4/3/1 3/4/1
f 3/4/2 4/3/2 6/5/2 5/6/2
f 5/6/3 6/5/3 8/7/3 7/8/3
f 7/8/4 8/7/4 10/9/4 9/10/4
f 9/10/5 10/9/5 12/11/5 11/12/5
f 11/12/6 12/11/6 14/13/6 13/14/6
f 13/14/7 14/13/7 16/15/7 15/16/7
f 15/16/8 16/15/8 18/17/8 17/18/8
f 17/18/9 18/17/9 20/19/9 19/20/9
f 19/20/10 20/19/10 22/21/10 21/22/10
f 21/22/11 22/21/11 24/23/11 23/24/11
f 12/11/12 10/9/12 44/9/12 45/11/12
f 23/24/13 24/23/13 26/25/13 25/26/13
f 25/26/14 26/25/14 2/27/14 1/28/14
f 1/29/15 3/30/15 5/31/15 7/32/15 9/33/15 11/34/15 13/35/15 15/36/15 17/37/15 19/38/15 21/39/15 23/40/15 25/41/15
f 27/42/16 28/43/16 39/44/16 38/45/16 37/46/16 36/47/16 35/48/16 34/49/16 33/50/16 32/51/16 31/52/16 30/53/16 29/54/16
f 22/21/17 20/19/17 49/19/17 50/21/17
f 8/7/18 6/5/18 42/5/18 43/7/18
f 18/17/19 16/15/19 47/15/19 48/17/19
f 4/3/20 2/2/20 41/2/20 40/3/20
f 2/27/21 26/25/21 52/25/21 41/27/21
f 14/13/22 12/11/22 45/11/22 46/13/22
f 24/23/23 22/21/23 50/21/23 51/23/23
f 10/9/24 8/7/24 43/7/24 44/9/24
f 20/19/25 18/17/25 48/17/25 49/19/25
f 6/5/26 4/3/26 40/3/26 42/5/26
f 16/15/27 14/13/27 46/13/27 47/15/27
f 26/25/28 24/23/28 51/23/28 52/25/28
f 54/55/16 53/56/16 40/57/16 41/58/16
f 53/56/16 55/59/16 42/60/16 40/57/16
f 55/59/16 56/61/16 43/62/16 42/60/16
f 56/61/16 57/63/16 44/64/16 43/62/16
f 57/63/16 58/65/16 45/66/16 44/64/16
f 58/65/16 59/67/16 46/68/16 45/66/16
f 59/67/16 60/69/16 47/70/16 46/68/16
f 60/69/16 61/71/16 48/72/16 47/70/16
f 61/71/16 62/73/16 49/74/16 48/72/16
f 62/73/16 63/75/16 50/76/16 49/74/16
f 63/75/16 64/77/16 51/78/16 50/76/16
f 64/77/16 65/79/16 52/80/16 51/78/16
f 65/79/16 54/55/16 41/58/16 52/80/16
f 28/43/29 27/42/29 53/56/29 54/55/29
f 27/42/30 29/54/30 55/59/30 53/56/30
f 29/54/31 30/53/31 56/61/31 55/59/31
f 30/53/32 31/52/32 57/63/32 56/61/32
f 31/52/33 32/51/33 58/65/33 57/63/33
f 32/51/34 33/50/34 59/67/34 58/65/34
f 33/50/35 34/49/35 60/69/35 59/67/35
f 34/49/36 35/48/36 61/71/36 60/69/36
f 35/48/37 36/47/37 62/73/37 61/71/37
f 36/47/38 37/46/38 63/75/38 62/73/38
f 37/46/39 38/45/39 64/77/39 63/75/39
f 38/45/40 39/44/40 65/79/40 64/77/40
f 39/44/41 28/43/41 54/55/41 65/79/41
