# Blender 4.0.1
# www.blender.org
mtllib sink.mtl
o Cube
v 0.112793 1.125439 -0.341662
v -0.112793 1.125439 -0.341662
v 0.100597 1.125439 -0.116076
v 0.112793 1.125439 -0.128272
v -0.112793 1.125439 -0.128272
v -0.100597 1.125439 -0.116076
v -1.000000 1.236659 -1.000000
v 1.000000 1.236659 -1.000000
v -0.643032 1.236659 1.000000
v -1.000000 1.236659 0.643032
v 1.000000 1.236659 0.643032
v 0.643032 1.236659 1.000000
v -0.747956 1.236659 -0.654612
v 0.747956 1.236659 -0.654612
v -0.538632 1.236659 0.841300
v -0.747956 1.236659 0.631976
v 0.747956 1.236659 0.631976
v 0.538632 1.236659 0.841300
v -0.634301 1.125439 -0.515157
v 0.634301 1.125439 -0.515157
v -0.458507 1.125439 0.753446
v -0.634301 1.125439 0.577651
v 0.634301 1.125439 0.577651
v 0.458507 1.125439 0.753446
v -0.112793 1.075434 -0.341662
v 0.112793 1.075434 -0.341662
v -0.100597 1.075434 -0.116076
v -0.112793 1.075434 -0.128272
v 0.112793 1.075434 -0.128272
v 0.100597 1.075434 -0.116076
v -0.112793 1.026561 -0.341662
v 0.112793 1.026561 -0.341662
v -0.100597 1.026561 -0.116076
v -0.112793 1.026561 -0.128272
v 0.112793 1.026561 -0.128272
v 0.100597 1.026561 -0.116076
v -0.030147 1.063660 -0.782299
v -0.046233 1.063660 -0.798385
v -0.030147 1.370531 -0.782299
v -0.046233 1.370531 -0.798385
v -0.046233 1.063660 -0.863829
v -0.030147 1.063660 -0.879915
v -0.046233 1.370531 -0.863829
v -0.030147 1.370531 -0.879915
v 0.046233 1.063660 -0.798385
v 0.030147 1.063660 -0.782299
v 0.046233 1.370531 -0.798385
v 0.030147 1.370531 -0.782299
v 0.030147 1.063660 -0.879915
v 0.046233 1.063660 -0.863829
v 0.030147 1.370531 -0.879915
v 0.046233 1.370531 -0.863829
v -0.030147 1.661378 -0.782299
v -0.046233 1.645292 -0.782299
v 0.046233 1.645292 -0.782299
v 0.030147 1.661378 -0.782299
v 0.030147 1.568001 -0.879915
v 0.046233 1.568001 -0.863829
v 0.046233 1.584086 -0.798385
v 0.030147 1.568001 -0.782299
v -0.030147 1.568001 -0.782299
v -0.046233 1.584086 -0.798385
v -0.046233 1.568001 -0.863829
v -0.030147 1.568001 -0.879915
v 0.030147 1.661378 -0.200248
v 0.046233 1.645292 -0.184162
v -0.030147 1.661378 -0.200248
v -0.046233 1.645292 -0.184162
v -0.046233 1.584086 -0.184162
v -0.030147 1.568001 -0.184162
v 0.030147 1.568001 -0.184162
v 0.046233 1.584086 -0.184162
v -0.046233 1.645292 -0.831469
v -0.030147 1.661378 -0.838132
v -0.046233 1.612932 -0.863829
v -0.030147 1.619595 -0.879915
v 0.046233 1.612932 -0.863829
v 0.030147 1.619595 -0.879915
v 0.046233 1.645292 -0.831469
v 0.030147 1.661378 -0.838132
v 0.860747 0.864687 -0.860747
v 1.000000 1.003941 -1.000000
v -0.860747 0.864687 -0.860747
v -1.000000 1.003941 -1.000000
v 0.860747 0.864687 0.585351
v 1.000000 1.003941 0.643032
v 0.585351 0.864687 0.860747
v 0.643032 1.003941 1.000000
v -0.585351 0.864687 0.860747
v -0.643032 1.003941 1.000000
v -0.860747 0.864687 0.585351
v -1.000000 1.003941 0.643032
vn -1.0000 -0.0000 -0.0000
vn -0.0000 -0.0000 -1.0000
vn 0.7071 -0.0000 0.7071
vn -0.7071 -0.0000 0.7071
vn 1.0000 -0.0000 -0.0000
vn -0.0000 -0.0000 1.0000
vn -0.0000 -1.0000 -0.0000
vn -0.0000 1.0000 -0.0000
vn -0.0000 0.7818 0.6235
vn 0.4833 0.7300 -0.4833
vn -0.4833 0.7300 -0.4833
vn -0.6994 0.7147 -0.0000
vn -0.0000 0.6199 -0.7847
vn 0.6994 0.7147 -0.0000
vn -0.7071 -0.0000 -0.7071
vn 0.7071 -0.0000 -0.7071
vn -0.0000 0.7071 -0.7071
vn -0.0000 0.7071 0.7071
vn -0.7071 -0.7071 -0.0000
vn -0.7071 0.7071 -0.0000
vn 0.7071 -0.7071 -0.0000
vn 0.7071 0.7071 -0.0000
vn -0.7071 0.5000 -0.5000
vn 0.7071 0.5000 -0.5000
vn -0.0000 -0.7071 -0.7071
vn -0.5000 -0.7071 0.5000
vn 0.5000 -0.7071 0.5000
vn -0.0000 -0.7071 0.7071
vt 0.912309 0.551896
vt 0.911896 0.552180
vt 0.911523 0.551637
vt 0.911936 0.551353
vt 0.910262 0.550812
vt 0.910544 0.550618
vt 0.910534 0.550198
vt 0.910947 0.549914
vt 0.911109 0.550150
vt 0.910696 0.550434
vt 0.912390 0.552014
vt 0.911977 0.552298
vt 0.911482 0.550692
vt 0.911069 0.550976
vt 0.910242 0.549773
vt 0.910655 0.549489
vt 0.912312 0.550054
vt 0.911744 0.550445
vt 0.911416 0.549967
vt 0.911444 0.549814
vt 0.911831 0.549548
vt 0.911984 0.549576
vt 0.910434 0.551290
vt 0.910928 0.550950
vt 0.910408 0.551430
vt 0.910164 0.550748
vt 0.910142 0.550865
vt 0.910035 0.550888
vt 0.910072 0.550689
vt 0.910636 0.550525
vt 0.910520 0.550504
vt 0.910497 0.550397
vt 0.910435 0.551286
vt 0.910925 0.550950
vt 0.910166 0.550750
vt 0.910145 0.550864
vt 0.910635 0.550528
vt 0.910520 0.550506
vt 0.910462 0.551140
vt 0.910779 0.550923
vt 0.910256 0.550841
vt 0.910573 0.550623
vt 0.913855 0.549753
vt 0.913053 0.549753
vt 0.913053 0.549231
vt 0.913855 0.549231
vt 0.913053 0.550834
vt 0.913053 0.551357
vt 0.913053 0.550025
vt 0.913053 0.550562
vt 0.913053 0.551628
vt 0.913053 0.552165
vt 0.913855 0.552165
vt 0.913855 0.551628
vt 0.913053 0.552298
vt 0.913053 0.549893
vt 0.913855 0.550562
vt 0.913855 0.550025
vt 0.913855 0.551357
vt 0.913855 0.550834
vt 0.912914 0.549893
vt 0.912391 0.549893
vt 0.913053 0.549091
vt 0.913053 0.550297
vt 0.913053 0.551894
vt 0.912914 0.550351
vt 0.912391 0.550351
vt 0.913855 0.552298
vt 0.913053 0.551839
vt 0.913053 0.551496
vt 0.913053 0.550694
vt 0.913053 0.550351
vt 0.914656 0.550562
vt 0.914517 0.550694
vt 0.913994 0.550694
vt 0.913994 0.549893
vt 0.914517 0.549893
vt 0.914656 0.550025
vt 0.912390 0.550068
vt 0.911729 0.550522
vt 0.911818 0.549489
vt 0.912017 0.549526
vt 0.911357 0.549980
vt 0.911393 0.549781
s 0
usemtl Material
f 92/1/1 10/2/1 7/3/1 84/4/1
f 6/5/2 3/6/2 30/6/2 27/5/2
f 12/7/3 88/8/3 86/9/3 11/10/3
f 90/11/4 9/12/4 10/2/4 92/1/4
f 82/13/5 8/14/5 11/10/5 86/9/5
f 88/8/6 12/7/6 9/15/6 90/16/6
f 83/17/7 81/18/7 85/19/7 87/20/7 89/21/7 91/22/7
f 13/23/8 14/24/8 8/14/8 7/25/8
f 15/26/8 16/27/8 10/28/8 9/29/8
f 17/30/8 18/31/8 12/32/8 11/10/8
f 14/24/8 17/30/8 11/10/8 8/14/8
f 18/31/8 15/26/8 9/29/8 12/32/8
f 16/27/8 13/23/8 7/25/8 10/28/8
f 19/33/9 20/34/9 14/24/9 13/23/9
f 21/35/10 22/36/10 16/27/10 15/26/10
f 23/37/11 24/38/11 18/31/11 17/30/11
f 20/34/12 23/37/12 17/30/12 14/24/12
f 24/38/13 21/35/13 15/26/13 18/31/13
f 22/36/14 19/33/14 13/23/14 16/27/14
f 2/39/8 1/40/8 20/34/8 19/33/8
f 6/5/8 5/41/8 22/36/8 21/35/8
f 4/42/8 3/6/8 24/38/8 23/37/8
f 1/40/8 4/42/8 23/37/8 20/34/8
f 3/6/8 6/5/8 21/35/8 24/38/8
f 5/41/8 2/39/8 19/33/8 22/36/8
f 25/39/5 28/41/5 34/41/5 31/39/5
f 3/6/15 4/42/15 29/42/15 30/6/15
f 1/40/6 2/39/6 25/39/6 26/40/6
f 2/39/5 5/41/5 28/41/5 25/39/5
f 4/42/1 1/40/1 26/40/1 29/42/1
f 5/41/16 6/5/16 27/5/16 28/41/16
f 32/40/8 31/39/8 34/41/8 33/5/8 36/6/8 35/42/8
f 29/42/1 26/40/1 32/40/1 35/42/1
f 28/41/16 27/5/16 33/5/16 34/41/16
f 27/5/2 30/6/2 36/6/2 33/5/2
f 30/6/15 29/42/15 35/42/15 36/6/15
f 26/40/6 25/39/6 31/39/6 32/40/6
f 46/43/6 48/44/6 39/45/6 37/46/6
f 51/47/2 44/48/2 64/48/2 57/47/2
f 47/49/5 52/50/5 58/50/5 59/49/5
f 43/51/1 40/52/1 62/52/1 63/51/1
f 38/53/1 40/52/1 43/51/1 41/54/1
f 61/45/7 60/44/7 71/44/7 70/45/7
f 54/55/1 62/55/1 69/55/1 68/55/1
f 59/56/5 55/56/5 66/56/5 72/56/5
f 57/47/2 64/48/2 76/48/2 78/47/2
f 50/57/5 52/50/5 47/49/5 45/58/5
f 42/59/2 44/48/2 51/47/2 49/60/2
f 39/45/6 48/44/6 60/44/6 61/45/6
f 56/61/8 53/62/8 67/62/8 65/61/8
f 74/48/17 80/47/17 78/47/17 76/48/17
f 69/63/6 70/45/6 71/44/6 72/56/6 66/56/6 68/63/6
f 59/49/5 58/50/5 77/50/5 79/64/5 55/56/5
f 63/51/1 62/52/1 54/55/1 73/65/1 75/51/1
f 80/66/8 74/67/8 53/62/8 56/61/8
f 37/68/4 39/55/4 40/52/4 38/53/4
f 44/48/15 42/59/15 41/54/15 43/51/15
f 52/50/16 50/57/16 49/60/16 51/47/16
f 48/44/3 46/43/3 45/58/3 47/49/3
f 60/44/3 48/44/3 47/49/3 59/49/3
f 64/48/15 44/48/15 43/51/15 63/51/15
f 51/47/16 57/47/16 58/50/16 52/50/16
f 39/55/4 61/55/4 62/52/4 40/52/4
f 65/44/18 67/45/18 68/63/18 66/56/18
f 61/45/19 70/45/19 69/63/19 62/63/19
f 67/55/20 53/55/20 54/55/20 68/55/20
f 59/56/21 72/56/21 71/44/21 60/44/21
f 56/61/22 65/61/22 66/56/22 55/56/22
f 75/51/23 73/65/23 74/69/23 76/70/23
f 79/64/24 77/50/24 78/71/24 80/72/24
f 76/48/15 64/48/15 63/51/15 75/51/15
f 53/55/20 74/69/20 73/65/20 54/55/20
f 55/56/22 79/64/22 80/66/22 56/61/22
f 77/50/16 58/50/16 57/47/16 78/47/16
f 41/73/7 42/74/7 49/75/7 50/57/7 45/58/7 46/76/7 37/77/7 38/78/7
f 81/18/25 83/17/25 84/79/25 82/80/25
f 91/22/26 89/21/26 90/81/26 92/82/26
f 87/20/27 85/19/27 86/83/27 88/84/27
f 85/19/21 81/18/21 82/13/21 86/9/21
f 89/21/28 87/20/28 88/84/28 90/81/28
f 92/82/19 84/79/19 83/17/19 91/22/19
f 84/4/2 7/3/2 8/14/2 82/13/2
o Cube.001
v -0.000084 1.244812 -0.787050
v 0.063156 1.308052 -0.787050
v -0.000084 1.244812 -0.876484
v 0.063156 1.308052 -0.876484
v 0.063156 1.181573 -0.787050
v 0.126395 1.244812 -0.787050
v 0.063156 1.181573 -0.876484
v 0.126395 1.244812 -0.876484
v 0.197886 1.425499 -0.799271
v 0.230908 1.424369 -0.823420
v 0.230908 1.424369 -0.840114
v 0.197886 1.425499 -0.864263
v 0.242712 1.412564 -0.840114
v 0.243842 1.379542 -0.864263
v 0.242712 1.412564 -0.823420
v 0.243842 1.379542 -0.799271
v -0.063007 1.181573 -0.787050
v -0.126246 1.244812 -0.787050
v -0.063007 1.181573 -0.876484
v -0.126246 1.244812 -0.876484
v 0.000233 1.244812 -0.787050
v -0.063007 1.308052 -0.787050
v 0.000233 1.244812 -0.876484
v -0.063007 1.308052 -0.876484
v -0.243693 1.379542 -0.799271
v -0.242563 1.412564 -0.823420
v -0.242563 1.412564 -0.840114
v -0.243693 1.379542 -0.864263
v -0.230759 1.424369 -0.840114
v -0.197737 1.425499 -0.864263
v -0.230759 1.424369 -0.823420
v -0.197737 1.425499 -0.799271
vn -0.7071 0.7071 -0.0000
vn -0.0000 -0.0000 -1.0000
vn 0.7071 -0.7071 -0.0000
vn -0.0000 -0.0000 1.0000
vn -0.7071 -0.7071 -0.0000
vn 0.0483 0.0483 -0.9977
vn 0.0483 0.0483 0.9977
vn 0.7538 -0.6571 -0.0000
vn 0.7071 0.7071 -0.0000
vn 0.0342 0.9994 -0.0000
vn 0.5168 0.5168 -0.6825
vn 0.9994 0.0342 -0.0000
vn 0.5168 0.5168 0.6825
vn -0.6571 0.7538 -0.0000
vn -0.0483 0.0483 -0.9977
vn -0.0483 0.0483 0.9977
vn 0.6571 0.7538 -0.0000
vn -0.9994 0.0342 -0.0000
vn -0.5168 0.5168 -0.6825
vn -0.0342 0.9994 -0.0000
vn -0.5168 0.5168 0.6825
vn -0.7538 -0.6571 -0.0000
vt 0.867900 0.533533
vt 0.866994 0.533533
vt 0.866994 0.532627
vt 0.867900 0.532627
vt 0.866994 0.531720
vt 0.867900 0.531720
vt 0.866994 0.530813
vt 0.867900 0.530813
vt 0.866994 0.529907
vt 0.867900 0.529907
vt 0.868807 0.531720
vt 0.868807 0.530813
vt 0.866663 0.531389
vt 0.866418 0.531389
vt 0.866418 0.531144
vt 0.866663 0.531144
vt 0.866087 0.531720
vt 0.866087 0.530813
vt 0.865179 0.533533
vt 0.864272 0.533533
vt 0.864272 0.532627
vt 0.865179 0.532627
vt 0.864272 0.531720
vt 0.865179 0.531720
vt 0.864272 0.530813
vt 0.865179 0.530813
vt 0.864272 0.529907
vt 0.865179 0.529907
vt 0.866086 0.531720
vt 0.866086 0.530813
vt 0.863941 0.531389
vt 0.863697 0.531389
vt 0.863697 0.531144
vt 0.863941 0.531144
vt 0.863366 0.531720
vt 0.863366 0.530813
s 0
usemtl Material.001
f 93/85/29 94/86/29 96/87/29 95/88/29
f 95/88/30 96/87/30 100/89/30 99/90/30
f 99/90/31 100/89/31 98/91/31 97/92/31
f 97/92/32 98/91/32 94/93/32 93/94/32
f 95/95/33 99/90/33 97/92/33 93/96/33
f 100/89/34 96/87/34 104/87/34 106/89/34
f 94/93/35 98/91/35 108/91/35 101/93/35
f 98/91/36 100/89/36 106/89/36 108/91/36
f 105/97/37 103/98/37 102/99/37 107/100/37
f 102/99/38 103/98/38 104/101/38 101/102/38
f 103/98/39 105/97/39 106/89/39 104/101/39
f 105/97/40 107/100/40 108/91/40 106/89/40
f 107/100/41 102/99/41 101/102/41 108/91/41
f 96/87/42 94/86/42 101/86/42 104/87/42
f 109/103/33 110/104/33 112/105/33 111/106/33
f 111/106/30 112/105/30 116/107/30 115/108/30
f 115/108/37 116/107/37 114/109/37 113/110/37
f 113/110/32 114/109/32 110/111/32 109/112/32
f 111/113/31 115/108/31 113/110/31 109/114/31
f 116/107/43 112/105/43 120/105/43 122/107/43
f 110/111/44 114/109/44 124/109/44 117/111/44
f 114/109/45 116/107/45 122/107/45 124/109/45
f 121/115/29 119/116/29 118/117/29 123/118/29
f 118/117/46 119/116/46 120/119/46 117/120/46
f 119/116/47 121/115/47 122/107/47 120/119/47
f 121/115/48 123/118/48 124/109/48 122/107/48
f 123/118/49 118/117/49 117/120/49 124/109/49
f 112/105/50 110/104/50 117/104/50 120/105/50
o Cylinder
v -0.000000 0.858394 -0.357156
v -0.000000 0.992282 -0.294723
v 0.047479 0.851091 -0.341494
v 0.047479 0.984979 -0.279061
v 0.072742 0.832599 -0.301837
v 0.072742 0.966486 -0.239404
v 0.063968 0.811570 -0.256740
v 0.063968 0.945457 -0.194307
v 0.025263 0.797844 -0.227305
v 0.025263 0.931732 -0.164872
v -0.025263 0.797844 -0.227305
v -0.025263 0.931732 -0.164872
v -0.063968 0.811570 -0.256740
v -0.063968 0.945457 -0.194307
v -0.072742 0.832599 -0.301837
v -0.072742 0.966486 -0.239404
v -0.047479 0.851091 -0.341494
v -0.047479 0.984979 -0.279061
v 0.000000 0.590326 -0.482158
v 0.047479 0.583023 -0.466496
v 0.072742 0.564531 -0.426839
v 0.063968 0.543502 -0.381742
v 0.025263 0.529776 -0.352307
v -0.025263 0.529776 -0.352307
v -0.063968 0.543502 -0.381742
v -0.072742 0.564531 -0.426839
v -0.047479 0.583023 -0.466496
v 0.000000 0.489871 -0.699906
v 0.047479 0.472590 -0.699906
v 0.072742 0.428833 -0.699906
v 0.063968 0.379074 -0.699906
v 0.025263 0.346597 -0.699906
v -0.025263 0.346597 -0.699906
v -0.063968 0.379074 -0.699906
v -0.072742 0.428833 -0.699906
v -0.047479 0.472590 -0.699906
v 0.000000 0.489871 -1.066228
v 0.047479 0.472590 -1.066228
v 0.072742 0.428833 -1.066228
v 0.063968 0.379074 -1.066228
v 0.025263 0.346597 -1.066228
v -0.025263 0.346597 -1.066228
v -0.063968 0.379074 -1.066228
v -0.072742 0.428833 -1.066228
v -0.047479 0.472590 -1.066228
vn 0.3420 0.3971 -0.8517
vn 0.8660 0.2113 -0.4532
vn 0.9848 -0.0734 0.1574
vn 0.6428 -0.3237 0.6943
vn -0.0000 -0.4226 0.9063
vn -0.6428 -0.3237 0.6943
vn -0.9848 -0.0734 0.1574
vn -0.0000 0.9063 0.4226
vn -0.8660 0.2113 -0.4532
vn -0.3420 0.3971 -0.8517
vn 0.5762 -0.7245 0.3783
vn -0.3420 0.9397 -0.0000
vn 0.2912 0.8667 -0.4051
vn -0.8234 0.5104 -0.2480
vn -0.0000 -0.8847 0.4662
vn 0.8234 0.5104 -0.2480
vn -0.2912 0.8667 -0.4051
vn -0.5762 -0.7245 0.3783
vn 0.9786 -0.1833 0.0931
vn -0.9786 -0.1833 0.0931
vn -0.0000 -0.0000 -1.0000
vn -0.6428 -0.7660 -0.0000
vn 0.9848 -0.1736 -0.0000
vn -0.9848 -0.1736 -0.0000
vn 0.6428 -0.7660 -0.0000
vn 0.3420 0.9397 -0.0000
vn -0.8660 0.5000 -0.0000
vn -0.0000 -1.0000 -0.0000
vn 0.8660 0.5000 -0.0000
vt 0.863924 0.502468
vt 0.863924 0.499427
vt 0.864599 0.499427
vt 0.864599 0.502468
vt 0.865275 0.499427
vt 0.865275 0.502468
vt 0.865951 0.499427
vt 0.865951 0.502468
vt 0.866626 0.499427
vt 0.866626 0.502468
vt 0.867302 0.499427
vt 0.867302 0.502468
vt 0.867978 0.499427
vt 0.867978 0.502468
vt 0.868654 0.499427
vt 0.868654 0.502468
vt 0.867546 0.502871
vt 0.868485 0.502529
vt 0.869423 0.502871
vt 0.869922 0.503735
vt 0.869749 0.504718
vt 0.868984 0.505360
vt 0.867985 0.505360
vt 0.867221 0.504718
vt 0.867047 0.503735
vt 0.869329 0.499427
vt 0.869329 0.502468
vt 0.870005 0.499427
vt 0.870005 0.502468
vt 0.865444 0.502529
vt 0.864506 0.502871
vt 0.864007 0.503735
vt 0.864180 0.504718
vt 0.864945 0.505360
vt 0.865943 0.505360
vt 0.866708 0.504718
vt 0.866881 0.503735
vt 0.866382 0.502871
s 0
usemtl Material.002
f 125/121/51 126/122/51 128/123/51 127/124/51
f 127/124/52 128/123/52 130/125/52 129/126/52
f 129/126/53 130/125/53 132/127/53 131/128/53
f 131/128/54 132/127/54 134/129/54 133/130/54
f 133/130/55 134/129/55 136/131/55 135/132/55
f 135/132/56 136/131/56 138/133/56 137/134/56
f 137/134/57 138/133/57 140/135/57 139/136/57
f 128/137/58 126/138/58 142/139/58 140/140/58 138/141/58 136/142/58 134/143/58 132/144/58 130/145/58
f 139/136/59 140/135/59 142/146/59 141/147/59
f 141/147/60 142/146/60 126/148/60 125/149/60
f 141/147/60 125/149/60 143/149/60 151/147/60
f 146/128/61 147/130/61 156/130/61 155/128/61
f 139/136/59 141/147/59 151/147/59 150/136/59
f 137/134/57 139/136/57 150/136/57 149/134/57
f 135/132/56 137/134/56 149/134/56 148/132/56
f 133/130/55 135/132/55 148/132/55 147/130/55
f 131/128/54 133/130/54 147/130/54 146/128/54
f 125/121/51 127/124/51 144/124/51 143/121/51
f 129/126/53 131/128/53 146/128/53 145/126/53
f 127/124/52 129/126/52 145/126/52 144/124/52
f 160/147/62 152/149/62 161/149/62 169/147/62
f 143/121/63 144/124/63 153/124/63 152/121/63
f 150/136/64 151/147/64 160/147/64 159/136/64
f 147/130/65 148/132/65 157/132/65 156/130/65
f 144/124/66 145/126/66 154/126/66 153/124/66
f 151/147/67 143/149/67 152/149/67 160/147/67
f 148/132/68 149/134/68 158/134/68 157/132/68
f 145/126/69 146/128/69 155/128/69 154/126/69
f 149/134/70 150/136/70 159/136/70 158/134/70
f 161/150/71 162/151/71 163/152/71 164/153/71 165/154/71 166/155/71 167/156/71 168/157/71 169/158/71
f 157/132/72 158/134/72 167/134/72 166/132/72
f 154/126/73 155/128/73 164/128/73 163/126/73
f 158/134/74 159/136/74 168/136/74 167/134/74
f 155/128/75 156/130/75 165/130/75 164/128/75
f 152/121/76 153/124/76 162/124/76 161/121/76
f 159/136/77 160/147/77 169/147/77 168/136/77
f 156/130/78 157/132/78 166/132/78 165/130/78
f 153/124/79 154/126/79 163/126/79 162/124/79
