# Blender 4.0.1
# www.blender.org
mtllib Switch_Pole.mtl
o Cylinder.001
v 0.019114 0.191408 -0.061891
v 0.704026 0.876320 -0.061891
v 0.040996 0.169526 -0.053599
v 0.725908 0.854438 -0.053600
v 0.057015 0.153508 -0.030946
v 0.741926 0.838419 -0.030946
v 0.062878 0.147644 -0.000000
v 0.747790 0.832556 -0.000000
v 0.057015 0.153508 0.030946
v 0.741926 0.838419 0.030946
v 0.040996 0.169526 0.053599
v 0.725908 0.854438 0.053599
v 0.019114 0.191408 0.061891
v 0.704026 0.876320 0.061891
v -0.002768 0.213290 0.053599
v 0.682144 0.898202 0.053599
v -0.018786 0.229309 0.030946
v 0.666125 0.914220 0.030946
v -0.024650 0.235172 -0.000000
v 0.660262 0.920084 -0.000000
v -0.018786 0.229309 -0.030946
v 0.666125 0.914220 -0.030946
v -0.002768 0.213290 -0.053599
v 0.682144 0.898202 -0.053600
vn 0.1830 -0.1830 -0.9659
vn 0.5000 -0.5000 -0.7071
vn 0.6830 -0.6830 -0.2588
vn 0.6830 -0.6830 0.2588
vn 0.5000 -0.5000 0.7071
vn 0.1830 -0.1830 0.9659
vn -0.1830 0.1830 0.9659
vn -0.5000 0.5000 0.7071
vn -0.6830 0.6830 0.2588
vn -0.6830 0.6830 -0.2588
vn 0.7071 0.7071 -0.0000
vn -0.5000 0.5000 -0.7071
vn -0.1830 0.1830 -0.9659
vn -0.7071 -0.7071 -0.0000
vt 1.000000 0.500000
vt 1.000000 1.000000
vt 0.916667 1.000000
vt 0.916667 0.500000
vt 0.833333 1.000000
vt 0.833333 0.500000
vt 0.750000 1.000000
vt 0.750000 0.500000
vt 0.666667 1.000000
vt 0.666667 0.500000
vt 0.583333 1.000000
vt 0.583333 0.500000
vt 0.500000 1.000000
vt 0.500000 0.500000
vt 0.416667 1.000000
vt 0.416667 0.500000
vt 0.333333 1.000000
vt 0.333333 0.500000
vt 0.250000 1.000000
vt 0.250000 0.500000
vt 0.166667 1.000000
vt 0.166667 0.500000
vt 0.370000 0.457846
vt 0.250000 0.490000
vt 0.130000 0.457846
vt 0.042154 0.370000
vt 0.010000 0.250000
vt 0.042154 0.130000
vt 0.130000 0.042154
vt 0.250000 0.010000
vt 0.370000 0.042154
vt 0.457846 0.130000
vt 0.490000 0.250000
vt 0.457846 0.370000
vt 0.083333 1.000000
vt 0.083333 0.500000
vt 0.000000 1.000000
vt 0.000000 0.500000
vt 0.750000 0.490000
vt 0.870000 0.457846
vt 0.957846 0.370000
vt 0.990000 0.250000
vt 0.957846 0.130000
vt 0.870000 0.042154
vt 0.750000 0.010000
vt 0.630000 0.042154
vt 0.542154 0.130000
vt 0.510000 0.250000
vt 0.542154 0.370000
vt 0.630000 0.457846
s 0
f 1/1/1 2/2/1 4/3/1 3/4/1
f 3/4/2 4/3/2 6/5/2 5/6/2
f 5/6/3 6/5/3 8/7/3 7/8/3
f 7/8/4 8/7/4 10/9/4 9/10/4
f 9/10/5 10/9/5 12/11/5 11/12/5
f 11/12/6 12/11/6 14/13/6 13/14/6
f 13/14/7 14/13/7 16/15/7 15/16/7
f 15/16/8 16/15/8 18/17/8 17/18/8
f 17/18/9 18/17/9 20/19/9 19/20/9
f 19/20/10 20/19/10 22/21/10 21/22/10
f 4/23/11 2/24/11 24/25/11 22/26/11 20/27/11 18/28/11 16/29/11 14/30/11 12/31/11 10/32/11 8/33/11 6/34/11
f 21/22/12 22/21/12 24/35/12 23/36/12
f 23/36/13 24/35/13 2/37/13 1/38/13
f 1/39/14 3/40/14 5/41/14 7/42/14 9/43/14 11/44/14 13/45/14 15/46/14 17/47/14 19/48/14 21/49/14 23/50/14
o Cylinder.002
v 0.718629 0.890391 -0.061771
v 0.688706 0.860469 -0.097815
v 0.739929 0.869091 -0.053700
v 0.722750 0.826425 -0.084915
v 0.755522 0.853498 -0.031648
v 0.747672 0.801503 -0.049670
v 0.761230 0.847790 -0.001524
v 0.756794 0.792381 -0.001524
v 0.755522 0.853498 0.028599
v 0.747672 0.801503 0.046621
v 0.739929 0.869091 0.050651
v 0.722750 0.826425 0.081866
v 0.718629 0.890391 0.058723
v 0.688706 0.860469 0.094766
v 0.697328 0.911692 0.050651
v 0.654663 0.894513 0.081866
v 0.681735 0.927285 0.028599
v 0.629741 0.919435 0.046621
v 0.676028 0.932992 -0.001524
v 0.620619 0.928557 -0.001524
v 0.681735 0.927285 -0.031648
v 0.629741 0.919435 -0.049670
v 0.697328 0.911692 -0.053700
v 0.654663 0.894513 -0.084914
v 0.553115 0.724878 -0.070829
v 0.575518 0.747280 -0.097815
v 0.609562 0.713237 -0.084915
v 0.577618 0.700375 -0.061544
v 0.634484 0.688315 -0.049670
v 0.595555 0.682437 -0.036177
v 0.643606 0.679193 -0.001524
v 0.602121 0.675872 -0.001524
v 0.634484 0.688315 0.046621
v 0.595555 0.682437 0.033128
v 0.609562 0.713237 0.081866
v 0.577618 0.700375 0.058495
v 0.575518 0.747280 0.094766
v 0.553115 0.724878 0.067780
v 0.541474 0.781324 0.081866
v 0.528612 0.749380 0.058495
v 0.516552 0.806246 0.046621
v 0.510675 0.767318 0.033128
v 0.507430 0.815368 -0.001524
v 0.504109 0.773883 -0.001524
v 0.516552 0.806246 -0.049670
v 0.510675 0.767318 -0.036177
v 0.541474 0.781324 -0.084914
v 0.528612 0.749380 -0.061544
vn 0.1830 -0.1830 -0.9659
vn 0.6830 -0.6830 0.2588
vn 0.5000 -0.5000 0.7071
vn 0.1830 -0.1830 0.9659
vn -0.1830 0.1830 0.9659
vn -0.5000 0.5000 0.7071
vn -0.6830 0.6830 0.2588
vn -0.6830 0.6830 -0.2588
vn -0.5000 0.5000 -0.7071
vn 0.5000 -0.5000 -0.7071
vn 0.6830 -0.6830 -0.2588
vn -0.1830 0.1830 -0.9659
vn 0.5906 0.3079 -0.7459
vn 0.8354 0.0631 -0.5460
vn 0.9767 -0.0782 -0.1999
vn 0.9767 -0.0782 0.1999
vn 0.8354 0.0631 0.5460
vn 0.5906 0.3079 0.7459
vn 0.3079 0.5906 0.7459
vn 0.0631 0.8354 0.5460
vn -0.0782 0.9767 0.1999
vn -0.0782 0.9767 -0.1999
vn 0.0631 0.8354 -0.5461
vn 0.3079 0.5906 -0.7459
vn 0.7071 0.7071 -0.0000
vn -0.3079 -0.5906 -0.7459
vn -0.0631 -0.8354 -0.5461
vn 0.0782 -0.9767 -0.1999
vn 0.0782 -0.9767 0.1999
vn -0.0631 -0.8354 0.5461
vn -0.3079 -0.5906 0.7459
vn -0.5906 -0.3079 0.7459
vn -0.8354 -0.0631 0.5460
vn -0.9767 0.0782 0.1999
vn -0.9767 0.0782 -0.1999
vn -0.8354 -0.0631 -0.5461
vn -0.5906 -0.3079 -0.7459
vn -0.7071 -0.7071 -0.0000
vt 1.000000 0.567677
vt 1.000000 0.909608
vt 0.916667 0.909608
vt 0.916667 0.567677
vt 0.750000 0.567677
vt 0.750000 0.909608
vt 0.666667 0.909608
vt 0.666667 0.567677
vt 0.583333 0.909608
vt 0.583333 0.567677
vt 0.500000 0.909608
vt 0.500000 0.567677
vt 0.416667 0.909608
vt 0.416667 0.567677
vt 0.333333 0.909608
vt 0.333333 0.567677
vt 0.250000 0.909608
vt 0.250000 0.567677
vt 0.166667 0.909608
vt 0.166667 0.567677
vt 0.083333 0.909608
vt 0.083333 0.567677
vt 0.833333 0.909608
vt 0.833333 0.567677
vt 0.000000 0.909608
vt 0.000000 0.567677
vt 0.370000 0.457846
vt 0.250000 0.490000
vt 0.250000 0.400163
vt 0.325081 0.380045
vt 0.457846 0.370000
vt 0.380045 0.325081
vt 0.490000 0.250000
vt 0.400163 0.250000
vt 0.457846 0.130000
vt 0.380045 0.174919
vt 0.370000 0.042154
vt 0.325081 0.119955
vt 0.250000 0.010000
vt 0.250000 0.099837
vt 0.130000 0.042154
vt 0.174919 0.119955
vt 0.042154 0.130000
vt 0.119955 0.174919
vt 0.010000 0.250000
vt 0.099837 0.250000
vt 0.042154 0.370000
vt 0.119955 0.325081
vt 0.130000 0.457846
vt 0.174919 0.380045
vt 0.928344 0.500000
vt 0.988323 0.500000
vt 0.845011 0.500000
vt 0.904989 0.500000
vt 0.761677 0.500000
vt 0.821656 0.500000
vt 0.678344 0.500000
vt 0.738323 0.500000
vt 0.595011 0.500000
vt 0.654989 0.500000
vt 0.511678 0.500000
vt 0.571656 0.500000
vt 0.428344 0.500000
vt 0.488323 0.500000
vt 0.345011 0.500000
vt 0.404989 0.500000
vt 0.261677 0.500000
vt 0.321656 0.500000
vt 0.178344 0.500000
vt 0.238323 0.500000
vt 0.095011 0.500000
vt 0.154989 0.500000
vt 0.011677 0.500000
vt 0.071656 0.500000
vt 0.750000 0.422738
vt 0.836369 0.399596
vt 0.899596 0.336369
vt 0.922738 0.250000
vt 0.899596 0.163631
vt 0.836369 0.100404
vt 0.750000 0.077262
vt 0.663631 0.100404
vt 0.600404 0.163631
vt 0.577262 0.250000
vt 0.600404 0.336369
vt 0.663631 0.399596
s 0
f 50/51/15 26/52/15 28/53/15 51/54/15
f 55/55/16 32/56/16 34/57/16 57/58/16
f 57/58/17 34/57/17 36/59/17 59/60/17
f 59/60/18 36/59/18 38/61/18 61/62/18
f 61/62/19 38/61/19 40/63/19 63/64/19
f 63/64/20 40/63/20 42/65/20 65/66/20
f 65/66/21 42/65/21 44/67/21 67/68/21
f 67/68/22 44/67/22 46/69/22 69/70/22
f 69/70/23 46/69/23 48/71/23 71/72/23
f 51/54/24 28/53/24 30/73/24 53/74/24
f 53/74/25 30/73/25 32/56/25 55/55/25
f 71/72/26 48/71/26 26/75/26 50/76/26
f 28/77/27 26/78/27 25/79/27 27/80/27
f 30/81/28 28/77/28 27/80/28 29/82/28
f 32/83/29 30/81/29 29/82/29 31/84/29
f 34/85/30 32/83/30 31/84/30 33/86/30
f 36/87/31 34/85/31 33/86/31 35/88/31
f 38/89/32 36/87/32 35/88/32 37/90/32
f 40/91/33 38/89/33 37/90/33 39/92/33
f 42/93/34 40/91/34 39/92/34 41/94/34
f 44/95/35 42/93/35 41/94/35 43/96/35
f 46/97/36 44/95/36 43/96/36 45/98/36
f 48/99/37 46/97/37 45/98/37 47/100/37
f 26/78/38 48/99/38 47/100/38 25/79/38
f 27/80/39 25/79/39 47/100/39 45/98/39 43/96/39 41/94/39 39/92/39 37/90/39 35/88/39 33/86/39 31/84/39 29/82/39
f 50/51/40 51/54/40 52/101/40 49/102/40
f 51/54/41 53/74/41 54/103/41 52/104/41
f 53/74/42 55/55/42 56/105/42 54/106/42
f 55/55/43 57/58/43 58/107/43 56/108/43
f 57/58/44 59/60/44 60/109/44 58/110/44
f 59/60/45 61/62/45 62/111/45 60/112/45
f 61/62/46 63/64/46 64/113/46 62/114/46
f 63/64/47 65/66/47 66/115/47 64/116/47
f 65/66/48 67/68/48 68/117/48 66/118/48
f 67/68/49 69/70/49 70/119/49 68/120/49
f 69/70/50 71/72/50 72/121/50 70/122/50
f 71/72/51 50/76/51 49/123/51 72/124/51
f 49/125/52 52/126/52 54/127/52 56/128/52 58/129/52 60/130/52 62/131/52 64/132/52 66/133/52 68/134/52 70/135/52 72/136/52
