# Blender 4.0.1
# www.blender.org
mtllib Switch_Pivot.mtl
o Cylinder
v 0.000000 0.476354 -0.198191
v 0.000000 0.476354 0.198191
v 0.238177 0.412535 -0.198191
v 0.238177 0.412535 0.198191
v 0.412535 0.238177 -0.198191
v 0.412535 0.238177 0.198191
v 0.476354 -0.000000 -0.198191
v 0.476354 0.000000 0.198191
v 0.412535 -0.000369 -0.198191
v 0.412535 -0.000369 0.198191
v 0.238177 0.000166 -0.198191
v 0.238177 0.000166 0.198191
v 0.000000 -0.000056 -0.198191
v 0.000000 -0.000056 0.198191
v -0.238177 0.000166 -0.198191
v -0.238177 0.000166 0.198191
v -0.412535 -0.000369 -0.198191
v -0.412535 -0.000369 0.198191
v -0.476354 -0.000000 -0.198191
v -0.476354 0.000000 0.198191
v -0.412535 0.238177 -0.198191
v -0.412535 0.238177 0.198191
v -0.238177 0.412535 -0.198191
v -0.238177 0.412535 0.198191
v 0.000000 0.476354 -0.066064
v 0.000000 0.476354 0.066064
v 0.238177 0.412535 0.066064
v 0.238177 0.412535 -0.066064
v 0.412535 0.238177 0.066064
v 0.412535 0.238177 -0.066064
v 0.476354 0.000000 0.066064
v 0.476354 -0.000000 -0.066064
v 0.412535 -0.000369 0.066064
v 0.412535 -0.000369 -0.066064
v 0.238177 0.000166 0.066064
v 0.238177 0.000166 -0.066064
v 0.000000 -0.000056 0.066064
v 0.000000 -0.000056 -0.066064
v -0.238177 0.000166 0.066064
v -0.238177 0.000166 -0.066064
v -0.412535 -0.000369 0.066064
v -0.412535 -0.000369 -0.066064
v -0.476354 0.000000 0.066064
v -0.476354 -0.000000 -0.066064
v -0.412535 0.238177 0.066064
v -0.412535 0.238177 -0.066064
v -0.238177 0.412535 0.066064
v -0.238177 0.412535 -0.066064
v 0.000000 0.200765 -0.066064
v 0.000000 0.200765 0.066064
v 0.238177 0.200543 0.066064
v 0.238177 0.200543 -0.066064
v 0.412535 0.200018 0.066064
v 0.412535 0.200018 -0.066064
v -0.412535 0.200018 0.066064
v -0.412535 0.200018 -0.066064
v -0.238177 0.200543 0.066064
v -0.238177 0.200543 -0.066064
vn 0.2588 0.9659 -0.0000
vn 0.7071 0.7071 -0.0000
vn 0.9659 0.2588 -0.0000
vn 0.0058 -1.0000 -0.0000
vn -0.0031 -1.0000 -0.0000
vn 0.0009 -1.0000 -0.0000
vn -0.0009 -1.0000 -0.0000
vn 0.0031 -1.0000 -0.0000
vn -0.0058 -1.0000 -0.0000
vn -0.9659 0.2588 -0.0000
vn -0.0000 -0.0000 1.0000
vn -0.7071 0.7071 -0.0000
vn -0.2588 0.9659 -0.0000
vn -0.0000 -0.0000 -1.0000
vn -1.0000 -0.0000 -0.0000
vn -0.0009 1.0000 -0.0000
vn -0.0030 1.0000 -0.0000
vn 0.0030 1.0000 -0.0000
vn 0.0009 1.0000 -0.0000
vn 1.0000 -0.0000 -0.0000
vt 1.000000 0.833333
vt 1.000000 1.000000
vt 0.916667 1.000000
vt 0.916667 0.833333
vt 0.833333 1.000000
vt 0.833333 0.833333
vt 0.750000 1.000000
vt 0.750000 0.833333
vt 0.666667 1.000000
vt 0.666667 0.833333
vt 0.583333 1.000000
vt 0.583333 0.833333
vt 0.500000 1.000000
vt 0.500000 0.833333
vt 0.416667 1.000000
vt 0.416667 0.833333
vt 0.333333 1.000000
vt 0.333333 0.833333
vt 0.250000 1.000000
vt 0.250000 0.833333
vt 0.166667 1.000000
vt 0.166667 0.833333
vt 0.370000 0.457846
vt 0.250000 0.490000
vt 0.130000 0.457846
vt 0.042154 0.370000
vt 0.010000 0.250000
vt 0.042154 0.130000
vt 0.130000 0.042154
vt 0.250000 0.010000
vt 0.370000 0.042154
vt 0.457846 0.130000
vt 0.490000 0.250000
vt 0.457846 0.370000
vt 0.083333 1.000000
vt 0.083333 0.833333
vt 0.000000 1.000000
vt 0.000000 0.833333
vt 0.750000 0.490000
vt 0.870000 0.457846
vt 0.957846 0.370000
vt 0.990000 0.250000
vt 0.957846 0.130000
vt 0.870000 0.042154
vt 0.750000 0.010000
vt 0.630000 0.042154
vt 0.542154 0.130000
vt 0.510000 0.250000
vt 0.542154 0.370000
vt 0.630000 0.457846
vt 0.083333 0.500000
vt 0.083333 0.666667
vt 0.000000 0.666667
vt 0.000000 0.500000
vt 0.166667 0.500000
vt 0.166667 0.666667
vt 0.250000 0.500000
vt 0.250000 0.666667
vt 0.333333 0.500000
vt 0.333333 0.666667
vt 0.416667 0.500000
vt 0.416667 0.666667
vt 0.500000 0.500000
vt 0.500000 0.666667
vt 0.583333 0.500000
vt 0.583333 0.666667
vt 0.666667 0.500000
vt 0.666667 0.666667
vt 0.750000 0.500000
vt 0.750000 0.666667
vt 0.833333 0.500000
vt 0.833333 0.666667
vt 0.916667 0.500000
vt 0.916667 0.666667
vt 1.000000 0.666667
vt 1.000000 0.500000
s 0
f 26/1/1 2/2/1 4/3/1 27/4/1
f 27/4/2 4/3/2 6/5/2 29/6/2
f 29/6/3 6/5/3 8/7/3 31/8/3
f 31/8/4 8/7/4 10/9/4 33/10/4
f 33/10/5 10/9/5 12/11/5 35/12/5
f 35/12/6 12/11/6 14/13/6 37/14/6
f 37/14/7 14/13/7 16/15/7 39/16/7
f 39/16/8 16/15/8 18/17/8 41/18/8
f 41/18/9 18/17/9 20/19/9 43/20/9
f 43/20/10 20/19/10 22/21/10 45/22/10
f 4/23/11 2/24/11 24/25/11 22/26/11 20/27/11 18/28/11 16/29/11 14/30/11 12/31/11 10/32/11 8/33/11 6/34/11
f 45/22/12 22/21/12 24/35/12 47/36/12
f 47/36/13 24/35/13 2/37/13 26/38/13
f 1/39/14 3/40/14 5/41/14 7/42/14 9/43/14 11/44/14 13/45/14 15/46/14 17/47/14 19/48/14 21/49/14 23/50/14
f 23/51/13 48/52/13 25/53/13 1/54/13
f 26/1/14 27/4/14 51/4/14 50/1/14
f 21/55/12 46/56/12 48/52/12 23/51/12
f 48/52/11 46/56/11 56/56/11 58/52/11
f 19/57/10 44/58/10 46/56/10 21/55/10
f 44/58/10 43/20/10 45/22/10 46/56/10
f 17/59/9 42/60/9 44/58/9 19/57/9
f 42/60/9 41/18/9 43/20/9 44/58/9
f 15/61/8 40/62/8 42/60/8 17/59/8
f 40/62/8 39/16/8 41/18/8 42/60/8
f 13/63/7 38/64/7 40/62/7 15/61/7
f 38/64/7 37/14/7 39/16/7 40/62/7
f 11/65/6 36/66/6 38/64/6 13/63/6
f 36/66/6 35/12/6 37/14/6 38/64/6
f 9/67/5 34/68/5 36/66/5 11/65/5
f 34/68/5 33/10/5 35/12/5 36/66/5
f 7/69/4 32/70/4 34/68/4 9/67/4
f 32/70/4 31/8/4 33/10/4 34/68/4
f 5/71/3 30/72/3 32/70/3 7/69/3
f 30/72/3 29/6/3 31/8/3 32/70/3
f 3/73/2 28/74/2 30/72/2 5/71/2
f 28/74/11 25/75/11 49/75/11 52/74/11
f 1/76/1 25/75/1 28/74/1 3/73/1
f 29/6/15 30/72/15 54/72/15 53/6/15
f 58/52/16 57/36/16 50/38/16 49/53/16
f 56/56/17 55/22/17 57/36/17 58/52/17
f 52/74/18 51/4/18 53/6/18 54/72/18
f 49/75/19 50/1/19 51/4/19 52/74/19
f 45/22/14 47/36/14 57/36/14 55/22/14
f 30/72/11 28/74/11 52/74/11 54/72/11
f 25/53/11 48/52/11 58/52/11 49/53/11
f 46/56/20 45/22/20 55/22/20 56/56/20
f 27/4/14 29/6/14 53/6/14 51/4/14
f 47/36/14 26/38/14 50/38/14 57/36/14
