# Blender 4.0.1
# www.blender.org
mtllib toilet.mtl
o Cylinder
v 0.000000 -1.509996 -1.000000
v -0.000000 0.329100 -0.448154
v 0.500000 -1.509996 -0.866025
v 0.097355 0.329100 -0.422067
v 0.866025 -1.509996 -0.500000
v 0.119339 0.329100 -0.400084
v 1.000000 -1.509996 0.000000
v 0.211977 0.329100 0.536232
v 0.866025 -1.509996 0.500000
v 0.168624 0.329100 0.698026
v 0.500000 -1.509996 0.866025
v 0.097355 0.329100 0.769295
v 0.000000 -1.509996 1.000000
v -0.000000 0.329100 0.795381
v -0.500000 -1.509996 0.866025
v -0.097355 0.329100 0.769295
v -0.866025 -1.509996 0.500000
v -0.168624 0.329100 0.698026
v -1.000000 -1.509996 0.000000
v -0.211977 0.329100 0.536232
v -0.866025 -1.509996 -0.500000
v -0.119339 0.329100 -0.400084
v -0.500000 -1.509996 -0.866025
v -0.097355 0.329100 -0.422068
v 0.000000 -0.633039 -0.854250
v 0.427125 -0.633039 -0.739802
v 0.739802 -0.633039 -0.427125
v 0.854250 -0.633039 0.000000
v 0.739802 -0.633039 0.427125
v 0.427125 -0.633039 0.739802
v 0.000000 -0.633039 0.854250
v -0.427125 -0.633039 0.739802
v -0.739802 -0.633039 0.427125
v -0.854250 -0.633039 0.000000
v -0.739802 -0.633039 -0.427125
v -0.427125 -0.633039 -0.739802
v 0.000000 0.146595 -0.883148
v 0.500000 0.146595 -0.866025
v 0.866025 0.146595 -0.500000
v 1.000000 0.146595 0.854114
v 0.866025 0.146595 1.354114
v 0.500000 0.146595 1.720139
v 0.000000 0.146595 1.854114
v -0.500000 0.146595 1.720139
v -0.866025 0.146595 1.354114
v -1.000000 0.146595 0.854114
v -0.866025 0.146595 -0.500000
v -0.500000 0.146595 -0.866025
v 0.500000 0.864048 -0.866025
v 0.000000 0.864048 -0.883148
v 0.866025 0.864048 -0.500000
v 1.000000 0.864048 0.854114
v 0.866025 0.864048 1.354114
v 0.500000 0.864048 1.720139
v 0.000000 0.864048 1.854114
v -0.500000 0.864048 1.720139
v -0.866025 0.864048 1.354114
v -1.000000 0.864048 0.854114
v -0.866025 0.864048 -0.500000
v -0.500000 0.864048 -0.866025
v 0.434284 0.864048 -0.752201
v 0.000000 0.864048 -0.751715
v 0.744157 0.864048 -0.442328
v 0.871385 0.864048 0.843597
v 0.752201 0.864048 1.288397
v 0.434284 0.864048 1.606315
v 0.000000 0.864048 1.722681
v -0.434284 0.864048 1.606315
v -0.752201 0.864048 1.288397
v -0.871385 0.864048 0.843597
v -0.744157 0.864048 -0.442328
v -0.434284 0.864048 -0.752201
v 0.351947 0.721359 -0.609590
v 0.000000 0.721359 -0.703893
v 0.591467 0.721359 -0.370069
v 0.710242 0.721359 0.830419
v 0.609590 0.721359 1.206060
v 0.351947 0.721359 1.463703
v -0.000000 0.721359 1.558007
v -0.351947 0.721359 1.463703
v -0.609590 0.721359 1.206060
v -0.710242 0.721359 0.830419
v -0.591467 0.721359 -0.370069
v -0.351947 0.721359 -0.609590
v 0.196609 0.516714 -0.493676
v -0.000000 0.516714 -0.546358
v 0.303401 0.516714 -0.386885
v 0.406229 0.516714 0.652421
v 0.340537 0.516714 0.897584
v 0.196609 0.516714 1.041512
v -0.000000 0.516714 1.094193
v -0.196609 0.516714 1.041512
v -0.340537 0.516714 0.897584
v -0.406229 0.516714 0.652421
v -0.303401 0.516714 -0.386885
v -0.196609 0.516714 -0.493676
v -0.678733 0.003287 -0.568013
v -0.678733 0.289835 -0.378246
v -0.868500 0.289835 -1.053154
v -0.723688 2.155024 -0.837332
v -0.723688 2.271909 -1.039668
v -0.926025 2.155024 -1.039668
v -0.678733 0.003287 -1.460369
v -0.868500 0.289835 -1.460369
v -0.678733 0.289835 -1.650137
v -0.723688 2.271909 -1.473855
v -0.723688 2.155024 -1.676191
v -0.926025 2.155024 -1.473855
v 0.678733 0.003287 -0.568013
v 0.868500 0.289835 -1.053154
v 0.678733 0.289835 -0.378246
v 0.723688 2.271909 -1.039668
v 0.723688 2.155024 -0.837332
v 0.926025 2.155024 -1.039668
v 0.678733 0.003287 -1.460369
v 0.678733 0.289835 -1.650137
v 0.868500 0.289835 -1.460369
v 0.723688 2.271909 -1.473855
v 0.926025 2.155024 -1.473855
v 0.723688 2.155024 -1.676191
v -0.678733 2.062718 -0.863387
v -0.868500 2.062718 -1.053154
v -0.678733 2.062718 -1.650137
v -0.868500 2.062718 -1.460369
v 0.868500 2.062718 -1.460369
v 0.678733 2.062718 -1.650137
v 0.678733 2.062718 -0.863387
v 0.868500 2.062718 -1.053154
v -0.868500 0.321820 -1.053154
v -0.678733 0.321820 -1.650137
v 0.868500 0.321820 -1.460369
v 0.678733 0.321820 -0.863387
v -0.678733 0.321820 -0.863387
v -0.868500 0.321820 -1.460369
v 0.678733 0.321820 -1.650137
v 0.868500 0.321820 -1.053154
vn 0.0342 -0.0000 -0.9994
vn 0.7071 -0.0000 -0.7071
vn 0.9951 -0.0000 -0.0985
vn 0.9659 -0.0000 0.2588
vn 0.7071 -0.0000 0.7071
vn 0.2588 -0.0000 0.9659
vn -0.2588 -0.0000 0.9659
vn -0.7071 -0.0000 0.7071
vn -0.9659 -0.0000 0.2588
vn -0.9951 -0.0000 -0.0985
vn -0.0000 1.0000 -0.0000
vn -0.7071 -0.0000 -0.7071
vn -0.0342 -0.0000 -0.9994
vn -0.0000 -1.0000 -0.0000
vn -0.2555 0.1585 -0.9537
vn -0.6982 0.1585 -0.6982
vn -0.9537 0.1585 -0.2555
vn -0.9537 0.1585 0.2555
vn -0.6982 0.1585 0.6982
vn -0.2555 0.1585 0.9537
vn 0.2555 0.1585 0.9537
vn 0.6982 0.1585 0.6982
vn 0.9537 0.1585 0.2555
vn 0.9537 0.1585 -0.2555
vn 0.6982 0.1585 -0.6982
vn 0.2555 0.1585 -0.9537
vn -0.1397 -0.1045 -0.9847
vn -0.6959 -0.1777 -0.6959
vn -0.9851 -0.1030 -0.1374
vn -0.8762 -0.4210 0.2348
vn -0.5113 -0.6907 0.5113
vn -0.1626 -0.7781 0.6067
vn 0.1626 -0.7781 0.6067
vn 0.5113 -0.6907 0.5113
vn 0.8762 -0.4210 0.2348
vn 0.9851 -0.1030 -0.1374
vn 0.6959 -0.1777 -0.6959
vn 0.1397 -0.1045 -0.9847
vn -0.0972 0.5717 0.8147
vn -0.4722 0.7444 0.4722
vn -0.6645 0.7444 0.0657
vn -0.6450 0.7444 -0.1728
vn -0.4722 0.7444 -0.4722
vn -0.1728 0.7444 -0.6450
vn 0.1728 0.7444 -0.6450
vn 0.4722 0.7444 -0.4722
vn 0.6450 0.7444 -0.1728
vn 0.6645 0.7444 0.0657
vn 0.4722 0.7444 0.4722
vn 0.0972 0.5717 0.8147
vn -0.2077 0.5967 0.7751
vn -0.5159 0.6838 0.5159
vn -0.5804 0.8123 0.0574
vn -0.4984 0.8566 -0.1336
vn -0.3168 0.8940 -0.3168
vn -0.1075 0.9096 -0.4013
vn 0.1075 0.9096 -0.4013
vn 0.3168 0.8940 -0.3168
vn 0.4984 0.8566 -0.1336
vn 0.5804 0.8123 0.0574
vn 0.5159 0.6838 0.5159
vn 0.2077 0.5967 0.7751
vn -0.2310 0.4512 0.8620
vn -0.5945 0.5414 0.5945
vn -0.7145 0.6960 0.0707
vn -0.6306 0.7575 -0.1690
vn -0.4110 0.8137 -0.4110
vn -0.1411 0.8384 -0.5264
vn 0.1411 0.8384 -0.5264
vn 0.4110 0.8137 -0.4110
vn 0.6306 0.7575 -0.1690
vn 0.7145 0.6960 0.0707
vn 0.5945 0.5414 0.5945
vn 0.2310 0.4512 0.8620
vn -0.0000 -0.2717 0.9624
vn 0.8487 -0.5289 -0.0000
vn -0.8487 -0.5289 -0.0000
vn -0.0000 -0.2717 -0.9624
vn -0.9476 -0.1764 0.2664
vn -0.4474 0.7744 0.4474
vn -0.6404 -0.4241 -0.6404
vn -0.4474 0.7744 -0.4474
vn 0.9476 -0.1764 0.2664
vn 0.4474 0.7744 0.4474
vn 0.6404 -0.4241 -0.6404
vn 0.4474 0.7744 -0.4474
vn -0.8337 -0.5522 -0.0000
vn -0.6212 -0.4778 0.6212
vn -0.5002 0.8659 -0.0000
vn -0.0000 -0.5522 -0.8337
vn -0.0000 0.8659 -0.5002
vn 0.8337 -0.5522 -0.0000
vn 0.5002 0.8659 -0.0000
vn 0.2854 0.9502 0.1253
vn -0.0000 -0.5522 0.8337
vn -0.0000 0.8659 0.5002
vn 0.6212 -0.4778 0.6212
vn 0.6212 -0.4778 -0.6212
vn -0.6212 -0.4778 -0.6212
vn -0.0000 -0.0000 -1.0000
vn -1.0000 -0.0000 -0.0000
vn 1.0000 -0.0000 -0.0000
vn -0.0000 -0.0000 1.0000
vn -0.0000 0.9978 0.0658
vn -0.2854 0.9502 0.1253
vt 0.927416 0.512778
vt 0.928809 0.512778
vt 0.928809 0.513292
vt 0.927416 0.513292
vt 0.928809 0.513806
vt 0.927416 0.513806
vt 0.928809 0.514321
vt 0.927416 0.514321
vt 0.928809 0.514835
vt 0.927416 0.514835
vt 0.928809 0.515350
vt 0.927416 0.515350
vt 0.928809 0.515864
vt 0.927416 0.515864
vt 0.928809 0.516379
vt 0.927416 0.516379
vt 0.928809 0.516893
vt 0.927416 0.516893
vt 0.928809 0.517408
vt 0.927416 0.517408
vt 0.928809 0.517922
vt 0.927416 0.517922
vt 0.760242 0.513186
vt 0.759930 0.513628
vt 0.759487 0.513941
vt 0.759349 0.513973
vt 0.756827 0.512169
vt 0.756552 0.511558
vt 0.756614 0.511068
vt 0.756910 0.510609
vt 0.757369 0.510313
vt 0.757859 0.510250
vt 0.758471 0.510525
vt 0.760274 0.513048
vt 0.928809 0.518437
vt 0.927416 0.518437
vt 0.928809 0.518951
vt 0.927416 0.518951
vt 0.932061 0.521154
vt 0.932726 0.521537
vt 0.933493 0.521537
vt 0.934157 0.521154
vt 0.934540 0.520489
vt 0.934540 0.519722
vt 0.934157 0.519058
vt 0.933493 0.518675
vt 0.932726 0.518675
vt 0.932061 0.519058
vt 0.931678 0.519722
vt 0.931678 0.520489
vt 0.925722 0.518437
vt 0.926619 0.518437
vt 0.926619 0.518951
vt 0.925722 0.518951
vt 0.925722 0.517922
vt 0.926619 0.517922
vt 0.925722 0.517408
vt 0.926619 0.517408
vt 0.925722 0.516893
vt 0.926619 0.516893
vt 0.925722 0.516379
vt 0.926619 0.516379
vt 0.925722 0.515864
vt 0.926619 0.515864
vt 0.925722 0.515350
vt 0.926619 0.515350
vt 0.925722 0.514835
vt 0.926619 0.514835
vt 0.925722 0.514321
vt 0.926619 0.514321
vt 0.925722 0.513806
vt 0.926619 0.513806
vt 0.925722 0.513292
vt 0.926619 0.513292
vt 0.925722 0.512778
vt 0.926619 0.512778
vt 0.931185 0.521047
vt 0.931520 0.520472
vt 0.931675 0.520489
vt 0.931291 0.521154
vt 0.931552 0.519855
vt 0.931675 0.519722
vt 0.931104 0.519141
vt 0.931291 0.519058
vt 0.930552 0.518838
vt 0.930627 0.518675
vt 0.929889 0.518842
vt 0.929860 0.518675
vt 0.929313 0.519176
vt 0.929196 0.519058
vt 0.928979 0.519752
vt 0.928812 0.519722
vt 0.928975 0.520414
vt 0.928812 0.520489
vt 0.929278 0.520967
vt 0.929196 0.521154
vt 0.929992 0.521414
vt 0.929860 0.521537
vt 0.930610 0.521382
vt 0.930627 0.521537
vt 0.931055 0.520918
vt 0.931333 0.520458
vt 0.931383 0.520006
vt 0.930888 0.519262
vt 0.930452 0.519037
vt 0.929923 0.519048
vt 0.929458 0.519321
vt 0.929186 0.519786
vt 0.929174 0.520314
vt 0.929399 0.520750
vt 0.930143 0.521245
vt 0.930596 0.521196
vt 0.930829 0.520691
vt 0.930994 0.520444
vt 0.931030 0.520257
vt 0.930519 0.519530
vt 0.930258 0.519407
vt 0.929978 0.519428
vt 0.929722 0.519585
vt 0.929566 0.519840
vt 0.929544 0.520120
vt 0.929667 0.520381
vt 0.930395 0.520893
vt 0.930582 0.520856
vt 0.930696 0.520559
vt 0.930781 0.520439
vt 0.930790 0.520402
vt 0.930302 0.519720
vt 0.930137 0.519646
vt 0.930004 0.519663
vt 0.929880 0.519743
vt 0.929800 0.519867
vt 0.929784 0.519999
vt 0.929858 0.520164
vt 0.930539 0.520652
vt 0.930577 0.520643
vt 0.931974 0.517090
vt 0.932027 0.517063
vt 0.932570 0.518140
vt 0.932517 0.518167
vt 0.931370 0.515893
vt 0.931424 0.515867
vt 0.931784 0.516580
vt 0.931730 0.516607
vt 0.931736 0.515709
vt 0.932814 0.515166
vt 0.933173 0.515879
vt 0.932096 0.516422
vt 0.929981 0.513137
vt 0.930034 0.513110
vt 0.930394 0.513823
vt 0.930341 0.513850
vt 0.930584 0.514333
vt 0.930638 0.514306
vt 0.931180 0.515383
vt 0.931127 0.515410
vt 0.929339 0.517812
vt 0.929507 0.518144
vt 0.929189 0.517888
vt 0.929867 0.512778
vt 0.930196 0.513028
vt 0.928980 0.517099
vt 0.928829 0.517174
vt 0.928812 0.516766
vt 0.925903 0.518954
vt 0.925722 0.519327
vt 0.925722 0.518954
vt 0.930417 0.517269
vt 0.930567 0.517193
vt 0.930584 0.517601
vt 0.932189 0.516981
vt 0.931951 0.516912
vt 0.930057 0.516556
vt 0.929889 0.516223
vt 0.930208 0.516480
vt 0.931342 0.515302
vt 0.931256 0.515534
vt 0.929813 0.512804
vt 0.930556 0.513742
vt 0.929601 0.514829
vt 0.929583 0.514838
vt 0.929339 0.514355
vt 0.929358 0.514346
vt 0.930799 0.514225
vt 0.930387 0.516389
vt 0.930369 0.516398
vt 0.930126 0.515915
vt 0.930144 0.515906
vt 0.930729 0.517112
vt 0.930990 0.517585
vt 0.930972 0.517595
vt 0.930747 0.517102
vt 0.932732 0.518058
vt 0.928830 0.513300
vt 0.928998 0.513632
vt 0.931533 0.518663
vt 0.931515 0.518672
vt 0.928980 0.513642
vt 0.928812 0.513309
s 0
usemtl Material.001
f 37/1/1 50/2/1 49/3/1 38/4/1
f 38/4/2 49/3/2 51/5/2 39/6/2
f 39/6/3 51/5/3 52/7/3 40/8/3
f 40/8/4 52/7/4 53/9/4 41/10/4
f 41/10/5 53/9/5 54/11/5 42/12/5
f 42/12/6 54/11/6 55/13/6 43/14/6
f 43/14/7 55/13/7 56/15/7 44/16/7
f 44/16/8 56/15/8 57/17/8 45/18/8
f 45/18/9 57/17/9 58/19/9 46/20/9
f 46/20/10 58/19/10 59/21/10 47/22/10
f 4/23/11 2/24/11 24/25/11 22/26/11 20/27/11 18/28/11 16/29/11 14/30/11 12/31/11 10/32/11 8/33/11 6/34/11
f 47/22/12 59/21/12 60/35/12 48/36/12
f 48/36/13 60/35/13 50/37/13 37/38/13
f 1/39/14 3/40/14 5/41/14 7/42/14 9/43/14 11/44/14 13/45/14 15/46/14 17/47/14 19/48/14 21/49/14 23/50/14
f 23/51/15 36/52/15 25/53/15 1/54/15
f 21/55/16 35/56/16 36/52/16 23/51/16
f 19/57/17 34/58/17 35/56/17 21/55/17
f 17/59/18 33/60/18 34/58/18 19/57/18
f 15/61/19 32/62/19 33/60/19 17/59/19
f 13/63/20 31/64/20 32/62/20 15/61/20
f 11/65/21 30/66/21 31/64/21 13/63/21
f 9/67/22 29/68/22 30/66/22 11/65/22
f 7/69/23 28/70/23 29/68/23 9/67/23
f 5/71/24 27/72/24 28/70/24 7/69/24
f 3/73/25 26/74/25 27/72/25 5/71/25
f 1/75/26 25/76/26 26/74/26 3/73/26
f 36/52/27 48/36/27 37/38/27 25/53/27
f 35/56/28 47/22/28 48/36/28 36/52/28
f 34/58/29 46/20/29 47/22/29 35/56/29
f 33/60/30 45/18/30 46/20/30 34/58/30
f 32/62/31 44/16/31 45/18/31 33/60/31
f 31/64/32 43/14/32 44/16/32 32/62/32
f 30/66/33 42/12/33 43/14/33 31/64/33
f 29/68/34 41/10/34 42/12/34 30/66/34
f 28/70/35 40/8/35 41/10/35 29/68/35
f 27/72/36 39/6/36 40/8/36 28/70/36
f 26/74/37 38/4/37 39/6/37 27/72/37
f 25/76/38 37/1/38 38/4/38 26/74/38
f 62/77/11 61/78/11 49/79/11 50/80/11
f 61/78/11 63/81/11 51/82/11 49/79/11
f 63/81/11 64/83/11 52/84/11 51/82/11
f 64/83/11 65/85/11 53/86/11 52/84/11
f 65/85/11 66/87/11 54/88/11 53/86/11
f 66/87/11 67/89/11 55/90/11 54/88/11
f 67/89/11 68/91/11 56/92/11 55/90/11
f 68/91/11 69/93/11 57/94/11 56/92/11
f 69/93/11 70/95/11 58/96/11 57/94/11
f 70/95/11 71/97/11 59/98/11 58/96/11
f 71/97/11 72/99/11 60/100/11 59/98/11
f 72/99/11 62/77/11 50/80/11 60/100/11
f 74/101/39 73/102/39 61/78/39 62/77/39
f 73/102/40 75/103/40 63/81/40 61/78/40
f 75/103/41 76/104/41 64/83/41 63/81/41
f 76/104/42 77/105/42 65/85/42 64/83/42
f 77/105/43 78/106/43 66/87/43 65/85/43
f 78/106/44 79/107/44 67/89/44 66/87/44
f 79/107/45 80/108/45 68/91/45 67/89/45
f 80/108/46 81/109/46 69/93/46 68/91/46
f 81/109/47 82/110/47 70/95/47 69/93/47
f 82/110/48 83/111/48 71/97/48 70/95/48
f 83/111/49 84/112/49 72/99/49 71/97/49
f 84/112/50 74/101/50 62/77/50 72/99/50
f 86/113/51 85/114/51 73/102/51 74/101/51
f 85/114/52 87/115/52 75/103/52 73/102/52
f 87/115/53 88/116/53 76/104/53 75/103/53
f 88/116/54 89/117/54 77/105/54 76/104/54
f 89/117/55 90/118/55 78/106/55 77/105/55
f 90/118/56 91/119/56 79/107/56 78/106/56
f 91/119/57 92/120/57 80/108/57 79/107/57
f 92/120/58 93/121/58 81/109/58 80/108/58
f 93/121/59 94/122/59 82/110/59 81/109/59
f 94/122/60 95/123/60 83/111/60 82/110/60
f 95/123/61 96/124/61 84/112/61 83/111/61
f 96/124/62 86/113/62 74/101/62 84/112/62
f 2/125/63 4/126/63 85/114/63 86/113/63
f 4/126/64 6/127/64 87/115/64 85/114/64
f 6/127/65 8/128/65 88/116/65 87/115/65
f 8/128/66 10/129/66 89/117/66 88/116/66
f 10/129/67 12/130/67 90/118/67 89/117/67
f 12/130/68 14/131/68 91/119/68 90/118/68
f 14/131/69 16/132/69 92/120/69 91/119/69
f 16/132/70 18/133/70 93/121/70 92/120/70
f 18/133/71 20/134/71 94/122/71 93/121/71
f 20/134/72 22/135/72 95/123/72 94/122/72
f 22/135/73 24/136/73 96/124/73 95/123/73
f 24/136/74 2/125/74 86/113/74 96/124/74
f 127/137/75 113/138/75 100/139/75 121/140/75
f 125/141/76 119/142/76 114/143/76 128/144/76
f 118/145/11 106/146/11 101/147/11 112/148/11
f 122/149/77 102/150/77 108/151/77 124/152/77
f 123/153/78 107/154/78 120/155/78 126/156/78
f 97/157/79 98/158/79 99/159/79
f 100/160/80 101/161/80 102/150/80
f 103/162/81 104/163/81 105/164/81
f 106/165/82 107/166/82 108/167/82
f 109/168/83 110/169/83 111/170/83
f 112/171/84 113/138/84 114/172/84
f 115/173/85 116/174/85 117/175/85
f 118/176/86 119/177/86 120/155/86
f 103/162/87 97/157/87 99/159/87 104/163/87
f 121/178/88 100/160/88 102/150/88 122/149/88
f 101/161/89 106/179/89 108/151/89 102/150/89
f 130/180/12 105/181/12 104/182/12 134/183/12
f 115/173/90 103/162/90 105/164/90 116/174/90
f 106/184/91 118/176/91 120/155/91 107/154/91
f 131/185/2 117/186/2 116/187/2 135/188/2
f 109/168/92 115/173/92 117/186/92 110/189/92
f 118/145/93 112/148/93 114/143/93 119/142/93
f 132/190/94 111/191/94 110/189/94 136/192/94
f 97/157/95 109/168/95 111/170/95 98/158/95
f 112/171/96 101/193/96 100/139/96 113/138/96
f 103/162/14 115/173/14 109/168/14 97/157/14
f 113/138/97 127/137/97 128/144/97 114/143/97
f 119/142/98 125/141/98 126/156/98 120/155/98
f 107/154/99 123/153/99 124/152/99 108/151/99
f 133/194/8 121/178/8 122/149/8 129/195/8
f 130/180/100 123/153/100 126/156/100 135/188/100
f 129/195/101 122/149/101 124/152/101 134/183/101
f 131/185/102 125/141/102 128/144/102 136/192/102
f 132/190/103 127/137/103 121/140/103 133/196/103
f 111/191/104 132/190/104 133/196/104 98/197/104
f 117/186/102 131/185/102 136/192/102 110/189/102
f 99/198/101 129/195/101 134/183/101 104/182/101
f 105/181/100 130/180/100 135/188/100 116/187/100
f 98/199/105 133/194/105 129/195/105 99/198/105
f 127/137/5 132/190/5 136/192/5 128/144/5
f 125/141/2 131/185/2 135/188/2 126/156/2
f 123/153/12 130/180/12 134/183/12 124/152/12
o Cube
v 0.966659 1.842662 -1.148643
v 0.966659 1.834888 -1.161941
v 0.979957 1.834888 -1.148643
v 0.966659 1.890064 -1.148643
v 0.979957 1.897838 -1.148643
v 0.966659 1.897838 -1.161941
v 0.979957 1.842662 -1.269623
v 0.966659 1.834888 -1.269623
v 0.979957 1.890064 -1.269623
v 0.966659 1.897838 -1.269623
v 1.024060 1.890064 -1.269623
v 1.024060 1.897838 -1.256325
v 1.037359 1.890064 -1.256325
v 1.024060 1.842662 -1.269623
v 1.037359 1.842662 -1.256325
v 1.024060 1.834888 -1.256325
v 1.024060 1.834888 -1.175239
v 1.037359 1.842662 -1.161941
v 1.024060 1.834888 -1.148643
v 1.024060 1.897838 -1.175239
v 1.024060 1.897838 -1.148643
v 1.037359 1.890064 -1.161941
v 0.966659 1.890064 -0.936099
v 0.979957 1.890064 -0.922801
v 0.979957 1.897838 -0.936099
v 0.966659 1.842662 -0.936099
v 0.979957 1.834888 -0.936099
v 0.979957 1.842662 -0.922801
v 1.037359 1.890064 -0.936099
v 1.024060 1.897838 -0.936099
v 1.024060 1.890064 -0.922801
v 1.037359 1.842662 -0.936099
v 1.024060 1.842662 -0.922801
v 1.024060 1.834888 -0.936099
v 0.822732 1.824294 -1.158329
v 0.822732 1.832777 -1.143819
v 0.822732 1.899950 -1.143819
v 0.822732 1.908433 -1.158329
v 0.822732 1.832777 -1.287746
v 0.822732 1.824294 -1.273235
v 0.822732 1.908433 -1.273235
v 0.822732 1.899950 -1.287746
v 0.966659 1.899950 -1.287746
v 0.966659 1.908433 -1.273235
v 0.966659 1.902434 -1.277485
v 0.966659 1.824294 -1.273235
v 0.966659 1.832777 -1.287746
v 0.966659 1.830292 -1.277485
v 0.966659 1.832777 -1.143819
v 0.966659 1.824294 -1.158329
v 0.966659 1.830292 -1.154079
v 0.966659 1.908433 -1.158329
v 0.966659 1.899950 -1.143819
v 0.966659 1.902434 -1.154079
vn -0.0000 -0.0000 1.0000
vn 1.0000 -0.0000 -0.0000
vn -0.0000 1.0000 -0.0000
vn -1.0000 -0.0000 -0.0000
vn -0.0000 -0.0000 -1.0000
vn -0.0000 -1.0000 -0.0000
vn -0.4506 -0.7707 0.4506
vn -0.4506 0.7707 0.4506
vn 0.4506 0.7707 -0.4506
vn 0.4506 -0.7707 -0.4506
vn 0.5047 -0.8633 -0.0000
vn 0.5047 0.8633 -0.0000
vn 0.4506 0.7707 0.4506
vn 0.4506 -0.7707 0.4506
vn 0.7071 -0.0000 -0.7071
vn 0.0937 -0.6922 -0.7156
vn 0.0937 0.6922 -0.7156
vn -0.7071 -0.0000 0.7071
vn 0.7071 -0.0000 0.7071
vn -0.0000 -0.8633 0.5047
vn -0.0000 0.8633 0.5047
vn -0.5047 -0.8633 -0.0000
vn -0.5047 0.8633 -0.0000
vn -0.0000 -0.8633 -0.5047
vn -0.0000 0.8633 -0.5047
vt 0.866215 0.466588
vt 0.866215 0.584987
vt 0.866179 0.584987
vt 0.866179 0.466588
vt 0.866246 0.581266
vt 0.866246 0.470309
vt 0.866248 0.462208
vt 0.866251 0.466588
vt 0.866251 0.584987
vt 0.866248 0.589367
vt 0.866219 0.581266
vt 0.866223 0.581266
vt 0.866243 0.581266
vt 0.866247 0.599939
vt 0.866247 0.748242
vt 0.866218 0.748242
vt 0.866218 0.599939
vt 0.866320 0.451636
vt 0.866323 0.466588
vt 0.866323 0.584987
vt 0.866320 0.599939
vt 0.866291 0.599939
vt 0.866287 0.584987
vt 0.866287 0.466588
vt 0.866291 0.451636
vt 0.866243 0.484012
vt 0.866243 0.567563
vt 0.866219 0.567563
vt 0.866219 0.484012
vt 0.866219 0.470309
vt 0.866246 0.484012
vt 0.866246 0.567563
vt 0.866217 0.589367
vt 0.866217 0.462208
vt 0.866219 0.567563
vt 0.866219 0.581266
vt 0.866219 0.451636
vt 0.866247 0.451636
vt 0.866248 0.462208
vt 0.866243 0.470309
vt 0.866223 0.470309
vt 0.866249 0.592463
vt 0.866249 0.459112
vt 0.866217 0.459112
vt 0.866217 0.592463
vt 0.866247 0.303333
vt 0.866251 0.303333
vt 0.866251 0.451636
vt 0.866287 0.599939
vt 0.866251 0.599939
vt 0.866219 0.303333
vt 0.866215 0.451636
vt 0.866215 0.303333
vt 0.866215 0.599939
vt 0.866179 0.599939
s 0
usemtl Material.002
f 185/200/106 189/201/106 173/202/106 172/203/106
f 146/204/107 144/205/107 184/206/107 183/207/107 179/208/107 181/209/107
f 146/204/108 142/210/108 156/211/108 148/212/108
f 180/213/108 177/214/108 174/215/108 188/216/108
f 171/217/109 172/218/109 173/219/109 174/220/109 177/221/109 178/222/109 175/223/109 176/224/109
f 175/223/110 178/222/110 179/208/110 183/207/110
f 151/225/107 149/226/107 158/227/107 154/228/107
f 139/229/111 155/229/111 170/229/111 163/229/111
f 143/230/110 145/231/110 147/231/110 150/230/110
f 138/229/107 142/210/107 190/232/107 189/201/107 185/200/107 187/233/107
f 154/228/107 158/227/107 165/234/107 168/228/107
f 157/235/108 141/235/108 161/210/108 166/210/108
f 142/210/107 146/204/107 181/209/107 180/213/107 188/216/107 190/232/107
f 140/227/109 137/228/109 162/228/109 159/234/109
f 144/205/107 138/229/107 187/233/107 186/236/107 182/237/107 184/238/107
f 160/234/106 164/228/106 169/228/106 167/227/106
f 137/228/112 138/229/112 139/229/112
f 140/227/113 141/235/113 142/210/113
f 147/231/114 148/212/114 149/226/114
f 150/230/115 151/225/115 152/239/115
f 153/240/116 154/228/116 155/229/116
f 156/211/117 157/235/117 158/227/117
f 159/234/113 160/234/113 161/210/113
f 162/228/112 163/229/112 164/228/112
f 165/234/118 166/210/118 167/227/118
f 168/228/119 169/228/119 170/229/119
f 145/231/110 143/230/110 144/205/110 146/204/110
f 142/210/109 138/229/109 137/228/109 140/227/109
f 149/226/120 151/225/120 150/230/120 147/231/120
f 153/240/116 152/239/116 151/225/116 154/228/116
f 148/212/117 156/211/117 158/227/117 149/226/117
f 138/229/111 153/240/111 155/229/111 139/229/111
f 156/211/108 142/210/108 141/235/108 157/235/108
f 143/230/121 150/230/121 152/239/121 144/205/121
f 147/231/122 145/231/122 146/204/122 148/212/122
f 159/234/123 162/228/123 164/228/123 160/234/123
f 167/227/124 169/228/124 168/228/124 165/234/124
f 163/229/125 170/229/125 169/228/125 164/228/125
f 166/210/126 161/210/126 160/234/126 167/227/126
f 139/229/127 163/229/127 162/228/127 137/228/127
f 161/210/128 141/235/128 140/227/128 159/234/128
f 154/228/116 168/228/116 170/229/116 155/229/116
f 165/234/117 158/227/117 157/235/117 166/210/117
f 138/229/111 144/205/111 152/239/111 153/240/111
f 179/208/107 180/241/107 181/209/107
f 182/237/107 183/242/107 184/238/107
f 185/243/107 186/236/107 187/233/107
f 188/244/107 189/201/107 190/232/107
f 182/237/129 176/245/129 175/246/129 183/247/129
f 177/248/130 180/249/130 179/208/130 178/222/130
f 171/250/125 186/236/125 185/251/125 172/252/125
f 188/253/126 174/254/126 173/202/126 189/201/126
f 176/245/111 182/237/111 186/236/111 171/250/111
