# Blender 4.0.1
# www.blender.org
mtllib Wall_With_Hole.mtl
o Cube.001
v 1.000000 -1.000000 2.000000
v 1.000000 1.200000 2.000000
v 1.000000 -1.000000 -1.000000
v 1.000000 1.200000 -1.000000
v 1.000000 -0.069655 0.737216
v 1.000000 0.718262 0.737216
v 1.000000 -0.069655 0.262784
v 1.000000 0.718262 0.262784
v 0.800000 -0.069655 0.737216
v 0.800000 0.718262 0.737216
v 0.800000 -0.069655 0.262784
v 0.800000 0.718262 0.262784
v 0.700000 -1.000000 2.000000
v 0.700000 1.200000 2.000000
v 0.700000 -1.000000 -1.000000
v 0.700000 1.200000 -1.000000
vn -0.0000 -0.0000 -1.0000
vn -0.0000 1.0000 -0.0000
vn -0.0000 -1.0000 -0.0000
vn -0.0000 -0.0000 1.0000
vn 1.0000 -0.0000 -0.0000
vn -1.0000 -0.0000 -0.0000
vt 0.375000 0.750000
vt 0.625000 0.750000
vt 0.375000 0.500000
vt 0.625000 0.500000
vt 0.000000 0.000000
s 0
f 5/1/1 9/1/1 10/2/1 6/2/1
f 7/3/2 11/3/2 9/1/2 5/1/2
f 6/2/3 10/2/3 12/4/3 8/4/3
f 8/4/4 12/4/4 11/3/4 7/3/4
f 11/3/5 12/4/5 10/2/5 9/1/5
f 3/5/5 4/5/5 8/4/5 7/3/5
f 3/5/5 7/3/5 5/1/5 1/5/5
f 1/5/5 5/1/5 6/2/5 2/5/5
f 2/5/5 6/2/5 8/4/5 4/5/5
f 3/5/1 15/5/1 16/5/1 4/5/1
f 2/5/2 4/5/2 16/5/2 14/5/2
f 1/5/4 2/5/4 14/5/4 13/5/4
f 3/5/3 1/5/3 13/5/3 15/5/3
f 15/5/6 13/5/6 14/5/6 16/5/6
