# Blender 4.0.1
# www.blender.org
mtllib wall behind poster.mtl
o Cube.002
v -3.000000 -2.000000 -0.017204
v -3.000000 2.000000 -0.017204
v -3.000000 -2.000000 -0.612723
v -0.625439 -0.599974 -0.485323
v -3.000000 2.000000 -0.612723
v -0.625439 0.988047 -0.485323
v 3.000000 -2.000000 -0.017204
v 3.000000 2.000000 -0.017204
v 3.000000 -2.000000 -0.612723
v 0.625439 -0.599974 -0.485323
v 3.000000 2.000000 -0.612723
v 0.625439 0.988047 -0.485323
v -0.625439 0.988047 -0.017204
v 0.625439 0.988047 -0.017204
v -0.625439 -0.599974 -0.017204
v 0.625439 -0.599974 -0.017204
vn -1.0000 -0.0000 -0.0000
vn -0.0000 -0.0000 -1.0000
vn 1.0000 -0.0000 -0.0000
vn -0.0000 -0.0000 1.0000
vn -0.0000 -1.0000 -0.0000
vn -0.0000 1.0000 -0.0000
vt 0.375000 0.000000
vt 0.625000 0.000000
vt 0.625000 0.250000
vt 0.375000 0.250000
vt 0.625000 0.500000
vt 0.375000 0.500000
vt 0.625000 0.750000
vt 0.375000 0.750000
vt 0.561753 0.901060
vt 0.625000 1.000000
vt 0.375000 1.000000
vt 0.561753 0.848940
vt 0.462502 0.848940
vt 0.462502 0.901060
vt 0.125000 0.500000
vt 0.125000 0.750000
vt 0.875000 0.500000
vt 0.875000 0.750000
vt 0.375000 0.164433
vt 0.625000 0.164433
vt 0.375000 0.585567
vt 0.625000 0.585567
vt 0.125000 0.585567
vt 0.875000 0.585567
s 0
f 1/1/1 2/2/1 5/3/1 3/4/1
f 3/4/2 5/3/2 11/5/2 9/6/2
f 9/6/3 11/5/3 8/7/3 7/8/3
f 13/9/4 2/10/4 1/11/4 7/8/4 8/7/4 14/12/4 16/13/4 15/14/4
f 14/12/4 8/7/4 2/10/4 13/9/4
f 3/15/5 9/6/5 7/8/5 1/16/5
f 11/5/6 5/17/6 2/18/6 8/7/6
f 15/19/3 4/4/3 6/3/3 13/20/3
f 4/4/4 10/6/4 12/5/4 6/3/4
f 12/5/1 10/6/1 16/21/1 14/22/1
f 16/21/6 10/6/6 4/15/6 15/23/6
f 13/24/5 6/17/5 12/5/5 14/22/5
